<svg xmlns="http://www.w3.org/2000/svg" xmlns:xlink="http://www.w3.org/1999/xlink" width="500" zoomAndPan="magnify" viewBox="0 0 375 374.999991" height="500" preserveAspectRatio="xMidYMid meet" version="1.0"><defs><clipPath id="2c5c09b225"><path d="M 14.679688 80 L 360.429688 80 L 360.429688 304.3125 L 14.679688 304.3125 Z M 14.679688 80 " clip-rule="nonzero"/></clipPath><clipPath id="84f58cda25"><path d="M 192.234375 94 L 224 94 L 224 145.085938 L 192.234375 145.085938 Z M 192.234375 94 " clip-rule="nonzero"/></clipPath><clipPath id="427bc9ab42"><path d="M 219 55.085938 L 285.984375 55.085938 L 285.984375 142 L 219 142 Z M 219 55.085938 " clip-rule="nonzero"/></clipPath></defs><rect x="-37.5" width="450" fill="#ffffff" y="-37.499999" height="449.999989" fill-opacity="1"/><rect x="-37.5" width="450" fill="#ffffff" y="-37.499999" height="449.999989" fill-opacity="1"/><path fill="#000000" d="M 116.894531 221.46875 C 115.511719 220.933594 114.226562 220.203125 113.066406 219.289062 L 112.863281 219.128906 L 112.703125 218.925781 C 92.222656 193.421875 81.769531 182.328125 57.851562 164.394531 L 86.183594 234.96875 L 86.183594 241.664062 C 86.183594 243.546875 87.707031 245.070312 89.585938 245.070312 L 116.691406 245.070312 L 118.542969 266.34375 C 91.457031 267.609375 83.742188 278.964844 83.28125 279.914062 L 82.804688 280.71875 L 82.804688 285.816406 C 79.09375 287.007812 76.40625 290.488281 76.40625 294.601562 C 76.40625 299.695312 80.53125 303.828125 85.617188 303.828125 C 90.707031 303.828125 94.832031 299.695312 94.832031 294.601562 C 94.832031 290.941406 92.703125 287.792969 89.621094 286.300781 L 89.621094 282.816406 C 91.453125 280.777344 98.664062 274.121094 119.136719 273.167969 L 120.246094 285.914062 C 116.675781 287.1875 114.117188 290.589844 114.117188 294.601562 C 114.117188 299.695312 118.242188 303.824219 123.332031 303.824219 C 128.421875 303.824219 132.542969 299.695312 132.542969 294.601562 C 132.542969 291.03125 130.519531 287.945312 127.5625 286.410156 L 128.714844 273.164062 C 140.71875 273.710938 148.1875 276.265625 152.648438 278.65625 C 155.164062 280.007812 156.742188 281.308594 157.660156 282.210938 C 157.890625 282.4375 158.078125 282.640625 158.230469 282.808594 L 158.230469 286.140625 C 154.96875 287.5625 152.6875 290.8125 152.6875 294.601562 C 152.6875 299.695312 156.8125 303.824219 161.902344 303.824219 C 166.992188 303.824219 171.117188 299.695312 171.117188 294.601562 C 171.117188 290.613281 168.582031 287.222656 165.042969 285.933594 L 165.042969 280.71875 L 164.570312 279.914062 C 164.109375 278.964844 156.390625 267.609375 129.308594 266.34375 L 131.160156 245.070312 L 163.257812 245.070312 C 165.136719 245.070312 166.660156 243.546875 166.660156 241.664062 L 166.660156 229.007812 C 166.660156 227.125 165.136719 225.597656 163.257812 225.597656 C 163.257812 225.597656 154.570312 227.464844 137.644531 228.214844 L 134.4375 220.984375 C 131.722656 222.808594 128.585938 223.773438 125.292969 223.773438 C 122.339844 223.773438 119.4375 222.976562 116.894531 221.46875 Z M 116.894531 221.46875 " fill-opacity="1" fill-rule="nonzero"/><path fill="#000000" d="M 209.578125 166.835938 C 222.414062 166.835938 235.585938 168.105469 248.757812 170.613281 C 254.257812 171.660156 258.59375 175.355469 260.71875 180.125 C 261.363281 178.792969 261.820312 177.339844 262.023438 175.789062 C 263.050781 168.003906 257.582031 160.859375 249.8125 159.832031 L 249.808594 159.832031 C 240.554688 158.605469 231.722656 158.054688 223.339844 158.054688 C 188.589844 158.042969 161.6875 167.566406 143.546875 177.21875 C 143.457031 177.265625 143.378906 177.3125 143.289062 177.359375 C 143.8125 177.746094 144.339844 178.132812 144.890625 178.523438 C 164.945312 170.769531 186.703125 166.835938 209.578125 166.835938 Z M 209.578125 166.835938 " fill-opacity="1" fill-rule="nonzero"/><g clip-path="url(#2c5c09b225)"><path fill="#000000" d="M 259.625 189.46875 C 261.09375 181.753906 256.035156 174.3125 248.332031 172.847656 C 234.488281 170.210938 221.539062 169.109375 209.59375 169.109375 C 182.261719 169.105469 160.257812 174.890625 144.582031 181.085938 C 121.386719 165.015625 118.710938 150.410156 116.378906 128.433594 C 117.019531 127.109375 117.6875 125.675781 118.359375 124.152344 C 119.90625 120.640625 121.480469 116.671875 122.714844 112.535156 C 123.9375 108.382812 124.875 104.097656 124.890625 99.578125 C 124.878906 95.457031 124.082031 90.632812 120.570312 86.429688 C 118.839844 84.378906 116.480469 82.730469 113.949219 81.753906 C 111.410156 80.761719 108.746094 80.371094 106.046875 80.371094 C 100.433594 80.421875 94.417969 81.945312 87.09375 84.898438 C 89.480469 87.019531 91.527344 89.558594 93.101562 92.457031 C 94.574219 95.175781 95.539062 98.03125 96.042969 100.921875 C 100.929688 99.140625 104.339844 98.519531 106.046875 98.566406 C 106.292969 98.566406 106.5 98.574219 106.667969 98.589844 C 106.699219 98.847656 106.722656 99.179688 106.71875 99.574219 C 106.738281 101.339844 106.238281 104.238281 105.300781 107.335938 C 103.914062 112.007812 101.664062 117.160156 99.773438 121.019531 C 99.058594 122.484375 98.398438 123.769531 97.851562 124.796875 C 86.082031 130.511719 74.308594 136.226562 62.539062 141.941406 C 61.824219 142.277344 61.082031 142.867188 60.347656 143.613281 C 56.152344 143.273438 50.605469 142.644531 45.480469 141.492188 C 41.03125 140.523438 36.925781 139.066406 34.785156 137.703125 C 33.90625 137.167969 33.390625 136.6875 33.175781 136.445312 C 33.292969 135.867188 34.234375 133.769531 37.113281 130.796875 C 39.246094 128.554688 42.382812 125.84375 46.621094 122.757812 C 45.726562 121.597656 44.902344 120.363281 44.191406 119.046875 C 41.707031 114.464844 40.648438 109.488281 40.851562 104.625 C 32.535156 110.199219 26.53125 115.191406 22.246094 120.125 C 17.921875 125.148438 15.027344 130.480469 14.96875 136.644531 C 14.929688 140.714844 16.492188 144.632812 18.691406 147.4375 C 22.601562 152.375 27.617188 154.792969 32.667969 156.707031 C 40.277344 159.46875 48.582031 160.703125 55.210938 161.410156 C 56.1875 161.511719 57.125 161.601562 58.015625 161.675781 C 83.554688 180.710938 94.140625 192.175781 114.472656 217.5 C 115.550781 218.347656 116.710938 218.976562 117.894531 219.414062 C 120.140625 220.785156 122.707031 221.5 125.296875 221.5 C 128.324219 221.5 131.375 220.535156 133.957031 218.542969 C 134.292969 218.28125 161.875 197.503906 209.59375 197.539062 C 211.296875 197.539062 213.035156 197.574219 214.789062 197.628906 L 214.789062 208.394531 C 214.789062 210.609375 216.582031 212.402344 218.792969 212.402344 L 223.375 212.402344 C 221.59375 215.582031 220.378906 219.28125 219.984375 223.367188 C 217.652344 246.414062 212.34375 286.597656 210.960938 304.324219 L 225.019531 304.324219 C 225.636719 296.417969 232.605469 237.832031 233.925781 224.777344 C 234.289062 221.4375 235.3125 219.324219 236.777344 217.53125 C 238.566406 215.332031 241.441406 213.605469 244.898438 212.402344 L 326.152344 212.402344 C 329.613281 213.605469 332.484375 215.332031 334.277344 217.53125 C 335.738281 219.324219 336.761719 221.4375 337.125 224.777344 C 338.445312 237.832031 345.414062 296.417969 346.03125 304.324219 L 360.089844 304.324219 C 358.707031 286.597656 353.394531 246.414062 351.066406 223.367188 C 350.667969 219.28125 349.457031 215.582031 347.675781 212.402344 L 352.257812 212.402344 C 354.46875 212.402344 356.261719 210.609375 356.261719 208.394531 L 356.261719 195.699219 C 356.261719 193.484375 354.46875 191.691406 352.257812 191.691406 L 259 191.691406 C 259.257812 190.976562 259.480469 190.242188 259.625 189.46875 Z M 259.625 189.46875 " fill-opacity="1" fill-rule="nonzero"/></g><path fill="#000000" d="M 91.105469 93.542969 C 91.503906 94.28125 91.867188 95.035156 92.191406 95.808594 C 92.519531 96.578125 92.804688 97.367188 93.050781 98.167969 C 93.300781 98.964844 93.507812 99.777344 93.675781 100.597656 C 93.847656 101.417969 93.972656 102.246094 94.0625 103.078125 C 94.148438 103.914062 94.195312 104.75 94.199219 105.585938 C 94.207031 106.425781 94.171875 107.261719 94.09375 108.09375 C 94.019531 108.929688 93.898438 109.757812 93.742188 110.582031 C 93.585938 111.40625 93.386719 112.21875 93.148438 113.023438 C 92.910156 113.824219 92.632812 114.613281 92.320312 115.390625 C 92.003906 116.167969 91.652344 116.925781 91.261719 117.667969 C 90.871094 118.410156 90.445312 119.128906 89.984375 119.832031 C 89.527344 120.53125 89.03125 121.207031 88.503906 121.855469 C 87.980469 122.507812 87.421875 123.132812 86.832031 123.730469 C 86.246094 124.324219 85.628906 124.890625 84.984375 125.425781 C 84.34375 125.964844 83.675781 126.464844 82.980469 126.9375 C 82.289062 127.40625 81.574219 127.839844 80.839844 128.242188 C 80.101562 128.640625 79.347656 129.003906 78.578125 129.328125 C 77.808594 129.65625 77.023438 129.941406 76.222656 130.191406 C 75.421875 130.441406 74.613281 130.648438 73.792969 130.816406 C 72.972656 130.984375 72.148438 131.113281 71.316406 131.203125 C 70.484375 131.289062 69.648438 131.335938 68.8125 131.339844 C 67.972656 131.347656 67.140625 131.3125 66.304688 131.234375 C 65.472656 131.15625 64.644531 131.039062 63.820312 130.882812 C 63 130.722656 62.1875 130.527344 61.386719 130.289062 C 60.582031 130.050781 59.792969 129.773438 59.019531 129.457031 C 58.242188 129.140625 57.484375 128.789062 56.746094 128.398438 C 56.003906 128.007812 55.285156 127.582031 54.585938 127.121094 C 53.886719 126.660156 53.210938 126.167969 52.5625 125.640625 C 51.910156 125.113281 51.289062 124.554688 50.691406 123.964844 C 50.097656 123.375 49.53125 122.761719 48.996094 122.117188 C 48.460938 121.472656 47.957031 120.800781 47.488281 120.109375 C 47.019531 119.414062 46.585938 118.699219 46.183594 117.964844 C 45.785156 117.226562 45.421875 116.472656 45.097656 115.699219 C 44.773438 114.929688 44.484375 114.140625 44.238281 113.339844 C 43.988281 112.539062 43.78125 111.730469 43.613281 110.910156 C 43.445312 110.089844 43.316406 109.261719 43.226562 108.429688 C 43.140625 107.59375 43.09375 106.757812 43.089844 105.921875 C 43.082031 105.082031 43.121094 104.246094 43.195312 103.410156 C 43.273438 102.578125 43.390625 101.75 43.546875 100.925781 C 43.707031 100.101562 43.902344 99.289062 44.140625 98.484375 C 44.378906 97.683594 44.65625 96.890625 44.972656 96.117188 C 45.285156 95.339844 45.640625 94.582031 46.027344 93.839844 C 46.417969 93.097656 46.84375 92.375 47.304688 91.675781 C 47.765625 90.976562 48.257812 90.300781 48.785156 89.648438 C 49.3125 89 49.867188 88.375 50.457031 87.777344 C 51.046875 87.183594 51.660156 86.617188 52.304688 86.078125 C 52.949219 85.542969 53.617188 85.042969 54.308594 84.570312 C 55 84.101562 55.714844 83.664062 56.453125 83.265625 C 57.1875 82.867188 57.941406 82.503906 58.710938 82.175781 C 59.484375 81.851562 60.269531 81.566406 61.066406 81.316406 C 61.867188 81.066406 62.675781 80.859375 63.496094 80.691406 C 64.316406 80.519531 65.144531 80.394531 65.976562 80.304688 C 66.808594 80.21875 67.640625 80.171875 68.480469 80.164062 C 69.316406 80.160156 70.152344 80.195312 70.984375 80.273438 C 71.820312 80.347656 72.644531 80.46875 73.46875 80.625 C 74.289062 80.78125 75.101562 80.980469 75.90625 81.21875 C 76.707031 81.457031 77.496094 81.734375 78.273438 82.050781 C 79.046875 82.367188 79.804688 82.71875 80.546875 83.109375 C 81.285156 83.5 82.007812 83.925781 82.707031 84.386719 C 83.402344 84.847656 84.078125 85.339844 84.730469 85.867188 C 85.378906 86.394531 86.003906 86.953125 86.597656 87.542969 C 87.195312 88.132812 87.757812 88.746094 88.292969 89.390625 C 88.832031 90.035156 89.332031 90.707031 89.800781 91.398438 C 90.273438 92.09375 90.707031 92.808594 91.105469 93.542969 Z M 91.105469 93.542969 " fill-opacity="1" fill-rule="nonzero"/><path fill="#000000" d="M 272.242188 186.460938 L 333.710938 186.460938 C 334.96875 186.460938 335.988281 185.441406 335.988281 184.179688 L 335.988281 180.761719 C 335.988281 179.503906 334.96875 178.484375 333.710938 178.484375 L 330.917969 178.484375 L 350.078125 122.347656 C 350.484375 121.15625 349.851562 119.859375 348.660156 119.453125 L 345.429688 118.347656 C 344.238281 117.941406 342.941406 118.578125 342.539062 119.765625 L 322.660156 178.007812 C 322.605469 178.164062 322.570312 178.324219 322.554688 178.484375 L 272.242188 178.484375 C 270.988281 178.484375 269.96875 179.5 269.96875 180.761719 L 269.96875 184.179688 C 269.96875 185.4375 270.984375 186.460938 272.242188 186.460938 Z M 272.242188 186.460938 " fill-opacity="1" fill-rule="nonzero"/><g clip-path="url(#84f58cda25)"><path fill="#000000" d="M 221.546875 145.089844 L 194.226562 145.089844 C 193.148438 145.089844 192.273438 144.210938 192.273438 143.132812 L 192.273438 96.175781 C 192.273438 95.097656 193.148438 94.21875 194.226562 94.21875 L 221.546875 94.21875 C 222.621094 94.21875 223.496094 95.097656 223.496094 96.175781 L 223.496094 143.132812 C 223.496094 144.210938 222.621094 145.089844 221.546875 145.089844 Z M 196.175781 141.175781 L 219.59375 141.175781 L 219.59375 98.132812 L 196.175781 98.132812 Z M 196.175781 141.175781 " fill-opacity="1" fill-rule="nonzero"/></g><g clip-path="url(#427bc9ab42)"><path fill="#000000" d="M 269.355469 141.175781 L 233.253906 141.175781 C 229.644531 141.175781 223.085938 139.617188 220.164062 136.691406 C 219.402344 135.929688 219.402344 134.6875 220.164062 133.925781 C 220.925781 133.164062 222.164062 133.164062 222.921875 133.925781 C 224.769531 135.777344 230.082031 137.265625 233.25 137.265625 L 269.351562 137.265625 C 272.039062 137.265625 274.230469 135.070312 274.230469 132.375 C 274.230469 131.03125 273.683594 129.769531 272.6875 128.828125 C 272.132812 128.304688 271.9375 127.507812 272.175781 126.789062 C 272.414062 126.0625 273.050781 125.550781 273.804688 125.464844 C 276.273438 125.175781 278.136719 123.097656 278.136719 120.632812 C 278.136719 119.285156 277.589844 118.027344 276.59375 117.082031 C 276.039062 116.5625 275.84375 115.765625 276.082031 115.042969 C 276.320312 114.320312 276.957031 113.808594 277.710938 113.722656 C 280.175781 113.4375 282.039062 111.359375 282.039062 108.894531 C 282.039062 107.070312 281.015625 105.410156 279.367188 104.566406 C 278.742188 104.242188 278.335938 103.605469 278.3125 102.902344 C 278.285156 102.199219 278.636719 101.527344 279.238281 101.160156 C 280.988281 100.074219 282.039062 98.210938 282.039062 96.175781 C 282.039062 92.941406 279.410156 90.308594 276.183594 90.308594 L 248.863281 90.308594 C 248.222656 90.308594 247.625 89.988281 247.257812 89.460938 C 246.890625 88.933594 246.8125 88.257812 247.039062 87.65625 C 247.078125 87.550781 250.816406 77.625 250.816406 70.742188 C 250.816406 64.335938 245.148438 59.003906 243.011719 59.003906 C 241.328125 59.003906 239.917969 59.617188 239.109375 60.066406 L 239.109375 72.699219 C 239.109375 72.980469 239.046875 73.261719 238.929688 73.515625 L 227.21875 98.949219 C 227.03125 99.355469 226.714844 99.683594 226.324219 99.882812 L 222.417969 101.839844 C 221.453125 102.320312 220.285156 101.929688 219.800781 100.960938 C 219.316406 99.996094 219.710938 98.820312 220.675781 98.335938 L 223.964844 96.6875 L 235.207031 72.265625 L 235.207031 59.003906 C 235.207031 58.40625 235.472656 57.847656 235.9375 57.472656 C 236.058594 57.375 238.957031 55.089844 243.011719 55.089844 C 247.527344 55.089844 254.71875 62.253906 254.71875 70.742188 C 254.71875 76.09375 252.808594 82.757812 251.617188 86.394531 L 276.183594 86.394531 C 281.5625 86.394531 285.941406 90.785156 285.941406 96.175781 C 285.941406 98.644531 285.023438 100.960938 283.40625 102.730469 C 285.007812 104.347656 285.941406 106.542969 285.941406 108.894531 C 285.941406 112.285156 284 115.265625 281.121094 116.71875 C 281.722656 117.921875 282.039062 119.246094 282.039062 120.632812 C 282.039062 124.023438 280.097656 127.003906 277.21875 128.457031 C 277.820312 129.660156 278.136719 130.988281 278.136719 132.371094 C 278.136719 137.222656 274.199219 141.175781 269.355469 141.175781 Z M 269.355469 141.175781 " fill-opacity="1" fill-rule="nonzero"/></g></svg>