<svg xmlns="http://www.w3.org/2000/svg" xmlns:xlink="http://www.w3.org/1999/xlink" width="500" zoomAndPan="magnify" viewBox="0 0 375 374.999991" height="500" preserveAspectRatio="xMidYMid meet" version="1.0"><defs><clipPath id="d30985b5e1"><path d="M 49 198 L 148 198 L 148 337.472656 L 49 337.472656 Z M 49 198 " clip-rule="nonzero"/></clipPath><clipPath id="061095e45b"><path d="M 173.300781 43 L 333 43 L 333 227 L 173.300781 227 Z M 173.300781 43 " clip-rule="nonzero"/></clipPath></defs><path fill="#ffffff" d="M 375 187.5 C 375 190.570312 374.925781 193.636719 374.773438 196.699219 C 374.625 199.765625 374.398438 202.824219 374.097656 205.878906 C 373.796875 208.933594 373.421875 211.976562 372.96875 215.011719 C 372.519531 218.046875 371.996094 221.070312 371.398438 224.078125 C 370.796875 227.089844 370.125 230.082031 369.378906 233.058594 C 368.636719 236.035156 367.816406 238.992188 366.925781 241.929688 C 366.035156 244.863281 365.074219 247.777344 364.039062 250.667969 C 363.003906 253.554688 361.902344 256.417969 360.726562 259.253906 C 359.554688 262.089844 358.308594 264.890625 356.996094 267.667969 C 355.6875 270.441406 354.304688 273.179688 352.859375 275.886719 C 351.414062 278.59375 349.902344 281.261719 348.324219 283.894531 C 346.746094 286.527344 345.105469 289.117188 343.402344 291.667969 C 341.695312 294.222656 339.929688 296.730469 338.101562 299.195312 C 336.273438 301.660156 334.386719 304.078125 332.4375 306.449219 C 330.492188 308.820312 328.488281 311.144531 326.429688 313.417969 C 324.367188 315.691406 322.253906 317.914062 320.082031 320.082031 C 317.914062 322.253906 315.691406 324.367188 313.417969 326.429688 C 311.144531 328.488281 308.820312 330.492188 306.449219 332.4375 C 304.078125 334.386719 301.660156 336.273438 299.195312 338.101562 C 296.730469 339.929688 294.222656 341.695312 291.667969 343.402344 C 289.117188 345.105469 286.527344 346.746094 283.894531 348.324219 C 281.261719 349.902344 278.59375 351.414062 275.886719 352.859375 C 273.179688 354.308594 270.441406 355.6875 267.667969 356.996094 C 264.890625 358.308594 262.089844 359.554688 259.253906 360.726562 C 256.417969 361.902344 253.554688 363.003906 250.667969 364.039062 C 247.777344 365.074219 244.863281 366.035156 241.929688 366.925781 C 238.992188 367.816406 236.035156 368.636719 233.058594 369.378906 C 230.082031 370.125 227.089844 370.796875 224.078125 371.398438 C 221.070312 371.996094 218.046875 372.519531 215.011719 372.96875 C 211.976562 373.421875 208.933594 373.796875 205.878906 374.097656 C 202.824219 374.398438 199.765625 374.625 196.699219 374.773438 C 193.636719 374.925781 190.570312 375 187.5 375 C 184.429688 375 181.363281 374.925781 178.300781 374.773438 C 175.234375 374.625 172.175781 374.398438 169.121094 374.097656 C 166.066406 373.796875 163.023438 373.421875 159.988281 372.96875 C 156.953125 372.519531 153.929688 371.996094 150.921875 371.398438 C 147.910156 370.796875 144.917969 370.125 141.941406 369.378906 C 138.964844 368.636719 136.007812 367.816406 133.070312 366.925781 C 130.136719 366.035156 127.222656 365.074219 124.332031 364.039062 C 121.445312 363.003906 118.582031 361.902344 115.746094 360.726562 C 112.910156 359.554688 110.105469 358.308594 107.332031 356.996094 C 104.558594 355.6875 101.820312 354.308594 99.113281 352.859375 C 96.40625 351.414062 93.738281 349.902344 91.105469 348.324219 C 88.472656 346.746094 85.882812 345.105469 83.332031 343.402344 C 80.777344 341.695312 78.269531 339.929688 75.804688 338.101562 C 73.339844 336.273438 70.921875 334.386719 68.550781 332.4375 C 66.179688 330.492188 63.855469 328.488281 61.582031 326.429688 C 59.308594 324.367188 57.085938 322.253906 54.917969 320.082031 C 52.746094 317.914062 50.632812 315.691406 48.570312 313.417969 C 46.511719 311.144531 44.507812 308.820312 42.558594 306.449219 C 40.613281 304.078125 38.726562 301.660156 36.898438 299.195312 C 35.070312 296.730469 33.304688 294.222656 31.597656 291.667969 C 29.894531 289.117188 28.253906 286.527344 26.675781 283.894531 C 25.097656 281.261719 23.585938 278.59375 22.140625 275.886719 C 20.691406 273.179688 19.3125 270.441406 18.003906 267.667969 C 16.691406 264.890625 15.445312 262.089844 14.273438 259.253906 C 13.097656 256.417969 11.996094 253.554688 10.960938 250.667969 C 9.925781 247.777344 8.964844 244.863281 8.074219 241.929688 C 7.183594 238.992188 6.363281 236.035156 5.617188 233.058594 C 4.875 230.082031 4.203125 227.089844 3.601562 224.078125 C 3.003906 221.070312 2.480469 218.046875 2.03125 215.011719 C 1.578125 211.976562 1.203125 208.933594 0.902344 205.878906 C 0.601562 202.824219 0.375 199.765625 0.226562 196.699219 C 0.0742188 193.636719 0 190.570312 0 187.5 C 0 184.429688 0.0742188 181.363281 0.226562 178.300781 C 0.375 175.234375 0.601562 172.175781 0.902344 169.121094 C 1.203125 166.066406 1.578125 163.023438 2.03125 159.988281 C 2.480469 156.953125 3.003906 153.929688 3.601562 150.921875 C 4.203125 147.910156 4.875 144.917969 5.617188 141.941406 C 6.363281 138.964844 7.183594 136.007812 8.074219 133.070312 C 8.964844 130.136719 9.925781 127.222656 10.960938 124.332031 C 11.996094 121.445312 13.097656 118.582031 14.273438 115.746094 C 15.445312 112.910156 16.691406 110.105469 18.003906 107.332031 C 19.3125 104.558594 20.691406 101.820312 22.140625 99.113281 C 23.585938 96.40625 25.097656 93.738281 26.675781 91.105469 C 28.253906 88.472656 29.894531 85.882812 31.597656 83.332031 C 33.304688 80.777344 35.070312 78.269531 36.898438 75.804688 C 38.726562 73.339844 40.613281 70.921875 42.558594 68.550781 C 44.507812 66.179688 46.511719 63.855469 48.570312 61.582031 C 50.632812 59.308594 52.746094 57.085938 54.917969 54.917969 C 57.085938 52.746094 59.308594 50.632812 61.582031 48.570312 C 63.855469 46.511719 66.179688 44.507812 68.550781 42.558594 C 70.921875 40.613281 73.339844 38.726562 75.804688 36.898438 C 78.269531 35.070312 80.777344 33.304688 83.332031 31.597656 C 85.882812 29.894531 88.472656 28.253906 91.105469 26.675781 C 93.738281 25.097656 96.40625 23.585938 99.113281 22.140625 C 101.820312 20.691406 104.558594 19.3125 107.332031 18.003906 C 110.105469 16.691406 112.910156 15.445312 115.746094 14.273438 C 118.582031 13.097656 121.445312 11.996094 124.332031 10.960938 C 127.222656 9.925781 130.136719 8.964844 133.070312 8.074219 C 136.007812 7.183594 138.964844 6.363281 141.941406 5.617188 C 144.917969 4.875 147.910156 4.203125 150.921875 3.601562 C 153.929688 3.003906 156.953125 2.480469 159.988281 2.03125 C 163.023438 1.578125 166.066406 1.203125 169.121094 0.902344 C 172.175781 0.601562 175.234375 0.375 178.300781 0.226562 C 181.363281 0.0742188 184.429688 0 187.5 0 C 190.570312 0 193.636719 0.0742188 196.699219 0.226562 C 199.765625 0.375 202.824219 0.601562 205.878906 0.902344 C 208.933594 1.203125 211.976562 1.578125 215.011719 2.03125 C 218.046875 2.480469 221.070312 3.003906 224.078125 3.601562 C 227.089844 4.203125 230.082031 4.875 233.058594 5.617188 C 236.035156 6.363281 238.992188 7.183594 241.929688 8.074219 C 244.863281 8.964844 247.777344 9.925781 250.667969 10.960938 C 253.554688 11.996094 256.417969 13.097656 259.253906 14.273438 C 262.089844 15.445312 264.890625 16.691406 267.667969 18.003906 C 270.441406 19.3125 273.179688 20.691406 275.886719 22.140625 C 278.59375 23.585938 281.261719 25.097656 283.894531 26.675781 C 286.527344 28.253906 289.117188 29.894531 291.667969 31.597656 C 294.222656 33.304688 296.730469 35.070312 299.195312 36.898438 C 301.660156 38.726562 304.078125 40.613281 306.449219 42.558594 C 308.820312 44.507812 311.144531 46.511719 313.417969 48.570312 C 315.691406 50.632812 317.914062 52.746094 320.082031 54.917969 C 322.253906 57.085938 324.367188 59.308594 326.429688 61.582031 C 328.488281 63.855469 330.492188 66.179688 332.4375 68.550781 C 334.386719 70.921875 336.273438 73.339844 338.101562 75.804688 C 339.929688 78.269531 341.695312 80.777344 343.402344 83.332031 C 345.105469 85.882812 346.746094 88.472656 348.324219 91.105469 C 349.902344 93.738281 351.414062 96.40625 352.859375 99.113281 C 354.304688 101.820312 355.6875 104.558594 356.996094 107.332031 C 358.308594 110.105469 359.554688 112.910156 360.726562 115.746094 C 361.902344 118.582031 363.003906 121.445312 364.039062 124.332031 C 365.074219 127.222656 366.035156 130.136719 366.925781 133.070312 C 367.816406 136.007812 368.636719 138.964844 369.378906 141.941406 C 370.125 144.917969 370.796875 147.910156 371.398438 150.921875 C 371.996094 153.929688 372.519531 156.953125 372.96875 159.988281 C 373.421875 163.023438 373.796875 166.066406 374.097656 169.121094 C 374.398438 172.175781 374.625 175.234375 374.773438 178.300781 C 374.925781 181.363281 375 184.429688 375 187.5 Z M 375 187.5 " fill-opacity="1" fill-rule="nonzero"/><path fill="#000000" d="M 158.683594 278.320312 L 177.128906 317.511719 L 183.777344 314.378906 L 166.523438 277.71875 C 164.859375 278.226562 163.125 278.523438 161.34375 278.523438 C 160.449219 278.523438 159.558594 278.453125 158.683594 278.320312 Z M 158.683594 278.320312 " fill-opacity="1" fill-rule="nonzero"/><g clip-path="url(#d30985b5e1)"><path fill="#000000" d="M 143.933594 264.300781 L 131.15625 266.03125 L 108.234375 274.058594 L 55.730469 198.382812 L 49.691406 202.574219 L 104.652344 281.792969 L 117.878906 337.457031 L 125.027344 335.757812 L 112.695312 283.855469 L 147.363281 271.71875 C 145.636719 269.519531 144.484375 266.972656 143.933594 264.300781 Z M 143.933594 264.300781 " fill-opacity="1" fill-rule="nonzero"/></g><path fill="#000000" d="M 63.054688 156.054688 C 71.453125 168.75 88.550781 172.230469 101.242188 163.828125 C 113.933594 155.425781 117.410156 138.320312 109.007812 125.625 C 100.609375 112.929688 83.515625 109.449219 70.824219 117.855469 C 58.132812 126.257812 54.652344 143.359375 63.054688 156.054688 Z M 105.425781 138.996094 C 105.640625 145.777344 102.46875 152.515625 96.410156 156.527344 C 90.351562 160.535156 82.914062 160.824219 76.757812 157.980469 Z M 105.425781 138.996094 " fill-opacity="1" fill-rule="nonzero"/><path fill="#000000" d="M 201.195312 235.171875 L 182.640625 261.449219 L 223.445312 316.144531 C 227.296875 321.269531 233.746094 323.289062 239.582031 321.75 C 241.445312 321.261719 243.246094 320.40625 244.882812 319.175781 C 251.636719 314.09375 252.992188 304.492188 247.910156 297.734375 Z M 201.195312 235.171875 " fill-opacity="1" fill-rule="nonzero"/><path fill="#000000" d="M 146.800781 250.410156 L 162.628906 227.996094 L 136.964844 231.441406 L 138.34375 228.472656 L 164.828125 224.882812 L 174.65625 210.957031 L 177.40625 211.949219 L 149.101562 252.035156 C 144.324219 258.808594 145.933594 268.171875 152.699219 272.953125 C 155.332031 274.8125 158.351562 275.703125 161.34375 275.703125 C 166.050781 275.703125 170.6875 273.492188 173.609375 269.351562 L 206.671875 222.523438 L 214.84375 210.953125 C 214.890625 210.886719 214.929688 210.8125 214.976562 210.742188 C 215.132812 210.511719 215.277344 210.277344 215.421875 210.039062 C 215.539062 209.839844 215.660156 209.644531 215.769531 209.441406 C 215.882812 209.234375 215.988281 209.019531 216.089844 208.800781 C 216.203125 208.566406 216.316406 208.332031 216.417969 208.09375 C 216.5 207.902344 216.570312 207.699219 216.644531 207.503906 C 216.742188 207.246094 216.839844 206.984375 216.917969 206.722656 C 216.980469 206.519531 217.03125 206.3125 217.085938 206.109375 C 217.152344 205.851562 217.222656 205.589844 217.277344 205.328125 C 217.324219 205.09375 217.359375 204.859375 217.394531 204.625 C 217.433594 204.386719 217.472656 204.152344 217.5 203.914062 C 217.527344 203.648438 217.539062 203.382812 217.554688 203.113281 C 217.566406 202.902344 217.582031 202.691406 217.585938 202.480469 C 217.589844 202.203125 217.574219 201.925781 217.5625 201.648438 C 217.554688 201.4375 217.546875 201.230469 217.53125 201.019531 C 217.507812 200.757812 217.472656 200.5 217.4375 200.238281 C 217.402344 200.007812 217.371094 199.773438 217.328125 199.539062 C 217.285156 199.3125 217.230469 199.082031 217.175781 198.855469 C 217.113281 198.589844 217.050781 198.324219 216.972656 198.058594 C 216.949219 197.976562 216.933594 197.894531 216.910156 197.8125 C 216.867188 197.6875 216.816406 197.574219 216.773438 197.449219 C 216.679688 197.179688 216.582031 196.910156 216.476562 196.640625 C 216.394531 196.441406 216.308594 196.246094 216.21875 196.050781 C 216.105469 195.800781 215.984375 195.554688 215.855469 195.308594 C 215.75 195.109375 215.640625 194.914062 215.527344 194.722656 C 215.398438 194.496094 215.257812 194.273438 215.113281 194.050781 C 214.984375 193.855469 214.855469 193.664062 214.71875 193.476562 C 214.566406 193.273438 214.414062 193.074219 214.253906 192.875 C 214.101562 192.6875 213.945312 192.503906 213.785156 192.324219 C 213.625 192.140625 213.457031 191.960938 213.28125 191.785156 C 213.105469 191.605469 212.925781 191.433594 212.738281 191.261719 C 212.5625 191.101562 212.386719 190.945312 212.203125 190.789062 C 212 190.621094 211.796875 190.464844 211.585938 190.304688 C 211.46875 190.21875 211.363281 190.121094 211.242188 190.035156 C 211.164062 189.980469 211.082031 189.9375 211 189.882812 C 210.800781 189.746094 210.59375 189.621094 210.386719 189.496094 C 210.160156 189.355469 209.933594 189.21875 209.699219 189.09375 C 209.527344 189 209.347656 188.914062 209.167969 188.828125 C 208.898438 188.695312 208.628906 188.5625 208.351562 188.445312 C 208.199219 188.382812 208.046875 188.328125 207.890625 188.273438 C 207.589844 188.15625 207.285156 188.042969 206.976562 187.949219 C 206.824219 187.902344 206.667969 187.867188 206.515625 187.824219 C 206.207031 187.738281 205.898438 187.65625 205.585938 187.59375 C 205.402344 187.554688 205.21875 187.53125 205.03125 187.5 C 204.746094 187.453125 204.464844 187.402344 204.175781 187.375 C 203.953125 187.351562 203.730469 187.339844 203.507812 187.328125 C 203.25 187.3125 203 187.292969 202.742188 187.289062 C 202.503906 187.289062 202.257812 187.300781 202.015625 187.308594 C 201.773438 187.320312 201.53125 187.324219 201.289062 187.347656 C 201.054688 187.367188 200.816406 187.402344 200.585938 187.433594 C 200.324219 187.46875 200.070312 187.503906 199.8125 187.550781 C 199.601562 187.589844 199.390625 187.644531 199.183594 187.691406 C 198.898438 187.757812 198.617188 187.828125 198.339844 187.910156 C 198.261719 187.933594 198.183594 187.945312 198.109375 187.96875 L 136.628906 207.207031 C 128.929688 193.21875 128.132812 179.996094 129.597656 164.171875 C 132.75 162.929688 136.175781 161.523438 139.609375 160.015625 C 157.6875 152.058594 169.289062 144.5 167.140625 133.46875 C 164.984375 122.378906 150.675781 120.886719 144.5625 120.253906 C 135.835938 119.347656 123.820312 119.234375 108.050781 119.921875 C 109.25 121.1875 110.363281 122.566406 111.359375 124.070312 C 114.457031 128.757812 116.082031 133.996094 116.347656 139.238281 C 125.746094 138.972656 132.617188 139.074219 137.613281 139.347656 C 131.515625 142.316406 123.585938 145.640625 115.367188 148.632812 C 113.53125 155.578125 109.246094 161.90625 102.796875 166.175781 C 91.851562 173.425781 77.882812 172.628906 67.90625 165.214844 C 67.742188 165.308594 67.578125 165.394531 67.421875 165.5 C 60.617188 169.9375 53.433594 174.1875 47.121094 177.59375 C 50.828125 173.078125 55.820312 167.335938 62.519531 160.074219 C 61.882812 159.289062 61.277344 158.46875 60.707031 157.609375 C 56.851562 151.78125 55.277344 145.097656 55.761719 138.613281 C 42.128906 152.980469 32.097656 164.5 25.914062 172.914062 C 21.167969 179.371094 12.332031 191.394531 19.625 200.25 C 22.242188 203.429688 25.691406 204.710938 29.679688 204.710938 C 37.355469 204.710938 47.015625 199.953125 56.546875 194.78125 C 59.152344 193.363281 61.707031 191.914062 64.101562 190.519531 C 73.050781 216.621094 86.578125 235.015625 105.578125 257.921875 C 106.417969 258.9375 107.367188 259.78125 108.371094 260.472656 C 111.613281 263.519531 116.144531 265.140625 120.894531 264.503906 L 121.648438 264.402344 L 143.578125 261.457031 C 143.414062 257.648438 144.441406 253.757812 146.800781 250.410156 Z M 146.800781 250.410156 " fill-opacity="1" fill-rule="nonzero"/><g clip-path="url(#061095e45b)"><path fill="#000000" d="M 240.945312 43.238281 C 238.75 43.285156 236.992188 45.085938 237.023438 47.277344 L 237.023438 71.136719 C 237.007812 72.5625 237.753906 73.898438 239 74.628906 C 240.242188 75.34375 241.769531 75.34375 243.011719 74.628906 C 244.257812 73.898438 245.003906 72.5625 244.988281 71.136719 L 244.988281 47.277344 C 245.003906 46.207031 244.582031 45.164062 243.820312 44.402344 C 243.058594 43.640625 242.015625 43.222656 240.945312 43.238281 Z M 205.117188 55.199219 C 203.496094 55.199219 202.050781 56.175781 201.429688 57.667969 C 200.820312 59.175781 201.179688 60.882812 202.347656 62.015625 L 218.277344 77.921875 C 219.273438 78.964844 220.765625 79.382812 222.148438 79.011719 C 223.550781 78.652344 224.640625 77.566406 224.996094 76.167969 C 225.371094 74.785156 224.949219 73.292969 223.910156 72.300781 L 207.976562 56.394531 C 207.230469 55.617188 206.203125 55.199219 205.117188 55.199219 Z M 276.773438 55.199219 C 275.730469 55.214844 274.75 55.648438 274.035156 56.394531 L 258.101562 72.300781 C 257.0625 73.292969 256.640625 74.785156 257.015625 76.167969 C 257.371094 77.566406 258.460938 78.652344 259.859375 79.011719 C 261.246094 79.382812 262.738281 78.964844 263.734375 77.921875 L 279.664062 62.015625 C 280.847656 60.867188 281.191406 59.128906 280.550781 57.621094 C 279.914062 56.101562 278.421875 55.136719 276.773438 55.199219 Z M 317.359375 63.183594 C 314.480469 63.183594 311.589844 64.285156 309.394531 66.476562 L 233.039062 142.710938 C 233.039062 142.710938 221.386719 120.824219 215.554688 114.984375 C 205.363281 104.808594 185.652344 99.839844 180.457031 105.027344 L 173.300781 112.15625 L 195.828125 134.648438 L 213.128906 186.449219 L 244.398438 217.667969 C 255.722656 228.976562 274.082031 228.976562 285.40625 217.667969 L 329.308594 173.835938 C 333.710938 169.441406 333.710938 162.328125 329.308594 157.929688 C 324.90625 153.535156 317.78125 153.535156 313.378906 157.929688 L 317.359375 153.953125 C 321.761719 149.558594 321.761719 142.445312 317.359375 138.050781 C 312.957031 133.652344 305.832031 133.652344 301.429688 138.050781 L 305.414062 134.074219 C 309.816406 129.675781 309.816406 122.5625 305.414062 118.167969 C 301.007812 113.773438 293.882812 113.773438 289.480469 118.167969 L 325.324219 82.378906 C 329.726562 77.984375 329.726562 70.871094 325.324219 66.476562 C 323.132812 64.285156 320.238281 63.183594 317.359375 63.183594 Z M 317.359375 63.183594 " fill-opacity="1" fill-rule="nonzero"/></g></svg>