<svg xmlns="http://www.w3.org/2000/svg" xmlns:xlink="http://www.w3.org/1999/xlink" width="500" zoomAndPan="magnify" viewBox="0 0 375 374.999991" height="500" preserveAspectRatio="xMidYMid meet" version="1.0"><defs><clipPath id="b6a3a662fe"><path d="M 228 52.125 L 288.195312 52.125 L 288.195312 139 L 228 139 Z M 228 52.125 " clip-rule="nonzero"/></clipPath><clipPath id="ca822c518f"><path d="M 68.445312 75 L 162 75 L 162 208.875 L 68.445312 208.875 Z M 68.445312 75 " clip-rule="nonzero"/></clipPath><clipPath id="dc1ed38864"><path d="M 174.632812 153.992188 L 294 153.992188 L 294 291 L 174.632812 291 Z M 174.632812 153.992188 " clip-rule="nonzero"/></clipPath><clipPath id="8ea3c4f1d7"><path d="M 281 153.992188 L 294 153.992188 L 294 278 L 281 278 Z M 281 153.992188 " clip-rule="nonzero"/></clipPath><clipPath id="ece1c6feca"><path d="M 174.632812 277 L 294 277 L 294 303.992188 L 174.632812 303.992188 Z M 174.632812 277 " clip-rule="nonzero"/></clipPath><clipPath id="c29d88ce39"><path d="M 276 277 L 294 277 L 294 303.992188 L 276 303.992188 Z M 276 277 " clip-rule="nonzero"/></clipPath><clipPath id="e67d2d1939"><path d="M 174.632812 153.992188 L 194 153.992188 L 194 290 L 174.632812 290 Z M 174.632812 153.992188 " clip-rule="nonzero"/></clipPath><clipPath id="e89e3112be"><path d="M 293 244 L 312.632812 244 L 312.632812 266 L 293 266 Z M 293 244 " clip-rule="nonzero"/></clipPath></defs><rect x="-37.5" width="450" fill="#ffffff" y="-37.499999" height="449.999989" fill-opacity="1"/><rect x="-37.5" width="450" fill="#ffffff" y="-37.499999" height="449.999989" fill-opacity="1"/><path fill="#000000" d="M 135.039062 122.097656 C 135.039062 121.441406 135.003906 120.789062 134.941406 120.136719 C 134.878906 119.484375 134.78125 118.839844 134.652344 118.195312 C 134.527344 117.554688 134.367188 116.917969 134.175781 116.292969 C 133.988281 115.664062 133.765625 115.050781 133.515625 114.445312 C 133.265625 113.839844 132.988281 113.25 132.679688 112.671875 C 132.371094 112.09375 132.035156 111.53125 131.671875 110.988281 C 131.308594 110.441406 130.917969 109.917969 130.503906 109.410156 C 130.085938 108.902344 129.648438 108.417969 129.1875 107.957031 C 128.722656 107.492188 128.238281 107.054688 127.734375 106.636719 C 127.226562 106.222656 126.703125 105.832031 126.160156 105.46875 C 125.613281 105.105469 125.054688 104.769531 124.476562 104.460938 C 123.902344 104.152344 123.308594 103.871094 122.707031 103.621094 C 122.101562 103.371094 121.484375 103.148438 120.859375 102.960938 C 120.234375 102.769531 119.597656 102.609375 118.957031 102.484375 C 118.316406 102.355469 117.667969 102.257812 117.019531 102.195312 C 116.367188 102.128906 115.714844 102.097656 115.058594 102.097656 C 114.40625 102.097656 113.753906 102.128906 113.101562 102.195312 C 112.449219 102.257812 111.804688 102.355469 111.164062 102.484375 C 110.519531 102.609375 109.886719 102.769531 109.261719 102.960938 C 108.636719 103.148438 108.019531 103.371094 107.414062 103.621094 C 106.8125 103.871094 106.21875 104.152344 105.644531 104.460938 C 105.066406 104.769531 104.503906 105.105469 103.960938 105.46875 C 103.417969 105.832031 102.890625 106.222656 102.386719 106.636719 C 101.882812 107.054688 101.398438 107.492188 100.933594 107.957031 C 100.472656 108.417969 100.03125 108.902344 99.617188 109.410156 C 99.203125 109.917969 98.8125 110.441406 98.449219 110.988281 C 98.085938 111.53125 97.75 112.09375 97.441406 112.671875 C 97.132812 113.25 96.855469 113.839844 96.605469 114.445312 C 96.351562 115.050781 96.132812 115.664062 95.941406 116.292969 C 95.753906 116.917969 95.59375 117.554688 95.46875 118.195312 C 95.339844 118.839844 95.242188 119.484375 95.179688 120.136719 C 95.113281 120.789062 95.082031 121.441406 95.082031 122.097656 C 95.082031 122.753906 95.113281 123.40625 95.179688 124.058594 C 95.242188 124.710938 95.339844 125.359375 95.46875 126 C 95.59375 126.640625 95.753906 127.277344 95.941406 127.902344 C 96.132812 128.53125 96.351562 129.148438 96.605469 129.75 C 96.855469 130.355469 97.132812 130.949219 97.441406 131.527344 C 97.75 132.105469 98.085938 132.664062 98.449219 133.210938 C 98.8125 133.753906 99.203125 134.28125 99.617188 134.785156 C 100.03125 135.292969 100.472656 135.777344 100.933594 136.238281 C 101.398438 136.703125 101.882812 137.144531 102.386719 137.558594 C 102.890625 137.972656 103.417969 138.363281 103.960938 138.726562 C 104.503906 139.089844 105.066406 139.425781 105.644531 139.738281 C 106.21875 140.046875 106.8125 140.324219 107.414062 140.574219 C 108.019531 140.828125 108.636719 141.046875 109.261719 141.238281 C 109.886719 141.425781 110.519531 141.585938 111.164062 141.714844 C 111.804688 141.839844 112.449219 141.9375 113.101562 142 C 113.753906 142.066406 114.40625 142.097656 115.058594 142.097656 C 115.714844 142.097656 116.367188 142.0625 117.019531 142 C 117.667969 141.933594 118.316406 141.839844 118.957031 141.710938 C 119.597656 141.582031 120.230469 141.421875 120.855469 141.230469 C 121.484375 141.042969 122.097656 140.820312 122.703125 140.570312 C 123.304688 140.320312 123.894531 140.039062 124.472656 139.730469 C 125.050781 139.421875 125.609375 139.085938 126.152344 138.71875 C 126.699219 138.355469 127.222656 137.96875 127.726562 137.550781 C 128.234375 137.136719 128.71875 136.695312 129.179688 136.234375 C 129.640625 135.769531 130.082031 135.285156 130.496094 134.78125 C 130.910156 134.273438 131.300781 133.75 131.664062 133.203125 C 132.027344 132.660156 132.363281 132.097656 132.671875 131.523438 C 132.980469 130.945312 133.261719 130.351562 133.511719 129.75 C 133.761719 129.144531 133.980469 128.527344 134.171875 127.902344 C 134.363281 127.273438 134.523438 126.640625 134.648438 126 C 134.777344 125.355469 134.875 124.710938 134.9375 124.058594 C 135.003906 123.40625 135.035156 122.753906 135.039062 122.097656 Z M 101.742188 122.097656 C 101.742188 121.222656 101.828125 120.355469 101.996094 119.496094 C 102.167969 118.636719 102.421875 117.804688 102.753906 116.996094 C 103.089844 116.1875 103.5 115.417969 103.988281 114.691406 C 104.472656 113.960938 105.023438 113.289062 105.644531 112.671875 C 106.261719 112.050781 106.933594 111.5 107.660156 111.011719 C 108.386719 110.527344 109.15625 110.113281 109.964844 109.78125 C 110.773438 109.445312 111.605469 109.191406 112.460938 109.019531 C 113.320312 108.851562 114.1875 108.765625 115.058594 108.765625 C 115.933594 108.765625 116.800781 108.851562 117.660156 109.019531 C 118.515625 109.191406 119.347656 109.445312 120.15625 109.78125 C 120.964844 110.113281 121.730469 110.527344 122.460938 111.011719 C 123.1875 111.5 123.859375 112.050781 124.476562 112.671875 C 125.097656 113.289062 125.648438 113.960938 126.132812 114.691406 C 126.621094 115.417969 127.03125 116.1875 127.363281 116.996094 C 127.699219 117.804688 127.953125 118.636719 128.121094 119.496094 C 128.292969 120.355469 128.378906 121.222656 128.378906 122.097656 C 128.378906 122.972656 128.292969 123.839844 128.121094 124.699219 C 127.953125 125.558594 127.699219 126.390625 127.363281 127.199219 C 127.03125 128.007812 126.621094 128.777344 126.132812 129.503906 C 125.648438 130.234375 125.097656 130.90625 124.476562 131.527344 C 123.859375 132.144531 123.1875 132.699219 122.460938 133.183594 C 121.730469 133.671875 120.964844 134.082031 120.15625 134.417969 C 119.347656 134.75 118.515625 135.003906 117.660156 135.175781 C 116.800781 135.347656 115.933594 135.429688 115.058594 135.429688 C 114.1875 135.429688 113.320312 135.34375 112.464844 135.171875 C 111.605469 135 110.773438 134.746094 109.964844 134.414062 C 109.160156 134.078125 108.390625 133.667969 107.664062 133.179688 C 106.9375 132.691406 106.265625 132.140625 105.648438 131.523438 C 105.027344 130.902344 104.476562 130.230469 103.992188 129.503906 C 103.503906 128.773438 103.09375 128.007812 102.761719 127.199219 C 102.425781 126.390625 102.171875 125.554688 102 124.699219 C 101.828125 123.839844 101.742188 122.972656 101.742188 122.097656 Z M 101.742188 122.097656 " fill-opacity="1" fill-rule="nonzero"/><path fill="#000000" d="M 271.550781 82.097656 C 271.550781 81.222656 271.464844 80.355469 271.292969 79.496094 C 271.121094 78.640625 270.871094 77.804688 270.535156 76.996094 C 270.199219 76.1875 269.789062 75.417969 269.304688 74.691406 C 268.820312 73.964844 268.265625 73.289062 267.648438 72.671875 C 267.03125 72.050781 266.355469 71.5 265.628906 71.011719 C 264.902344 70.527344 264.136719 70.117188 263.328125 69.78125 C 262.519531 69.445312 261.6875 69.191406 260.828125 69.023438 C 259.972656 68.851562 259.105469 68.765625 258.230469 68.765625 C 257.355469 68.765625 256.488281 68.851562 255.632812 69.023438 C 254.773438 69.191406 253.941406 69.445312 253.132812 69.78125 C 252.324219 70.117188 251.558594 70.527344 250.832031 71.011719 C 250.105469 71.5 249.429688 72.050781 248.8125 72.671875 C 248.195312 73.289062 247.644531 73.964844 247.15625 74.691406 C 246.671875 75.417969 246.261719 76.1875 245.925781 76.996094 C 245.589844 77.804688 245.339844 78.640625 245.167969 79.496094 C 244.996094 80.355469 244.914062 81.222656 244.914062 82.097656 C 244.914062 82.972656 244.996094 83.839844 245.167969 84.699219 C 245.339844 85.558594 245.589844 86.390625 245.925781 87.203125 C 246.261719 88.011719 246.671875 88.777344 247.15625 89.507812 C 247.644531 90.234375 248.195312 90.90625 248.8125 91.527344 C 249.429688 92.144531 250.105469 92.699219 250.832031 93.183594 C 251.558594 93.671875 252.324219 94.082031 253.132812 94.417969 C 253.941406 94.753906 254.773438 95.003906 255.632812 95.175781 C 256.488281 95.347656 257.355469 95.433594 258.230469 95.433594 C 259.105469 95.429688 259.96875 95.34375 260.828125 95.171875 C 261.683594 95 262.515625 94.75 263.324219 94.414062 C 264.132812 94.078125 264.898438 93.667969 265.625 93.179688 C 266.351562 92.695312 267.027344 92.140625 267.644531 91.523438 C 268.261719 90.902344 268.8125 90.230469 269.300781 89.503906 C 269.785156 88.773438 270.195312 88.007812 270.53125 87.199219 C 270.867188 86.390625 271.121094 85.558594 271.289062 84.699219 C 271.460938 83.839844 271.546875 82.972656 271.550781 82.097656 Z M 251.570312 82.097656 C 251.570312 81.660156 251.613281 81.226562 251.699219 80.796875 C 251.785156 80.367188 251.910156 79.953125 252.078125 79.546875 C 252.246094 79.144531 252.449219 78.757812 252.695312 78.394531 C 252.9375 78.03125 253.210938 77.695312 253.523438 77.386719 C 253.832031 77.074219 254.167969 76.800781 254.53125 76.554688 C 254.894531 76.3125 255.277344 76.105469 255.683594 75.941406 C 256.085938 75.773438 256.503906 75.644531 256.929688 75.558594 C 257.359375 75.476562 257.792969 75.433594 258.230469 75.433594 C 258.667969 75.433594 259.101562 75.476562 259.53125 75.558594 C 259.957031 75.644531 260.375 75.773438 260.777344 75.941406 C 261.183594 76.105469 261.566406 76.3125 261.929688 76.554688 C 262.292969 76.800781 262.628906 77.074219 262.9375 77.386719 C 263.25 77.695312 263.523438 78.03125 263.765625 78.394531 C 264.011719 78.757812 264.214844 79.144531 264.382812 79.546875 C 264.550781 79.953125 264.675781 80.367188 264.761719 80.796875 C 264.847656 81.226562 264.890625 81.660156 264.890625 82.097656 C 264.890625 82.535156 264.847656 82.96875 264.761719 83.398438 C 264.675781 83.828125 264.550781 84.246094 264.382812 84.648438 C 264.214844 85.054688 264.011719 85.4375 263.765625 85.800781 C 263.523438 86.167969 263.25 86.503906 262.9375 86.8125 C 262.628906 87.121094 262.292969 87.398438 261.929688 87.640625 C 261.566406 87.886719 261.183594 88.089844 260.777344 88.257812 C 260.375 88.425781 259.957031 88.550781 259.53125 88.636719 C 259.101562 88.722656 258.667969 88.765625 258.230469 88.765625 C 257.792969 88.765625 257.359375 88.722656 256.933594 88.636719 C 256.503906 88.550781 256.085938 88.425781 255.683594 88.257812 C 255.28125 88.089844 254.894531 87.882812 254.53125 87.640625 C 254.167969 87.398438 253.832031 87.121094 253.523438 86.8125 C 253.214844 86.5 252.9375 86.164062 252.695312 85.800781 C 252.453125 85.4375 252.246094 85.054688 252.082031 84.648438 C 251.914062 84.246094 251.785156 83.828125 251.699219 83.398438 C 251.613281 82.96875 251.570312 82.535156 251.570312 82.097656 Z M 251.570312 82.097656 " fill-opacity="1" fill-rule="nonzero"/><g clip-path="url(#b6a3a662fe)"><path fill="#000000" d="M 273.582031 115.273438 C 280.78125 106.871094 288.195312 95.09375 288.195312 82.097656 C 288.195312 81.117188 288.148438 80.136719 288.050781 79.160156 C 287.957031 78.179688 287.8125 77.210938 287.621094 76.246094 C 287.429688 75.28125 287.191406 74.332031 286.90625 73.390625 C 286.621094 72.449219 286.292969 71.527344 285.914062 70.617188 C 285.539062 69.710938 285.121094 68.824219 284.660156 67.957031 C 284.195312 67.089844 283.691406 66.25 283.144531 65.433594 C 282.601562 64.613281 282.015625 63.828125 281.394531 63.066406 C 280.773438 62.308594 280.113281 61.582031 279.417969 60.886719 C 278.726562 60.191406 278 59.53125 277.242188 58.910156 C 276.480469 58.285156 275.695312 57.699219 274.878906 57.15625 C 274.0625 56.609375 273.222656 56.105469 272.355469 55.640625 C 271.492188 55.179688 270.605469 54.757812 269.699219 54.382812 C 268.792969 54.007812 267.867188 53.675781 266.929688 53.390625 C 265.988281 53.105469 265.039062 52.867188 264.078125 52.675781 C 263.113281 52.484375 262.144531 52.339844 261.167969 52.242188 C 260.191406 52.148438 259.210938 52.097656 258.230469 52.097656 C 257.25 52.097656 256.269531 52.148438 255.292969 52.242188 C 254.316406 52.339844 253.347656 52.484375 252.382812 52.675781 C 251.421875 52.867188 250.472656 53.105469 249.53125 53.390625 C 248.59375 53.675781 247.667969 54.007812 246.761719 54.382812 C 245.855469 54.757812 244.96875 55.179688 244.105469 55.640625 C 243.238281 56.105469 242.398438 56.609375 241.582031 57.15625 C 240.765625 57.699219 239.980469 58.285156 239.21875 58.910156 C 238.460938 59.53125 237.734375 60.191406 237.042969 60.886719 C 236.347656 61.582031 235.6875 62.308594 235.066406 63.066406 C 234.445312 63.828125 233.859375 64.613281 233.316406 65.433594 C 232.769531 66.25 232.265625 67.089844 231.804688 67.957031 C 231.339844 68.824219 230.921875 69.710938 230.546875 70.617188 C 230.171875 71.527344 229.839844 72.449219 229.554688 73.390625 C 229.269531 74.332031 229.03125 75.28125 228.839844 76.246094 C 228.648438 77.210938 228.503906 78.179688 228.410156 79.160156 C 228.3125 80.136719 228.265625 81.117188 228.265625 82.097656 C 228.265625 95.09375 235.679688 106.871094 242.878906 115.273438 C 239.367188 116.976562 236.898438 119.234375 235.722656 121.84375 C 235.550781 121.828125 235.414062 121.816406 235.226562 121.800781 C 234.785156 121.765625 234.355469 121.8125 233.9375 121.949219 C 233.515625 122.085938 233.140625 122.292969 232.800781 122.582031 C 232.464844 122.867188 232.195312 123.203125 231.996094 123.597656 C 231.792969 123.988281 231.675781 124.40625 231.636719 124.847656 C 231.601562 125.285156 231.648438 125.714844 231.785156 126.136719 C 231.917969 126.558594 232.128906 126.9375 232.414062 127.273438 C 232.695312 127.609375 233.035156 127.882812 233.425781 128.082031 C 233.820312 128.285156 234.234375 128.40625 234.671875 128.445312 C 234.988281 128.46875 235.25 128.492188 235.523438 128.519531 C 237.832031 134.527344 246.816406 138.765625 258.230469 138.765625 C 271.519531 138.765625 281.539062 133.03125 281.539062 125.429688 C 281.539062 121.324219 278.625 117.71875 273.582031 115.273438 Z M 258.230469 58.765625 C 258.992188 58.765625 259.753906 58.804688 260.515625 58.878906 C 261.273438 58.957031 262.027344 59.070312 262.777344 59.21875 C 263.523438 59.367188 264.261719 59.554688 264.992188 59.777344 C 265.722656 60 266.441406 60.257812 267.144531 60.550781 C 267.851562 60.84375 268.539062 61.167969 269.210938 61.527344 C 269.886719 61.890625 270.539062 62.28125 271.171875 62.707031 C 271.808594 63.132812 272.417969 63.585938 273.007812 64.070312 C 273.597656 64.554688 274.164062 65.066406 274.703125 65.609375 C 275.242188 66.148438 275.753906 66.714844 276.238281 67.304688 C 276.722656 67.894531 277.175781 68.507812 277.601562 69.140625 C 278.027344 69.777344 278.417969 70.429688 278.777344 71.105469 C 279.136719 71.777344 279.464844 72.46875 279.757812 73.175781 C 280.046875 73.878906 280.304688 74.597656 280.527344 75.328125 C 280.75 76.058594 280.9375 76.800781 281.085938 77.546875 C 281.234375 78.296875 281.347656 79.050781 281.421875 79.8125 C 281.5 80.574219 281.535156 81.335938 281.539062 82.097656 C 281.539062 99.871094 264.207031 116.078125 258.230469 121.144531 C 252.246094 116.085938 234.925781 99.910156 234.925781 82.097656 C 234.925781 81.335938 234.964844 80.574219 235.039062 79.8125 C 235.113281 79.050781 235.226562 78.296875 235.375 77.546875 C 235.527344 76.800781 235.710938 76.058594 235.933594 75.328125 C 236.15625 74.597656 236.414062 73.878906 236.703125 73.175781 C 236.996094 72.46875 237.324219 71.777344 237.683594 71.105469 C 238.042969 70.429688 238.4375 69.777344 238.859375 69.140625 C 239.285156 68.507812 239.738281 67.894531 240.222656 67.304688 C 240.707031 66.714844 241.21875 66.148438 241.757812 65.609375 C 242.296875 65.066406 242.863281 64.554688 243.453125 64.070312 C 244.042969 63.585938 244.652344 63.132812 245.289062 62.707031 C 245.921875 62.28125 246.578125 61.890625 247.25 61.527344 C 247.921875 61.167969 248.609375 60.84375 249.316406 60.550781 C 250.019531 60.257812 250.738281 60 251.46875 59.777344 C 252.199219 59.554688 252.9375 59.367188 253.6875 59.21875 C 254.433594 59.070312 255.1875 58.957031 255.945312 58.878906 C 256.707031 58.804688 257.46875 58.765625 258.230469 58.765625 Z M 258.230469 132.097656 C 248.066406 132.097656 241.582031 128.148438 241.582031 125.429688 C 241.582031 123.964844 243.664062 121.910156 247.664062 120.460938 C 250.355469 123.191406 253.210938 125.738281 256.234375 128.097656 C 256.519531 128.3125 256.835938 128.480469 257.175781 128.59375 C 257.519531 128.707031 257.871094 128.765625 258.230469 128.765625 C 258.589844 128.765625 258.941406 128.707031 259.285156 128.59375 C 259.625 128.480469 259.941406 128.3125 260.230469 128.097656 C 263.25 125.738281 266.105469 123.191406 268.796875 120.460938 C 272.796875 121.910156 274.878906 123.964844 274.878906 125.429688 C 274.878906 128.148438 268.394531 132.097656 258.230469 132.097656 Z M 258.230469 132.097656 " fill-opacity="1" fill-rule="nonzero"/></g><g clip-path="url(#ca822c518f)"><path fill="#000000" d="M 151.855469 188.980469 C 151.566406 188.964844 151.339844 188.949219 151.085938 188.933594 C 149.351562 184.28125 143.757812 180.445312 135.214844 178.042969 C 147.578125 164.652344 161.675781 144.484375 161.675781 122.097656 C 161.675781 120.570312 161.597656 119.046875 161.449219 117.523438 C 161.300781 116.003906 161.074219 114.492188 160.777344 112.996094 C 160.480469 111.496094 160.109375 110.015625 159.667969 108.550781 C 159.222656 107.089844 158.710938 105.652344 158.125 104.238281 C 157.542969 102.828125 156.890625 101.449219 156.167969 100.101562 C 155.449219 98.753906 154.667969 97.441406 153.816406 96.171875 C 152.96875 94.902344 152.0625 93.675781 151.09375 92.492188 C 150.125 91.3125 149.101562 90.179688 148.019531 89.101562 C 146.941406 88.019531 145.8125 86.996094 144.632812 86.023438 C 143.453125 85.054688 142.226562 84.144531 140.957031 83.296875 C 139.6875 82.449219 138.378906 81.664062 137.035156 80.941406 C 135.6875 80.222656 134.308594 79.570312 132.898438 78.984375 C 131.488281 78.398438 130.050781 77.886719 128.589844 77.441406 C 127.128906 77 125.652344 76.628906 124.152344 76.328125 C 122.65625 76.03125 121.148438 75.808594 119.628906 75.65625 C 118.109375 75.507812 116.585938 75.433594 115.058594 75.433594 C 113.535156 75.433594 112.011719 75.507812 110.492188 75.65625 C 108.972656 75.808594 107.464844 76.03125 105.964844 76.328125 C 104.46875 76.628906 102.988281 77 101.527344 77.441406 C 100.066406 77.886719 98.632812 78.398438 97.222656 78.984375 C 95.8125 79.570312 94.433594 80.222656 93.085938 80.941406 C 91.742188 81.664062 90.433594 82.449219 89.164062 83.296875 C 87.894531 84.144531 86.667969 85.054688 85.488281 86.023438 C 84.308594 86.996094 83.179688 88.019531 82.097656 89.101562 C 81.019531 90.179688 79.996094 91.3125 79.027344 92.492188 C 78.058594 93.675781 77.152344 94.902344 76.300781 96.171875 C 75.453125 97.441406 74.671875 98.753906 73.949219 100.101562 C 73.230469 101.449219 72.578125 102.828125 71.996094 104.238281 C 71.410156 105.652344 70.898438 107.089844 70.453125 108.550781 C 70.011719 110.015625 69.640625 111.496094 69.34375 112.996094 C 69.042969 114.492188 68.820312 116.003906 68.671875 117.523438 C 68.519531 119.046875 68.445312 120.570312 68.445312 122.097656 C 68.445312 144.484375 82.542969 164.652344 94.902344 178.042969 C 84.492188 180.96875 78.433594 186.03125 78.433594 192.097656 C 78.433594 202.921875 97.304688 208.761719 115.058594 208.761719 C 130.785156 208.761719 147.355469 204.171875 150.945312 195.605469 C 151.128906 195.617188 151.28125 195.625 151.480469 195.636719 C 151.542969 195.640625 151.605469 195.640625 151.671875 195.640625 C 152.105469 195.640625 152.519531 195.558594 152.921875 195.394531 C 153.324219 195.234375 153.679688 195 153.992188 194.695312 C 154.300781 194.394531 154.542969 194.042969 154.71875 193.648438 C 154.890625 193.25 154.984375 192.835938 154.996094 192.402344 C 155.007812 191.96875 154.9375 191.546875 154.785156 191.140625 C 154.632812 190.734375 154.410156 190.371094 154.117188 190.050781 C 153.824219 189.734375 153.484375 189.480469 153.089844 189.296875 C 152.699219 189.109375 152.285156 189.003906 151.855469 188.980469 Z M 115.058594 82.097656 C 116.367188 82.101562 117.671875 82.164062 118.976562 82.296875 C 120.277344 82.425781 121.570312 82.617188 122.851562 82.875 C 124.132812 83.132812 125.402344 83.449219 126.652344 83.832031 C 127.90625 84.210938 129.136719 84.652344 130.34375 85.15625 C 131.550781 85.65625 132.730469 86.21875 133.886719 86.835938 C 135.039062 87.453125 136.160156 88.125 137.246094 88.855469 C 138.335938 89.582031 139.382812 90.363281 140.394531 91.191406 C 141.40625 92.023438 142.375 92.902344 143.300781 93.828125 C 144.222656 94.753906 145.101562 95.722656 145.929688 96.734375 C 146.761719 97.746094 147.539062 98.796875 148.265625 99.886719 C 148.996094 100.976562 149.667969 102.097656 150.285156 103.25 C 150.902344 104.40625 151.460938 105.589844 151.960938 106.796875 C 152.460938 108.007812 152.902344 109.238281 153.285156 110.492188 C 153.664062 111.746094 153.984375 113.015625 154.238281 114.296875 C 154.496094 115.582031 154.6875 116.875 154.816406 118.179688 C 154.949219 119.480469 155.011719 120.789062 155.015625 122.097656 C 155.015625 153.199219 123.390625 181.050781 115.058594 187.847656 C 106.730469 181.050781 75.105469 153.199219 75.105469 122.097656 C 75.105469 120.789062 75.171875 119.480469 75.300781 118.179688 C 75.433594 116.875 75.625 115.582031 75.882812 114.296875 C 76.136719 113.015625 76.457031 111.746094 76.835938 110.492188 C 77.21875 109.238281 77.65625 108.007812 78.160156 106.796875 C 78.660156 105.589844 79.21875 104.40625 79.835938 103.25 C 80.453125 102.097656 81.125 100.976562 81.851562 99.886719 C 82.582031 98.796875 83.359375 97.746094 84.1875 96.734375 C 85.019531 95.722656 85.898438 94.753906 86.820312 93.828125 C 87.746094 92.902344 88.714844 92.023438 89.726562 91.191406 C 90.738281 90.363281 91.785156 89.582031 92.875 88.855469 C 93.960938 88.125 95.082031 87.453125 96.234375 86.835938 C 97.386719 86.21875 98.570312 85.65625 99.777344 85.15625 C 100.984375 84.652344 102.214844 84.210938 103.46875 83.832031 C 104.71875 83.449219 105.984375 83.132812 107.269531 82.875 C 108.550781 82.617188 109.84375 82.425781 111.144531 82.296875 C 112.445312 82.164062 113.753906 82.101562 115.058594 82.097656 Z M 115.058594 202.097656 C 96.765625 202.097656 85.09375 196.175781 85.09375 192.097656 C 85.09375 189.425781 90.449219 185.675781 100.304688 183.613281 C 104.328125 187.597656 108.585938 191.316406 113.074219 194.769531 C 113.359375 194.984375 113.675781 195.148438 114.015625 195.261719 C 114.351562 195.375 114.703125 195.429688 115.058594 195.429688 C 115.417969 195.429688 115.765625 195.375 116.105469 195.261719 C 116.445312 195.148438 116.761719 194.984375 117.046875 194.769531 C 121.535156 191.316406 125.792969 187.597656 129.816406 183.613281 C 139.671875 185.675781 145.027344 189.425781 145.027344 192.097656 C 145.027344 196.175781 133.351562 202.097656 115.058594 202.097656 Z M 115.058594 202.097656 " fill-opacity="1" fill-rule="nonzero"/></g><path fill="#000000" d="M 182.316406 136.097656 C 183.105469 134.78125 184.171875 133.746094 185.511719 133 C 185.550781 132.960938 185.59375 132.941406 185.644531 132.929688 L 185.679688 132.898438 C 186.171875 132.59375 186.554688 132.191406 186.832031 131.6875 C 187.113281 131.179688 187.25 130.640625 187.242188 130.0625 C 187.238281 129.445312 187.082031 128.867188 186.777344 128.332031 C 186.542969 127.960938 186.25 127.648438 185.894531 127.394531 C 185.539062 127.136719 185.148438 126.957031 184.722656 126.851562 C 184.300781 126.746094 183.871094 126.722656 183.4375 126.785156 C 183.003906 126.84375 182.597656 126.980469 182.21875 127.199219 C 179.585938 128.796875 177.65625 130.695312 176.457031 132.929688 C 176.320312 133.183594 176.214844 133.453125 176.148438 133.730469 C 176.082031 134.011719 176.050781 134.296875 176.054688 134.582031 C 176.0625 134.871094 176.105469 135.15625 176.183594 135.429688 C 176.261719 135.707031 176.375 135.972656 176.523438 136.21875 C 176.671875 136.464844 176.851562 136.691406 177.054688 136.890625 C 177.261719 137.089844 177.492188 137.261719 177.742188 137.40625 C 177.992188 137.546875 178.257812 137.652344 178.535156 137.726562 C 178.816406 137.796875 179.097656 137.832031 179.386719 137.832031 C 179.996094 137.824219 180.5625 137.667969 181.085938 137.359375 C 181.609375 137.050781 182.019531 136.628906 182.316406 136.097656 Z M 182.316406 136.097656 " fill-opacity="1" fill-rule="nonzero"/><path fill="#000000" d="M 170.996094 189.496094 L 170.796875 189.496094 C 168.730469 189.496094 166.632812 189.496094 164.601562 189.464844 L 164.535156 189.464844 C 164.101562 189.464844 163.683594 189.550781 163.28125 189.714844 C 162.878906 189.882812 162.519531 190.117188 162.210938 190.421875 C 161.898438 190.726562 161.65625 191.078125 161.484375 191.476562 C 161.308594 191.878906 161.21875 192.292969 161.207031 192.730469 C 161.199219 193.171875 161.273438 193.597656 161.4375 194.003906 C 161.597656 194.414062 161.832031 194.777344 162.136719 195.09375 C 162.445312 195.410156 162.800781 195.65625 163.203125 195.828125 C 163.609375 196.003906 164.03125 196.09375 164.46875 196.097656 C 166.566406 196.164062 168.664062 196.164062 170.796875 196.164062 L 170.964844 196.164062 C 171.402344 196.164062 171.828125 196.078125 172.234375 195.910156 C 172.640625 195.742188 173 195.503906 173.3125 195.191406 C 173.625 194.882812 173.863281 194.523438 174.035156 194.117188 C 174.203125 193.710938 174.289062 193.285156 174.292969 192.847656 C 174.292969 192.40625 174.210938 191.980469 174.046875 191.574219 C 173.878906 191.164062 173.644531 190.804688 173.335938 190.488281 C 173.027344 190.175781 172.667969 189.933594 172.261719 189.761719 C 171.859375 189.589844 171.4375 189.5 170.996094 189.496094 Z M 170.996094 189.496094 " fill-opacity="1" fill-rule="nonzero"/><path fill="#000000" d="M 237.121094 165.796875 L 237.121094 165.761719 C 236.949219 165.363281 236.707031 165.007812 236.402344 164.699219 C 236.09375 164.390625 235.742188 164.152344 235.34375 163.976562 C 234.941406 163.804688 234.527344 163.710938 234.089844 163.695312 C 233.65625 163.683594 233.234375 163.75 232.824219 163.898438 C 232.410156 164.058594 232.042969 164.292969 231.722656 164.597656 C 231.402344 164.90625 231.152344 165.261719 230.976562 165.667969 C 230.796875 166.074219 230.703125 166.5 230.695312 166.945312 C 230.6875 167.390625 230.765625 167.816406 230.929688 168.230469 C 231.390625 169.476562 231.613281 170.765625 231.59375 172.097656 C 231.601562 172.386719 231.589844 172.675781 231.558594 172.964844 C 231.511719 173.402344 231.550781 173.835938 231.675781 174.261719 C 231.800781 174.683594 232.003906 175.066406 232.28125 175.414062 C 232.558594 175.757812 232.894531 176.035156 233.28125 176.246094 C 233.671875 176.457031 234.085938 176.585938 234.523438 176.628906 L 234.855469 176.628906 C 235.269531 176.632812 235.671875 176.558594 236.058594 176.414062 C 236.445312 176.265625 236.792969 176.054688 237.101562 175.777344 C 237.410156 175.5 237.65625 175.175781 237.84375 174.804688 C 238.03125 174.433594 238.144531 174.042969 238.1875 173.628906 C 238.21875 173.132812 238.253906 172.597656 238.253906 172.097656 C 238.265625 169.976562 237.910156 167.921875 237.1875 165.929688 C 237.15625 165.894531 237.15625 165.828125 237.121094 165.796875 Z M 237.121094 165.796875 " fill-opacity="1" fill-rule="nonzero"/><path fill="#000000" d="M 225.902344 180.5625 C 224.238281 181.589844 222.496094 182.457031 220.671875 183.164062 C 220.265625 183.332031 219.902344 183.570312 219.589844 183.878906 C 219.277344 184.1875 219.03125 184.542969 218.855469 184.949219 C 218.683594 185.355469 218.589844 185.777344 218.582031 186.21875 C 218.574219 186.660156 218.648438 187.085938 218.808594 187.496094 C 218.929688 187.804688 219.097656 188.089844 219.304688 188.351562 C 219.515625 188.613281 219.757812 188.835938 220.035156 189.023438 C 220.308594 189.210938 220.605469 189.351562 220.925781 189.449219 C 221.246094 189.546875 221.570312 189.597656 221.90625 189.597656 C 222.332031 189.605469 222.742188 189.527344 223.136719 189.363281 C 225.347656 188.507812 227.453125 187.453125 229.464844 186.195312 C 229.941406 185.890625 230.316406 185.492188 230.585938 184.992188 C 230.859375 184.496094 230.996094 183.964844 230.996094 183.394531 C 230.996094 182.75 230.828125 182.148438 230.496094 181.597656 C 230.253906 181.230469 229.949219 180.921875 229.589844 180.675781 C 229.226562 180.425781 228.832031 180.253906 228.40625 180.15625 C 227.976562 180.0625 227.546875 180.046875 227.113281 180.117188 C 226.679688 180.1875 226.277344 180.335938 225.902344 180.5625 Z M 225.902344 180.5625 " fill-opacity="1" fill-rule="nonzero"/><path fill="#000000" d="M 190.074219 188.863281 C 187.941406 189.027344 185.8125 189.128906 183.75 189.230469 C 183.304688 189.242188 182.882812 189.339844 182.480469 189.523438 C 182.074219 189.710938 181.722656 189.964844 181.421875 190.289062 C 181.121094 190.617188 180.894531 190.988281 180.746094 191.40625 C 180.59375 191.824219 180.53125 192.253906 180.550781 192.695312 C 180.566406 193.128906 180.664062 193.539062 180.839844 193.933594 C 181.015625 194.328125 181.257812 194.671875 181.570312 194.972656 C 181.878906 195.269531 182.234375 195.5 182.636719 195.660156 C 183.035156 195.820312 183.449219 195.898438 183.882812 195.894531 L 184.015625 195.894531 C 186.3125 195.796875 188.511719 195.664062 190.539062 195.53125 C 190.960938 195.496094 191.359375 195.386719 191.738281 195.203125 C 192.117188 195.019531 192.449219 194.773438 192.734375 194.464844 C 193.023438 194.15625 193.242188 193.808594 193.398438 193.414062 C 193.554688 193.023438 193.632812 192.617188 193.636719 192.195312 L 193.636719 191.964844 C 193.605469 191.523438 193.488281 191.101562 193.292969 190.707031 C 193.09375 190.3125 192.828125 189.96875 192.496094 189.675781 C 192.160156 189.386719 191.785156 189.171875 191.363281 189.03125 C 190.945312 188.890625 190.515625 188.832031 190.074219 188.863281 Z M 190.074219 188.863281 " fill-opacity="1" fill-rule="nonzero"/><path fill="#000000" d="M 208.851562 186.496094 C 207.019531 186.863281 205.023438 187.195312 202.660156 187.5625 C 201.742188 187.667969 201.019531 188.101562 200.496094 188.863281 C 199.933594 189.59375 199.722656 190.417969 199.863281 191.332031 C 199.921875 191.726562 200.046875 192.097656 200.238281 192.449219 C 200.429688 192.800781 200.679688 193.105469 200.980469 193.363281 C 201.285156 193.625 201.625 193.824219 202 193.960938 C 202.375 194.097656 202.761719 194.164062 203.160156 194.164062 C 203.316406 194.167969 203.472656 194.15625 203.625 194.128906 C 205.824219 193.832031 208.019531 193.460938 210.152344 193.03125 C 210.527344 192.953125 210.878906 192.816406 211.207031 192.621094 C 211.535156 192.425781 211.820312 192.179688 212.066406 191.886719 C 212.308594 191.589844 212.5 191.265625 212.632812 190.90625 C 212.765625 190.550781 212.839844 190.179688 212.847656 189.796875 C 212.84375 189.574219 212.820312 189.351562 212.78125 189.128906 C 212.691406 188.695312 212.519531 188.296875 212.273438 187.929688 C 212.027344 187.566406 211.71875 187.257812 211.351562 187.011719 C 210.984375 186.765625 210.585938 186.597656 210.152344 186.507812 C 209.722656 186.421875 209.289062 186.414062 208.851562 186.496094 Z M 208.851562 186.496094 " fill-opacity="1" fill-rule="nonzero"/><path fill="#000000" d="M 187.308594 152.5625 C 187.699219 152.566406 188.078125 152.507812 188.445312 152.378906 C 188.816406 152.25 189.148438 152.0625 189.453125 151.8125 C 189.753906 151.566406 190.003906 151.277344 190.203125 150.941406 C 190.40625 150.605469 190.542969 150.246094 190.613281 149.863281 C 190.6875 149.480469 190.695312 149.09375 190.632812 148.710938 C 190.570312 148.324219 190.445312 147.960938 190.253906 147.621094 C 190.066406 147.28125 189.824219 146.980469 189.53125 146.726562 C 189.234375 146.46875 188.90625 146.269531 188.542969 146.132812 C 186.855469 145.535156 185.3125 144.679688 183.914062 143.5625 C 183.574219 143.289062 183.195312 143.085938 182.777344 142.953125 C 182.359375 142.824219 181.929688 142.777344 181.496094 142.808594 C 181.058594 142.84375 180.644531 142.957031 180.25 143.152344 C 179.855469 143.34375 179.515625 143.605469 179.21875 143.929688 C 178.933594 144.265625 178.722656 144.644531 178.585938 145.066406 C 178.449219 145.484375 178.394531 145.914062 178.429688 146.355469 C 178.464844 146.796875 178.582031 147.214844 178.78125 147.609375 C 178.984375 148.003906 179.25 148.34375 179.585938 148.632812 C 181.546875 150.242188 183.722656 151.476562 186.113281 152.332031 C 186.496094 152.488281 186.894531 152.566406 187.308594 152.5625 Z M 187.308594 152.5625 " fill-opacity="1" fill-rule="nonzero"/><path fill="#000000" d="M 205.589844 156.898438 C 205.789062 156.925781 205.988281 156.933594 206.1875 156.929688 C 206.601562 156.925781 207 156.847656 207.386719 156.695312 C 207.769531 156.542969 208.113281 156.328125 208.417969 156.046875 C 208.722656 155.765625 208.964844 155.4375 209.148438 155.066406 C 209.328125 154.695312 209.4375 154.300781 209.472656 153.890625 C 209.507812 153.476562 209.46875 153.070312 209.351562 152.671875 C 209.238281 152.277344 209.054688 151.914062 208.800781 151.582031 C 208.550781 151.253906 208.25 150.980469 207.894531 150.765625 C 207.542969 150.550781 207.164062 150.402344 206.757812 150.332031 L 205.191406 150.0625 C 203.527344 149.765625 201.996094 149.464844 200.429688 149.199219 C 199.996094 149.113281 199.5625 149.117188 199.132812 149.207031 C 198.703125 149.296875 198.304688 149.460938 197.9375 149.710938 C 197.574219 149.957031 197.269531 150.261719 197.027344 150.628906 C 196.78125 151 196.617188 151.398438 196.535156 151.832031 C 196.507812 152.03125 196.496094 152.230469 196.5 152.429688 C 196.492188 152.820312 196.550781 153.203125 196.675781 153.570312 C 196.804688 153.941406 196.988281 154.277344 197.238281 154.582031 C 197.484375 154.882812 197.777344 155.132812 198.113281 155.332031 C 198.453125 155.53125 198.8125 155.664062 199.199219 155.730469 C 201.128906 156.097656 203.09375 156.464844 204.992188 156.796875 Z M 205.589844 156.898438 " fill-opacity="1" fill-rule="nonzero"/><path fill="#000000" d="M 221.773438 127.765625 C 222.210938 127.757812 222.632812 127.671875 223.035156 127.503906 C 223.441406 127.335938 223.800781 127.097656 224.113281 126.789062 C 224.429688 126.484375 224.671875 126.128906 224.847656 125.726562 C 225.027344 125.324219 225.121094 124.902344 225.136719 124.464844 L 225.136719 124.398438 C 225.128906 123.964844 225.042969 123.546875 224.875 123.148438 C 224.707031 122.75 224.472656 122.398438 224.167969 122.089844 C 223.863281 121.78125 223.511719 121.542969 223.117188 121.371094 C 222.71875 121.199219 222.304688 121.109375 221.871094 121.097656 C 220.273438 121.03125 218.707031 121.03125 217.144531 121.03125 L 215.3125 121.03125 C 214.871094 121.035156 214.445312 121.125 214.039062 121.296875 C 213.632812 121.46875 213.277344 121.714844 212.96875 122.03125 C 212.660156 122.347656 212.421875 122.710938 212.257812 123.117188 C 212.09375 123.527344 212.011719 123.957031 212.015625 124.398438 C 212.019531 124.839844 212.109375 125.261719 212.28125 125.671875 C 212.457031 126.078125 212.699219 126.433594 213.015625 126.746094 C 213.332031 127.054688 213.691406 127.292969 214.101562 127.457031 C 214.511719 127.621094 214.9375 127.703125 215.378906 127.695312 C 217.511719 127.664062 219.640625 127.695312 221.703125 127.765625 Z M 221.773438 127.765625 " fill-opacity="1" fill-rule="nonzero"/><path fill="#000000" d="M 202.828125 128.363281 C 203.238281 128.320312 203.625 128.207031 203.992188 128.019531 C 204.359375 127.832031 204.679688 127.582031 204.953125 127.273438 C 205.230469 126.964844 205.4375 126.617188 205.582031 126.230469 C 205.726562 125.84375 205.796875 125.445312 205.789062 125.03125 L 205.789062 124.699219 C 205.742188 124.257812 205.609375 123.847656 205.398438 123.460938 C 205.1875 123.074219 204.910156 122.742188 204.566406 122.460938 C 204.222656 122.183594 203.839844 121.984375 203.417969 121.855469 C 202.996094 121.730469 202.566406 121.6875 202.128906 121.730469 C 199.761719 121.996094 197.53125 122.296875 195.46875 122.695312 C 195.0625 122.773438 194.679688 122.917969 194.328125 123.136719 C 193.976562 123.355469 193.675781 123.628906 193.425781 123.960938 C 193.175781 124.289062 192.992188 124.652344 192.878906 125.054688 C 192.765625 125.453125 192.726562 125.855469 192.765625 126.269531 C 192.800781 126.683594 192.910156 127.074219 193.097656 127.445312 C 193.28125 127.816406 193.523438 128.144531 193.828125 128.425781 C 194.136719 128.703125 194.480469 128.917969 194.867188 129.070312 C 195.253906 129.21875 195.652344 129.296875 196.066406 129.296875 C 196.28125 129.292969 196.492188 129.269531 196.699219 129.230469 C 198.597656 128.898438 200.664062 128.597656 202.828125 128.363281 Z M 202.828125 128.363281 " fill-opacity="1" fill-rule="nonzero"/><path fill="#000000" d="M 224.867188 161.832031 C 225.25 161.828125 225.617188 161.765625 225.976562 161.636719 C 226.332031 161.511719 226.660156 161.328125 226.957031 161.085938 C 227.25 160.847656 227.5 160.566406 227.695312 160.242188 C 227.894531 159.917969 228.035156 159.570312 228.113281 159.199219 C 228.195312 158.824219 228.210938 158.449219 228.160156 158.074219 C 228.113281 157.695312 228.003906 157.335938 227.832031 157 C 227.660156 156.660156 227.4375 156.355469 227.164062 156.09375 C 226.890625 155.832031 226.578125 155.621094 226.234375 155.464844 C 224.183594 154.546875 222.074219 153.789062 219.90625 153.195312 C 219.84375 153.160156 219.777344 153.136719 219.707031 153.132812 L 219.675781 153.132812 C 219.25 153.015625 218.820312 152.988281 218.386719 153.042969 C 217.949219 153.097656 217.542969 153.230469 217.160156 153.445312 C 216.777344 153.660156 216.449219 153.941406 216.175781 154.285156 C 215.902344 154.628906 215.703125 155.007812 215.578125 155.429688 C 215.511719 155.726562 215.480469 156.027344 215.476562 156.332031 C 215.476562 156.691406 215.53125 157.046875 215.640625 157.386719 C 215.753906 157.730469 215.917969 158.046875 216.136719 158.335938 C 216.351562 158.625 216.609375 158.875 216.90625 159.078125 C 217.207031 159.28125 217.527344 159.433594 217.875 159.53125 C 219.800781 160.058594 221.675781 160.722656 223.503906 161.53125 C 223.9375 161.730469 224.390625 161.832031 224.867188 161.832031 Z M 224.867188 161.832031 " fill-opacity="1" fill-rule="nonzero"/><g clip-path="url(#dc1ed38864)"><path fill="#f76c82" d="M 293.207031 153.992188 L 293.207031 277.835938 L 187.691406 277.835938 C 186.882812 277.835938 186.082031 277.910156 185.285156 278.058594 C 184.488281 278.207031 183.714844 278.425781 182.960938 278.71875 C 182.203125 279.011719 181.484375 279.375 180.796875 279.800781 C 180.109375 280.226562 179.464844 280.714844 178.867188 281.261719 C 178.269531 281.808594 177.730469 282.40625 177.242188 283.054688 C 176.757812 283.703125 176.335938 284.390625 175.976562 285.117188 C 175.617188 285.84375 175.332031 286.597656 175.113281 287.378906 C 174.894531 288.15625 174.75 288.953125 174.679688 289.757812 C 174.65625 290.144531 174.65625 290.53125 174.679688 290.914062 L 174.679688 167.023438 C 174.679688 166.171875 174.761719 165.324219 174.929688 164.488281 C 175.09375 163.652344 175.339844 162.835938 175.664062 162.046875 C 175.992188 161.257812 176.390625 160.511719 176.863281 159.800781 C 177.335938 159.089844 177.871094 158.429688 178.472656 157.828125 C 179.074219 157.222656 179.730469 156.683594 180.4375 156.207031 C 181.144531 155.730469 181.894531 155.328125 182.679688 155 C 183.464844 154.671875 184.277344 154.421875 185.113281 154.25 C 185.949219 154.082031 186.792969 153.996094 187.644531 153.992188 Z M 293.207031 153.992188 " fill-opacity="1" fill-rule="nonzero"/></g><g clip-path="url(#8ea3c4f1d7)"><path fill="#eb5463" d="M 281.738281 153.992188 L 293.207031 153.992188 L 293.207031 277.835938 L 281.738281 277.835938 Z M 281.738281 153.992188 " fill-opacity="1" fill-rule="nonzero"/></g><g clip-path="url(#ece1c6feca)"><path fill="#f4f6f8" d="M 293.207031 277.835938 C 286.433594 286.554688 286.433594 295.273438 293.207031 303.992188 L 187.691406 303.992188 C 187.007812 303.988281 186.324219 303.9375 185.648438 303.835938 C 185.226562 303.835938 184.820312 303.679688 184.414062 303.585938 C 183.808594 303.414062 183.210938 303.210938 182.621094 302.976562 C 182.230469 302.789062 181.855469 302.617188 181.496094 302.414062 C 180.664062 301.960938 179.886719 301.417969 179.171875 300.792969 C 178.453125 300.167969 177.8125 299.472656 177.246094 298.707031 C 176.679688 297.941406 176.203125 297.125 175.816406 296.257812 C 175.425781 295.386719 175.136719 294.488281 174.945312 293.554688 C 174.945312 293.335938 174.945312 293.132812 174.835938 292.898438 C 174.726562 292.242188 174.675781 291.582031 174.679688 290.914062 C 174.679688 290.054688 174.761719 289.203125 174.929688 288.363281 C 175.097656 287.519531 175.347656 286.699219 175.675781 285.90625 C 176.003906 285.113281 176.40625 284.359375 176.882812 283.644531 C 177.359375 282.929688 177.902344 282.269531 178.507812 281.664062 C 179.117188 281.054688 179.777344 280.511719 180.492188 280.035156 C 181.207031 279.558594 181.957031 279.15625 182.753906 278.828125 C 183.546875 278.5 184.363281 278.253906 185.203125 278.085938 C 186.046875 277.917969 186.898438 277.835938 187.753906 277.835938 Z M 293.207031 277.835938 " fill-opacity="1" fill-rule="nonzero"/></g><g clip-path="url(#c29d88ce39)"><path fill="#e4e8eb" d="M 288.210938 292.460938 C 288.46875 294.585938 289.023438 296.628906 289.875 298.589844 C 290.722656 300.554688 291.832031 302.355469 293.207031 303.992188 L 281.738281 303.992188 C 280.363281 302.355469 279.25 300.558594 278.398438 298.597656 C 277.546875 296.640625 276.988281 294.597656 276.726562 292.476562 C 276.632812 291.4375 276.632812 290.394531 276.726562 289.351562 C 276.988281 287.230469 277.546875 285.191406 278.398438 283.230469 C 279.25 281.273438 280.363281 279.472656 281.738281 277.835938 L 293.207031 277.835938 C 291.832031 279.476562 290.722656 281.277344 289.875 283.238281 C 289.023438 285.203125 288.46875 287.246094 288.210938 289.367188 C 288.101562 290.398438 288.101562 291.429688 288.210938 292.460938 Z M 288.210938 292.460938 " fill-opacity="1" fill-rule="nonzero"/></g><g clip-path="url(#e67d2d1939)"><path fill="#656d78" d="M 193.308594 153.992188 L 193.308594 277.835938 L 187.691406 277.835938 C 186.882812 277.835938 186.082031 277.910156 185.285156 278.058594 C 184.488281 278.207031 183.714844 278.425781 182.960938 278.71875 C 182.203125 279.011719 181.484375 279.375 180.796875 279.800781 C 180.109375 280.226562 179.464844 280.714844 178.867188 281.261719 C 178.269531 281.808594 177.730469 282.40625 177.242188 283.054688 C 176.757812 283.703125 176.335938 284.390625 175.976562 285.117188 C 175.617188 285.84375 175.332031 286.597656 175.113281 287.378906 C 174.894531 288.15625 174.75 288.953125 174.679688 289.757812 L 174.679688 167.023438 C 174.679688 166.171875 174.761719 165.324219 174.929688 164.488281 C 175.09375 163.652344 175.339844 162.835938 175.664062 162.046875 C 175.992188 161.257812 176.390625 160.511719 176.863281 159.800781 C 177.335938 159.089844 177.871094 158.429688 178.472656 157.828125 C 179.074219 157.222656 179.730469 156.683594 180.4375 156.207031 C 181.144531 155.730469 181.894531 155.328125 182.679688 155 C 183.464844 154.671875 184.277344 154.421875 185.113281 154.25 C 185.949219 154.082031 186.792969 153.996094 187.644531 153.992188 Z M 193.308594 153.992188 " fill-opacity="1" fill-rule="nonzero"/></g><g clip-path="url(#e89e3112be)"><path fill="#fbd277" d="M 307.65625 255.257812 L 312.648438 265.726562 L 293.207031 265.726562 L 293.207031 244.804688 L 312.648438 244.804688 Z M 307.65625 255.257812 " fill-opacity="1" fill-rule="nonzero"/></g><path fill="#f4f6f8" d="M 214.609375 198.789062 L 271.46875 198.789062 C 271.867188 198.789062 272.261719 198.828125 272.652344 198.90625 C 273.042969 198.984375 273.425781 199.101562 273.792969 199.253906 C 274.160156 199.40625 274.511719 199.59375 274.839844 199.816406 C 275.171875 200.035156 275.480469 200.289062 275.761719 200.570312 C 276.042969 200.851562 276.292969 201.160156 276.515625 201.492188 C 276.738281 201.824219 276.925781 202.171875 277.078125 202.542969 C 277.230469 202.910156 277.34375 203.292969 277.421875 203.683594 C 277.5 204.074219 277.539062 204.46875 277.539062 204.867188 L 277.539062 236.898438 C 277.539062 237.296875 277.5 237.695312 277.421875 238.085938 C 277.34375 238.476562 277.230469 238.855469 277.078125 239.226562 C 276.925781 239.59375 276.738281 239.945312 276.515625 240.277344 C 276.292969 240.609375 276.042969 240.914062 275.761719 241.199219 C 275.480469 241.480469 275.171875 241.730469 274.839844 241.953125 C 274.511719 242.175781 274.160156 242.363281 273.792969 242.515625 C 273.425781 242.667969 273.042969 242.78125 272.652344 242.859375 C 272.261719 242.9375 271.867188 242.976562 271.46875 242.976562 L 214.609375 242.976562 C 214.210938 242.976562 213.816406 242.9375 213.425781 242.859375 C 213.035156 242.78125 212.65625 242.667969 212.285156 242.515625 C 211.917969 242.363281 211.566406 242.175781 211.238281 241.953125 C 210.90625 241.730469 210.597656 241.480469 210.316406 241.199219 C 210.035156 240.914062 209.785156 240.609375 209.5625 240.277344 C 209.339844 239.945312 209.152344 239.59375 209 239.226562 C 208.847656 238.855469 208.734375 238.476562 208.65625 238.085938 C 208.578125 237.695312 208.539062 237.296875 208.539062 236.898438 L 208.539062 204.867188 C 208.539062 204.46875 208.578125 204.074219 208.65625 203.683594 C 208.734375 203.292969 208.847656 202.910156 209 202.542969 C 209.152344 202.171875 209.339844 201.824219 209.5625 201.492188 C 209.785156 201.160156 210.035156 200.851562 210.316406 200.570312 C 210.597656 200.289062 210.90625 200.035156 211.238281 199.816406 C 211.566406 199.59375 211.917969 199.40625 212.285156 199.253906 C 212.65625 199.101562 213.035156 198.984375 213.425781 198.90625 C 213.816406 198.828125 214.210938 198.789062 214.609375 198.789062 Z M 214.609375 198.789062 " fill-opacity="1" fill-rule="nonzero"/><path fill="#e4e8eb" d="M 277.539062 204.867188 L 277.539062 236.914062 C 277.542969 237.316406 277.511719 237.714844 277.4375 238.109375 C 277.363281 238.503906 277.25 238.886719 277.101562 239.257812 C 276.949219 239.632812 276.765625 239.984375 276.546875 240.320312 C 276.324219 240.65625 276.074219 240.96875 275.792969 241.253906 C 275.511719 241.539062 275.207031 241.792969 274.871094 242.019531 C 274.539062 242.242188 274.191406 242.433594 273.820312 242.585938 C 273.449219 242.742188 273.070312 242.859375 272.675781 242.9375 C 272.28125 243.015625 271.886719 243.054688 271.484375 243.054688 L 214.609375 243.054688 C 214.210938 243.054688 213.816406 243.015625 213.425781 242.941406 C 213.035156 242.863281 212.65625 242.746094 212.289062 242.59375 C 211.921875 242.441406 211.574219 242.257812 211.242188 242.035156 C 210.910156 241.8125 210.605469 241.5625 210.324219 241.28125 C 210.039062 241 209.789062 240.695312 209.566406 240.363281 C 209.347656 240.03125 209.160156 239.683594 209.003906 239.316406 C 208.851562 238.945312 208.738281 238.566406 208.660156 238.175781 C 208.578125 237.785156 208.539062 237.390625 208.539062 236.992188 L 208.539062 234.804688 L 263.246094 234.804688 C 263.644531 234.804688 264.039062 234.765625 264.425781 234.6875 C 264.816406 234.613281 265.195312 234.496094 265.5625 234.34375 C 265.929688 234.191406 266.277344 234.003906 266.609375 233.785156 C 266.941406 233.5625 267.246094 233.3125 267.527344 233.03125 C 267.808594 232.75 268.058594 232.441406 268.28125 232.113281 C 268.5 231.78125 268.6875 231.429688 268.839844 231.0625 C 268.992188 230.695312 269.105469 230.316406 269.183594 229.925781 C 269.261719 229.535156 269.300781 229.140625 269.300781 228.742188 L 269.300781 198.789062 L 271.484375 198.789062 C 271.882812 198.792969 272.277344 198.832031 272.667969 198.910156 C 273.058594 198.988281 273.4375 199.105469 273.804688 199.257812 C 274.171875 199.410156 274.519531 199.597656 274.851562 199.820312 C 275.179688 200.042969 275.484375 200.292969 275.765625 200.574219 C 276.046875 200.859375 276.296875 201.164062 276.519531 201.496094 C 276.738281 201.828125 276.925781 202.179688 277.078125 202.546875 C 277.230469 202.914062 277.34375 203.292969 277.421875 203.683594 C 277.5 204.074219 277.539062 204.46875 277.539062 204.867188 Z M 277.539062 204.867188 " fill-opacity="1" fill-rule="nonzero"/><path fill="#f76c82" d="M 225.59375 219.617188 L 222.082031 219.617188 C 221.921875 219.613281 221.769531 219.640625 221.617188 219.703125 C 221.46875 219.761719 221.335938 219.847656 221.222656 219.960938 C 221.109375 220.074219 221.023438 220.207031 220.964844 220.355469 C 220.90625 220.503906 220.878906 220.660156 220.882812 220.820312 C 220.882812 221.148438 220.996094 221.429688 221.226562 221.664062 C 221.460938 221.90625 221.746094 222.027344 222.082031 222.023438 L 224.546875 222.023438 L 224.546875 224.492188 C 223.761719 224.886719 222.925781 225.085938 222.042969 225.085938 C 221.164062 225.085938 220.328125 224.886719 219.539062 224.492188 C 218.859375 224.132812 218.335938 223.613281 217.980469 222.929688 C 217.617188 222.214844 217.441406 221.453125 217.449219 220.648438 C 217.425781 219.804688 217.613281 219.007812 218.011719 218.257812 C 218.359375 217.566406 218.882812 217.046875 219.570312 216.695312 C 220.839844 216.109375 222.148438 216.015625 223.488281 216.414062 C 224.039062 216.585938 224.558594 216.824219 225.046875 217.132812 C 225.289062 217.261719 225.546875 217.304688 225.816406 217.261719 C 226.085938 217.222656 226.320312 217.105469 226.515625 216.914062 C 226.742188 216.679688 226.855469 216.398438 226.859375 216.070312 C 226.855469 215.84375 226.800781 215.628906 226.6875 215.429688 C 226.589844 215.253906 226.457031 215.121094 226.28125 215.023438 C 225.617188 214.613281 224.914062 214.277344 224.175781 214.023438 C 223.328125 213.773438 222.464844 213.652344 221.582031 213.664062 C 220.382812 213.652344 219.257812 213.945312 218.214844 214.539062 C 217.167969 215.113281 216.363281 215.925781 215.796875 216.976562 C 215.179688 218.097656 214.882812 219.292969 214.90625 220.570312 C 214.863281 221.898438 215.160156 223.140625 215.796875 224.304688 C 216.355469 225.359375 217.15625 226.179688 218.199219 226.757812 C 219.285156 227.363281 220.449219 227.65625 221.691406 227.632812 C 223.203125 227.628906 224.628906 227.28125 225.96875 226.585938 C 226.261719 226.453125 226.488281 226.25 226.65625 225.976562 C 226.835938 225.695312 226.925781 225.390625 226.921875 225.054688 L 226.921875 220.960938 C 226.921875 220.59375 226.792969 220.28125 226.53125 220.023438 C 226.277344 219.75 225.964844 219.613281 225.59375 219.617188 Z M 225.59375 219.617188 " fill-opacity="1" fill-rule="nonzero"/><path fill="#f76c82" d="M 238.109375 214.289062 C 237.863281 214.550781 237.746094 214.855469 237.75 215.210938 L 237.75 222.320312 C 237.765625 222.886719 237.625 223.40625 237.328125 223.882812 C 237.050781 224.308594 236.679688 224.625 236.21875 224.835938 C 235.738281 225.054688 235.234375 225.164062 234.707031 225.164062 C 234.179688 225.164062 233.675781 225.054688 233.191406 224.835938 C 232.738281 224.621094 232.375 224.304688 232.101562 223.882812 C 231.800781 223.40625 231.660156 222.886719 231.679688 222.320312 L 231.679688 215.210938 C 231.6875 214.851562 231.5625 214.542969 231.304688 214.289062 C 231.121094 214.105469 230.902344 213.988281 230.644531 213.9375 C 230.390625 213.886719 230.144531 213.914062 229.902344 214.015625 C 229.664062 214.117188 229.472656 214.277344 229.328125 214.496094 C 229.1875 214.710938 229.117188 214.953125 229.121094 215.210938 L 229.121094 222.257812 C 229.089844 223.328125 229.363281 224.3125 229.949219 225.210938 C 230.484375 226.015625 231.191406 226.613281 232.070312 227.007812 C 232.90625 227.398438 233.785156 227.59375 234.707031 227.59375 C 235.628906 227.59375 236.507812 227.398438 237.34375 227.007812 C 238.226562 226.617188 238.933594 226.019531 239.464844 225.210938 C 240.0625 224.316406 240.34375 223.332031 240.308594 222.257812 L 240.308594 215.210938 C 240.308594 214.851562 240.179688 214.542969 239.917969 214.289062 C 239.796875 214.171875 239.660156 214.082031 239.503906 214.015625 C 239.34375 213.953125 239.183594 213.921875 239.011719 213.921875 C 238.84375 213.921875 238.679688 213.953125 238.523438 214.015625 C 238.367188 214.082031 238.230469 214.171875 238.109375 214.289062 Z M 238.109375 214.289062 " fill-opacity="1" fill-rule="nonzero"/><path fill="#f76c82" d="M 243.101562 214.289062 C 242.855469 214.550781 242.738281 214.855469 242.742188 215.210938 L 242.742188 226.148438 C 242.734375 226.503906 242.855469 226.804688 243.101562 227.054688 C 243.222656 227.175781 243.359375 227.269531 243.515625 227.332031 C 243.671875 227.398438 243.835938 227.429688 244.007812 227.429688 C 244.175781 227.429688 244.339844 227.398438 244.496094 227.332031 C 244.652344 227.269531 244.792969 227.175781 244.910156 227.054688 C 245.175781 226.8125 245.304688 226.507812 245.300781 226.148438 L 245.300781 215.210938 C 245.300781 214.851562 245.171875 214.542969 244.910156 214.289062 C 244.789062 214.171875 244.652344 214.082031 244.496094 214.015625 C 244.339844 213.953125 244.175781 213.921875 244.007812 213.921875 C 243.835938 213.921875 243.675781 213.953125 243.519531 214.015625 C 243.363281 214.082031 243.222656 214.171875 243.101562 214.289062 Z M 243.101562 214.289062 " fill-opacity="1" fill-rule="nonzero"/><path fill="#f76c82" d="M 256.378906 214.929688 C 255.242188 214.25 254.007812 213.925781 252.683594 213.960938 L 249.09375 213.960938 C 248.734375 213.953125 248.433594 214.078125 248.1875 214.335938 C 247.945312 214.589844 247.828125 214.894531 247.828125 215.242188 L 247.828125 226.085938 C 247.820312 226.441406 247.941406 226.742188 248.1875 226.992188 C 248.4375 227.246094 248.738281 227.371094 249.09375 227.367188 L 252.683594 227.367188 C 254.011719 227.40625 255.246094 227.078125 256.378906 226.382812 C 257.386719 225.765625 258.15625 224.925781 258.691406 223.867188 C 259.199219 222.859375 259.457031 221.789062 259.457031 220.65625 C 259.457031 219.527344 259.199219 218.457031 258.691406 217.445312 C 258.152344 216.394531 257.382812 215.554688 256.378906 214.929688 Z M 256.910156 220.664062 C 256.925781 221.453125 256.746094 222.195312 256.363281 222.882812 C 256 223.558594 255.480469 224.078125 254.804688 224.445312 C 254.066406 224.828125 253.28125 225.011719 252.449219 224.992188 L 250.386719 224.992188 L 250.386719 216.492188 L 252.480469 216.492188 C 253.3125 216.476562 254.097656 216.660156 254.835938 217.039062 C 255.492188 217.382812 256.011719 217.871094 256.394531 218.507812 C 256.757812 219.199219 256.929688 219.933594 256.910156 220.710938 Z M 256.910156 220.664062 " fill-opacity="1" fill-rule="nonzero"/><path fill="#f76c82" d="M 269.644531 224.960938 L 263.777344 224.960938 L 263.777344 221.929688 L 269.003906 221.929688 C 269.339844 221.933594 269.632812 221.820312 269.878906 221.585938 C 270.054688 221.410156 270.167969 221.199219 270.21875 220.953125 C 270.265625 220.707031 270.242188 220.46875 270.148438 220.238281 C 270.050781 220.007812 269.898438 219.824219 269.691406 219.683594 C 269.484375 219.546875 269.253906 219.476562 269.003906 219.476562 L 263.777344 219.476562 L 263.777344 216.492188 L 269.644531 216.492188 C 269.980469 216.496094 270.273438 216.382812 270.515625 216.148438 C 270.765625 215.910156 270.890625 215.621094 270.890625 215.273438 C 270.898438 214.933594 270.777344 214.640625 270.53125 214.398438 C 270.285156 214.15625 269.992188 214.035156 269.644531 214.039062 L 262.496094 214.039062 C 262.140625 214.03125 261.839844 214.15625 261.59375 214.414062 C 261.339844 214.664062 261.214844 214.964844 261.21875 215.320312 L 261.21875 226.164062 C 261.214844 226.519531 261.339844 226.820312 261.59375 227.070312 C 261.839844 227.324219 262.140625 227.449219 262.496094 227.445312 L 269.644531 227.445312 C 269.980469 227.449219 270.273438 227.335938 270.515625 227.101562 C 270.765625 226.863281 270.890625 226.574219 270.890625 226.226562 C 270.898438 225.878906 270.773438 225.589844 270.515625 225.351562 C 270.28125 225.097656 269.992188 224.964844 269.644531 224.960938 Z M 269.644531 224.960938 " fill-opacity="1" fill-rule="nonzero"/><path fill="#e4e8eb" d="M 288.210938 292.460938 L 202.796875 292.460938 C 202.589844 292.460938 202.390625 292.421875 202.199219 292.34375 C 202.007812 292.265625 201.839844 292.152344 201.695312 292.003906 C 201.546875 291.859375 201.433594 291.6875 201.355469 291.496094 C 201.277344 291.304688 201.238281 291.105469 201.238281 290.898438 C 201.238281 290.691406 201.277344 290.492188 201.355469 290.300781 C 201.433594 290.109375 201.546875 289.941406 201.695312 289.792969 C 201.839844 289.648438 202.007812 289.535156 202.199219 289.457031 C 202.390625 289.375 202.589844 289.335938 202.796875 289.335938 L 288.210938 289.335938 C 288.101562 290.378906 288.101562 291.421875 288.210938 292.460938 Z M 288.210938 292.460938 " fill-opacity="1" fill-rule="nonzero"/><path fill="#f4f6f8" d="M 237.96875 170.351562 L 208.539062 170.351562 C 208.332031 170.351562 208.132812 170.3125 207.941406 170.234375 C 207.75 170.15625 207.582031 170.042969 207.4375 169.894531 C 207.289062 169.75 207.175781 169.578125 207.097656 169.386719 C 207.019531 169.195312 206.980469 168.996094 206.980469 168.789062 C 206.980469 168.582031 207.019531 168.382812 207.097656 168.191406 C 207.175781 168 207.289062 167.832031 207.4375 167.683594 C 207.582031 167.539062 207.75 167.425781 207.941406 167.347656 C 208.132812 167.265625 208.332031 167.226562 208.539062 167.226562 L 237.96875 167.226562 C 238.175781 167.226562 238.375 167.265625 238.566406 167.347656 C 238.757812 167.425781 238.925781 167.539062 239.070312 167.683594 C 239.21875 167.832031 239.332031 168 239.410156 168.191406 C 239.488281 168.382812 239.527344 168.582031 239.527344 168.789062 C 239.527344 168.996094 239.488281 169.195312 239.410156 169.386719 C 239.332031 169.578125 239.21875 169.75 239.070312 169.894531 C 238.925781 170.042969 238.757812 170.15625 238.566406 170.234375 C 238.375 170.3125 238.175781 170.351562 237.96875 170.351562 Z M 237.96875 170.351562 " fill-opacity="1" fill-rule="nonzero"/><path fill="#f4f6f8" d="M 237.96875 180.429688 L 234.441406 180.429688 C 234.234375 180.429688 234.035156 180.390625 233.84375 180.3125 C 233.652344 180.234375 233.484375 180.121094 233.339844 179.972656 C 233.191406 179.828125 233.078125 179.65625 233 179.464844 C 232.921875 179.273438 232.882812 179.074219 232.882812 178.867188 C 232.882812 178.660156 232.921875 178.460938 233 178.269531 C 233.078125 178.078125 233.191406 177.910156 233.339844 177.761719 C 233.484375 177.617188 233.652344 177.503906 233.84375 177.425781 C 234.035156 177.34375 234.234375 177.304688 234.441406 177.304688 L 237.96875 177.304688 C 238.175781 177.304688 238.375 177.34375 238.566406 177.425781 C 238.757812 177.503906 238.925781 177.617188 239.070312 177.761719 C 239.21875 177.910156 239.332031 178.078125 239.410156 178.269531 C 239.488281 178.460938 239.527344 178.660156 239.527344 178.867188 C 239.527344 179.074219 239.488281 179.273438 239.410156 179.464844 C 239.332031 179.65625 239.21875 179.828125 239.070312 179.972656 C 238.925781 180.121094 238.757812 180.234375 238.566406 180.3125 C 238.375 180.390625 238.175781 180.429688 237.96875 180.429688 Z M 237.96875 180.429688 " fill-opacity="1" fill-rule="nonzero"/><path fill="#f4f6f8" d="M 226.859375 180.429688 L 208.539062 180.429688 C 208.332031 180.429688 208.132812 180.390625 207.941406 180.3125 C 207.75 180.234375 207.582031 180.121094 207.4375 179.972656 C 207.289062 179.828125 207.175781 179.65625 207.097656 179.464844 C 207.019531 179.273438 206.980469 179.074219 206.980469 178.867188 C 206.980469 178.660156 207.019531 178.460938 207.097656 178.269531 C 207.175781 178.078125 207.289062 177.910156 207.4375 177.761719 C 207.582031 177.617188 207.75 177.503906 207.941406 177.425781 C 208.132812 177.34375 208.332031 177.304688 208.539062 177.304688 L 226.859375 177.304688 C 227.066406 177.304688 227.265625 177.34375 227.457031 177.425781 C 227.644531 177.503906 227.816406 177.617188 227.960938 177.761719 C 228.109375 177.910156 228.21875 178.078125 228.300781 178.269531 C 228.378906 178.460938 228.417969 178.660156 228.417969 178.867188 C 228.417969 179.074219 228.378906 179.273438 228.300781 179.464844 C 228.21875 179.65625 228.109375 179.828125 227.960938 179.972656 C 227.816406 180.121094 227.644531 180.234375 227.457031 180.3125 C 227.265625 180.390625 227.066406 180.429688 226.859375 180.429688 Z M 226.859375 180.429688 " fill-opacity="1" fill-rule="nonzero"/><path fill="#ffffff" d="M 277.539062 261.570312 L 208.539062 261.570312 C 208.332031 261.570312 208.132812 261.53125 207.941406 261.453125 C 207.75 261.375 207.582031 261.261719 207.4375 261.113281 C 207.289062 260.96875 207.175781 260.796875 207.097656 260.605469 C 207.019531 260.414062 206.980469 260.214844 206.980469 260.007812 C 206.980469 259.800781 207.019531 259.601562 207.097656 259.410156 C 207.175781 259.21875 207.289062 259.050781 207.4375 258.902344 C 207.582031 258.757812 207.75 258.644531 207.941406 258.566406 C 208.132812 258.484375 208.332031 258.445312 208.539062 258.445312 L 277.539062 258.445312 C 277.746094 258.445312 277.945312 258.484375 278.136719 258.566406 C 278.328125 258.644531 278.496094 258.757812 278.640625 258.902344 C 278.789062 259.050781 278.902344 259.21875 278.980469 259.410156 C 279.058594 259.601562 279.097656 259.800781 279.097656 260.007812 C 279.097656 260.214844 279.058594 260.414062 278.980469 260.605469 C 278.902344 260.796875 278.789062 260.96875 278.640625 261.113281 C 278.496094 261.261719 278.328125 261.375 278.136719 261.453125 C 277.945312 261.53125 277.746094 261.570312 277.539062 261.570312 Z M 277.539062 261.570312 " fill-opacity="1" fill-rule="nonzero"/></svg>