<svg xmlns="http://www.w3.org/2000/svg" xmlns:xlink="http://www.w3.org/1999/xlink" width="500" zoomAndPan="magnify" viewBox="0 0 375 374.999991" height="500" preserveAspectRatio="xMidYMid meet" version="1.0"><defs><clipPath id="0b3ecec4b4"><path d="M 72.929688 37 L 302.429688 37 L 302.429688 342.648438 L 72.929688 342.648438 Z M 72.929688 37 " clip-rule="nonzero"/></clipPath></defs><path fill="#ffffff" d="M 375 187.5 C 375 190.570312 374.925781 193.636719 374.773438 196.699219 C 374.625 199.765625 374.398438 202.824219 374.097656 205.878906 C 373.796875 208.933594 373.421875 211.976562 372.96875 215.011719 C 372.519531 218.046875 371.996094 221.070312 371.398438 224.078125 C 370.796875 227.089844 370.125 230.082031 369.378906 233.058594 C 368.636719 236.035156 367.816406 238.992188 366.925781 241.929688 C 366.035156 244.863281 365.074219 247.777344 364.039062 250.667969 C 363.003906 253.554688 361.902344 256.417969 360.726562 259.253906 C 359.554688 262.089844 358.308594 264.890625 356.996094 267.667969 C 355.6875 270.441406 354.304688 273.179688 352.859375 275.886719 C 351.414062 278.59375 349.902344 281.261719 348.324219 283.894531 C 346.746094 286.527344 345.105469 289.117188 343.402344 291.667969 C 341.695312 294.222656 339.929688 296.730469 338.101562 299.195312 C 336.273438 301.660156 334.386719 304.078125 332.4375 306.449219 C 330.492188 308.820312 328.488281 311.144531 326.429688 313.417969 C 324.367188 315.691406 322.253906 317.914062 320.082031 320.082031 C 317.914062 322.253906 315.691406 324.367188 313.417969 326.429688 C 311.144531 328.488281 308.820312 330.492188 306.449219 332.4375 C 304.078125 334.386719 301.660156 336.273438 299.195312 338.101562 C 296.730469 339.929688 294.222656 341.695312 291.667969 343.402344 C 289.117188 345.105469 286.527344 346.746094 283.894531 348.324219 C 281.261719 349.902344 278.59375 351.414062 275.886719 352.859375 C 273.179688 354.308594 270.441406 355.6875 267.667969 356.996094 C 264.890625 358.308594 262.089844 359.554688 259.253906 360.726562 C 256.417969 361.902344 253.554688 363.003906 250.667969 364.039062 C 247.777344 365.074219 244.863281 366.035156 241.929688 366.925781 C 238.992188 367.816406 236.035156 368.636719 233.058594 369.378906 C 230.082031 370.125 227.089844 370.796875 224.078125 371.398438 C 221.070312 371.996094 218.046875 372.519531 215.011719 372.96875 C 211.976562 373.421875 208.933594 373.796875 205.878906 374.097656 C 202.824219 374.398438 199.765625 374.625 196.699219 374.773438 C 193.636719 374.925781 190.570312 375 187.5 375 C 184.429688 375 181.363281 374.925781 178.300781 374.773438 C 175.234375 374.625 172.175781 374.398438 169.121094 374.097656 C 166.066406 373.796875 163.023438 373.421875 159.988281 372.96875 C 156.953125 372.519531 153.929688 371.996094 150.921875 371.398438 C 147.910156 370.796875 144.917969 370.125 141.941406 369.378906 C 138.964844 368.636719 136.007812 367.816406 133.070312 366.925781 C 130.136719 366.035156 127.222656 365.074219 124.332031 364.039062 C 121.445312 363.003906 118.582031 361.902344 115.746094 360.726562 C 112.910156 359.554688 110.105469 358.308594 107.332031 356.996094 C 104.558594 355.6875 101.820312 354.308594 99.113281 352.859375 C 96.40625 351.414062 93.738281 349.902344 91.105469 348.324219 C 88.472656 346.746094 85.882812 345.105469 83.332031 343.402344 C 80.777344 341.695312 78.269531 339.929688 75.804688 338.101562 C 73.339844 336.273438 70.921875 334.386719 68.550781 332.4375 C 66.179688 330.492188 63.855469 328.488281 61.582031 326.429688 C 59.308594 324.367188 57.085938 322.253906 54.917969 320.082031 C 52.746094 317.914062 50.632812 315.691406 48.570312 313.417969 C 46.511719 311.144531 44.507812 308.820312 42.558594 306.449219 C 40.613281 304.078125 38.726562 301.660156 36.898438 299.195312 C 35.070312 296.730469 33.304688 294.222656 31.597656 291.667969 C 29.894531 289.117188 28.253906 286.527344 26.675781 283.894531 C 25.097656 281.261719 23.585938 278.59375 22.140625 275.886719 C 20.691406 273.179688 19.3125 270.441406 18.003906 267.667969 C 16.691406 264.890625 15.445312 262.089844 14.273438 259.253906 C 13.097656 256.417969 11.996094 253.554688 10.960938 250.667969 C 9.925781 247.777344 8.964844 244.863281 8.074219 241.929688 C 7.183594 238.992188 6.363281 236.035156 5.617188 233.058594 C 4.875 230.082031 4.203125 227.089844 3.601562 224.078125 C 3.003906 221.070312 2.480469 218.046875 2.03125 215.011719 C 1.578125 211.976562 1.203125 208.933594 0.902344 205.878906 C 0.601562 202.824219 0.375 199.765625 0.226562 196.699219 C 0.0742188 193.636719 0 190.570312 0 187.5 C 0 184.429688 0.0742188 181.363281 0.226562 178.300781 C 0.375 175.234375 0.601562 172.175781 0.902344 169.121094 C 1.203125 166.066406 1.578125 163.023438 2.03125 159.988281 C 2.480469 156.953125 3.003906 153.929688 3.601562 150.921875 C 4.203125 147.910156 4.875 144.917969 5.617188 141.941406 C 6.363281 138.964844 7.183594 136.007812 8.074219 133.070312 C 8.964844 130.136719 9.925781 127.222656 10.960938 124.332031 C 11.996094 121.445312 13.097656 118.582031 14.273438 115.746094 C 15.445312 112.910156 16.691406 110.105469 18.003906 107.332031 C 19.3125 104.558594 20.691406 101.820312 22.140625 99.113281 C 23.585938 96.40625 25.097656 93.738281 26.675781 91.105469 C 28.253906 88.472656 29.894531 85.882812 31.597656 83.332031 C 33.304688 80.777344 35.070312 78.269531 36.898438 75.804688 C 38.726562 73.339844 40.613281 70.921875 42.558594 68.550781 C 44.507812 66.179688 46.511719 63.855469 48.570312 61.582031 C 50.632812 59.308594 52.746094 57.085938 54.917969 54.917969 C 57.085938 52.746094 59.308594 50.632812 61.582031 48.570312 C 63.855469 46.511719 66.179688 44.507812 68.550781 42.558594 C 70.921875 40.613281 73.339844 38.726562 75.804688 36.898438 C 78.269531 35.070312 80.777344 33.304688 83.332031 31.597656 C 85.882812 29.894531 88.472656 28.253906 91.105469 26.675781 C 93.738281 25.097656 96.40625 23.585938 99.113281 22.140625 C 101.820312 20.691406 104.558594 19.3125 107.332031 18.003906 C 110.105469 16.691406 112.910156 15.445312 115.746094 14.273438 C 118.582031 13.097656 121.445312 11.996094 124.332031 10.960938 C 127.222656 9.925781 130.136719 8.964844 133.070312 8.074219 C 136.007812 7.183594 138.964844 6.363281 141.941406 5.617188 C 144.917969 4.875 147.910156 4.203125 150.921875 3.601562 C 153.929688 3.003906 156.953125 2.480469 159.988281 2.03125 C 163.023438 1.578125 166.066406 1.203125 169.121094 0.902344 C 172.175781 0.601562 175.234375 0.375 178.300781 0.226562 C 181.363281 0.0742188 184.429688 0 187.5 0 C 190.570312 0 193.636719 0.0742188 196.699219 0.226562 C 199.765625 0.375 202.824219 0.601562 205.878906 0.902344 C 208.933594 1.203125 211.976562 1.578125 215.011719 2.03125 C 218.046875 2.480469 221.070312 3.003906 224.078125 3.601562 C 227.089844 4.203125 230.082031 4.875 233.058594 5.617188 C 236.035156 6.363281 238.992188 7.183594 241.929688 8.074219 C 244.863281 8.964844 247.777344 9.925781 250.667969 10.960938 C 253.554688 11.996094 256.417969 13.097656 259.253906 14.273438 C 262.089844 15.445312 264.890625 16.691406 267.667969 18.003906 C 270.441406 19.3125 273.179688 20.691406 275.886719 22.140625 C 278.59375 23.585938 281.261719 25.097656 283.894531 26.675781 C 286.527344 28.253906 289.117188 29.894531 291.667969 31.597656 C 294.222656 33.304688 296.730469 35.070312 299.195312 36.898438 C 301.660156 38.726562 304.078125 40.613281 306.449219 42.558594 C 308.820312 44.507812 311.144531 46.511719 313.417969 48.570312 C 315.691406 50.632812 317.914062 52.746094 320.082031 54.917969 C 322.253906 57.085938 324.367188 59.308594 326.429688 61.582031 C 328.488281 63.855469 330.492188 66.179688 332.4375 68.550781 C 334.386719 70.921875 336.273438 73.339844 338.101562 75.804688 C 339.929688 78.269531 341.695312 80.777344 343.402344 83.332031 C 345.105469 85.882812 346.746094 88.472656 348.324219 91.105469 C 349.902344 93.738281 351.414062 96.40625 352.859375 99.113281 C 354.304688 101.820312 355.6875 104.558594 356.996094 107.332031 C 358.308594 110.105469 359.554688 112.910156 360.726562 115.746094 C 361.902344 118.582031 363.003906 121.445312 364.039062 124.332031 C 365.074219 127.222656 366.035156 130.136719 366.925781 133.070312 C 367.816406 136.007812 368.636719 138.964844 369.378906 141.941406 C 370.125 144.917969 370.796875 147.910156 371.398438 150.921875 C 371.996094 153.929688 372.519531 156.953125 372.96875 159.988281 C 373.421875 163.023438 373.796875 166.066406 374.097656 169.121094 C 374.398438 172.175781 374.625 175.234375 374.773438 178.300781 C 374.925781 181.363281 375 184.429688 375 187.5 Z M 375 187.5 " fill-opacity="1" fill-rule="nonzero"/><g clip-path="url(#0b3ecec4b4)"><path fill="#000000" d="M 130.304688 161.089844 L 273.765625 161.089844 C 274.703125 161.09375 275.640625 161.144531 276.574219 161.238281 C 277.507812 161.332031 278.433594 161.472656 279.351562 161.65625 C 280.269531 161.84375 281.179688 162.070312 282.074219 162.34375 C 282.972656 162.617188 283.855469 162.9375 284.71875 163.296875 C 285.585938 163.65625 286.433594 164.054688 287.257812 164.496094 C 288.085938 164.941406 288.886719 165.421875 289.667969 165.941406 C 290.445312 166.460938 291.199219 167.019531 291.921875 167.613281 C 292.648438 168.207031 293.339844 168.835938 294.003906 169.496094 C 294.667969 170.160156 295.296875 170.851562 295.890625 171.574219 C 296.488281 172.296875 297.046875 173.046875 297.566406 173.824219 C 298.089844 174.601562 298.570312 175.402344 299.015625 176.226562 C 299.457031 177.054688 299.859375 177.898438 300.21875 178.761719 C 300.582031 179.625 300.898438 180.503906 301.171875 181.398438 C 301.445312 182.292969 301.675781 183.199219 301.863281 184.117188 C 302.046875 185.035156 302.1875 185.957031 302.28125 186.890625 C 302.375 187.820312 302.425781 188.753906 302.429688 189.691406 L 302.429688 313.75 C 302.425781 314.6875 302.375 315.621094 302.28125 316.554688 C 302.1875 317.484375 302.046875 318.410156 301.859375 319.328125 C 301.675781 320.246094 301.445312 321.15625 301.167969 322.050781 C 300.894531 322.945312 300.578125 323.828125 300.214844 324.691406 C 299.855469 325.554688 299.453125 326.402344 299.007812 327.226562 C 298.5625 328.050781 298.078125 328.851562 297.558594 329.632812 C 297.035156 330.410156 296.472656 331.160156 295.878906 331.882812 C 295.28125 332.605469 294.652344 333.300781 293.988281 333.960938 C 293.320312 334.625 292.625 335.25 291.902344 335.84375 C 291.175781 336.4375 290.421875 336.996094 289.640625 337.515625 C 288.859375 338.035156 288.054688 338.515625 287.226562 338.960938 C 286.398438 339.402344 285.550781 339.800781 284.683594 340.160156 C 283.816406 340.519531 282.933594 340.835938 282.035156 341.105469 C 281.136719 341.378906 280.230469 341.609375 279.308594 341.792969 C 278.386719 341.976562 277.460938 342.113281 276.527344 342.207031 C 275.589844 342.300781 274.65625 342.347656 273.714844 342.347656 L 101.640625 342.347656 C 100.703125 342.347656 99.765625 342.300781 98.832031 342.207031 C 97.898438 342.113281 96.972656 341.976562 96.050781 341.792969 C 95.128906 341.609375 94.21875 341.378906 93.320312 341.105469 C 92.421875 340.835938 91.539062 340.519531 90.671875 340.160156 C 89.804688 339.800781 88.957031 339.402344 88.132812 338.960938 C 87.304688 338.515625 86.5 338.035156 85.71875 337.515625 C 84.9375 336.996094 84.183594 336.4375 83.457031 335.84375 C 82.730469 335.25 82.035156 334.625 81.371094 333.960938 C 80.707031 333.300781 80.078125 332.605469 79.480469 331.882812 C 78.882812 331.160156 78.324219 330.410156 77.800781 329.632812 C 77.277344 328.851562 76.796875 328.050781 76.351562 327.226562 C 75.90625 326.402344 75.503906 325.554688 75.144531 324.691406 C 74.78125 323.828125 74.464844 322.945312 74.1875 322.050781 C 73.914062 321.15625 73.683594 320.246094 73.496094 319.328125 C 73.3125 318.410156 73.171875 317.484375 73.078125 316.554688 C 72.980469 315.621094 72.933594 314.6875 72.929688 313.75 L 72.929688 189.691406 C 72.933594 188.753906 72.980469 187.820312 73.078125 186.886719 C 73.171875 185.953125 73.3125 185.03125 73.496094 184.109375 C 73.683594 183.191406 73.914062 182.285156 74.1875 181.390625 C 74.464844 180.496094 74.78125 179.613281 75.144531 178.75 C 75.503906 177.886719 75.90625 177.039062 76.351562 176.214844 C 76.796875 175.390625 77.277344 174.585938 77.800781 173.808594 C 78.324219 173.03125 78.882812 172.28125 79.480469 171.558594 C 80.078125 170.832031 80.707031 170.140625 81.371094 169.480469 C 82.035156 168.816406 82.730469 168.191406 83.457031 167.59375 C 84.183594 167 84.9375 166.445312 85.71875 165.925781 C 86.5 165.402344 87.304688 164.921875 88.132812 164.480469 C 88.957031 164.039062 89.804688 163.640625 90.671875 163.28125 C 91.539062 162.921875 92.421875 162.605469 93.320312 162.332031 C 94.21875 162.0625 95.128906 161.832031 96.050781 161.648438 C 96.972656 161.464844 97.898438 161.328125 98.832031 161.234375 C 99.765625 161.140625 100.703125 161.09375 101.640625 161.089844 L 101.640625 122.925781 C 101.640625 121.519531 101.675781 120.117188 101.746094 118.714844 C 101.816406 117.3125 101.917969 115.910156 102.054688 114.511719 C 102.195312 113.113281 102.367188 111.71875 102.574219 110.328125 C 102.78125 108.941406 103.019531 107.554688 103.296875 106.179688 C 103.570312 104.800781 103.878906 103.429688 104.21875 102.066406 C 104.5625 100.703125 104.9375 99.351562 105.347656 98.007812 C 105.753906 96.660156 106.195312 95.328125 106.671875 94.003906 C 107.144531 92.683594 107.652344 91.371094 108.191406 90.074219 C 108.730469 88.777344 109.300781 87.492188 109.902344 86.222656 C 110.503906 84.953125 111.136719 83.699219 111.800781 82.457031 C 112.464844 81.21875 113.160156 79.996094 113.882812 78.792969 C 114.605469 77.585938 115.359375 76.402344 116.140625 75.234375 C 116.925781 74.066406 117.734375 72.917969 118.574219 71.789062 C 119.414062 70.660156 120.277344 69.550781 121.171875 68.464844 C 122.066406 67.378906 122.984375 66.316406 123.929688 65.277344 C 124.875 64.234375 125.847656 63.21875 126.839844 62.222656 C 127.835938 61.230469 128.855469 60.261719 129.898438 59.320312 C 130.945312 58.375 132.007812 57.457031 133.097656 56.566406 C 134.1875 55.675781 135.296875 54.8125 136.425781 53.972656 C 137.558594 53.136719 138.707031 52.328125 139.878906 51.546875 C 141.050781 50.769531 142.238281 50.015625 143.445312 49.292969 C 144.65625 48.570312 145.878906 47.878906 147.121094 47.21875 C 148.363281 46.554688 149.621094 45.921875 150.894531 45.324219 C 152.167969 44.722656 153.453125 44.152344 154.753906 43.613281 C 156.054688 43.078125 157.367188 42.570312 158.695312 42.097656 C 160.019531 41.625 161.355469 41.183594 162.703125 40.777344 C 164.050781 40.371094 165.40625 39.996094 166.773438 39.652344 C 168.140625 39.3125 169.511719 39.003906 170.894531 38.730469 C 172.273438 38.457031 173.660156 38.214844 175.054688 38.007812 C 176.449219 37.804688 177.84375 37.632812 179.246094 37.492188 C 180.648438 37.355469 182.050781 37.253906 183.457031 37.183594 C 184.863281 37.113281 186.269531 37.082031 187.679688 37.082031 C 189.085938 37.082031 190.496094 37.113281 191.902344 37.183594 C 193.308594 37.253906 194.710938 37.355469 196.113281 37.492188 C 197.511719 37.632812 198.910156 37.804688 200.304688 38.007812 C 201.695312 38.214844 203.082031 38.457031 204.464844 38.730469 C 205.84375 39.003906 207.21875 39.3125 208.585938 39.652344 C 209.949219 39.996094 211.308594 40.371094 212.652344 40.777344 C 214 41.183594 215.339844 41.625 216.664062 42.097656 C 217.988281 42.570312 219.304688 43.078125 220.605469 43.613281 C 221.90625 44.152344 223.191406 44.722656 224.464844 45.324219 C 225.738281 45.921875 226.996094 46.554688 228.238281 47.21875 C 229.476562 47.878906 230.703125 48.570312 231.910156 49.292969 C 233.117188 50.015625 234.308594 50.769531 235.480469 51.546875 C 236.648438 52.328125 237.800781 53.136719 238.929688 53.972656 C 240.0625 54.8125 241.171875 55.675781 242.261719 56.566406 C 243.347656 57.457031 244.414062 58.375 245.457031 59.320312 C 246.5 60.261719 247.519531 61.230469 248.515625 62.222656 C 249.511719 63.21875 250.484375 64.234375 251.429688 65.277344 C 252.375 66.316406 253.292969 67.378906 254.1875 68.464844 C 255.078125 69.550781 255.945312 70.660156 256.785156 71.789062 C 257.625 72.917969 258.433594 74.066406 259.214844 75.234375 C 260 76.402344 260.75 77.585938 261.476562 78.792969 C 262.199219 79.996094 262.894531 81.21875 263.558594 82.457031 C 264.21875 83.699219 264.851562 84.953125 265.457031 86.222656 C 266.058594 87.492188 266.628906 88.777344 267.167969 90.074219 C 267.707031 91.371094 268.210938 92.683594 268.6875 94.003906 C 269.160156 95.328125 269.601562 96.660156 270.011719 98.007812 C 270.421875 99.351562 270.796875 100.703125 271.136719 102.066406 C 271.480469 103.429688 271.789062 104.800781 272.0625 106.179688 C 272.335938 107.554688 272.578125 108.941406 272.785156 110.328125 C 272.992188 111.71875 273.164062 113.113281 273.300781 114.511719 C 273.441406 115.910156 273.542969 117.3125 273.613281 118.714844 C 273.679688 120.117188 273.714844 121.519531 273.714844 122.925781 L 273.714844 127.710938 C 273.71875 128.648438 273.625 129.582031 273.445312 130.503906 C 273.261719 131.425781 272.992188 132.320312 272.632812 133.1875 C 272.269531 134.054688 271.832031 134.882812 271.308594 135.664062 C 270.785156 136.445312 270.191406 137.167969 269.527344 137.832031 C 268.859375 138.5 268.136719 139.09375 267.351562 139.613281 C 266.570312 140.136719 265.742188 140.578125 264.875 140.9375 C 264.003906 141.296875 263.105469 141.570312 262.183594 141.753906 C 261.257812 141.9375 260.328125 142.027344 259.386719 142.027344 C 258.441406 142.027344 257.511719 141.9375 256.585938 141.753906 C 255.664062 141.570312 254.765625 141.296875 253.894531 140.9375 C 253.027344 140.578125 252.199219 140.136719 251.417969 139.613281 C 250.632812 139.09375 249.910156 138.5 249.246094 137.832031 C 248.578125 137.167969 247.984375 136.445312 247.460938 135.664062 C 246.941406 134.882812 246.5 134.054688 246.140625 133.1875 C 245.78125 132.320312 245.507812 131.425781 245.324219 130.503906 C 245.144531 129.582031 245.054688 128.648438 245.054688 127.710938 L 245.054688 122.925781 C 245.054688 121.050781 244.960938 119.179688 244.777344 117.316406 C 244.59375 115.449219 244.316406 113.597656 243.953125 111.757812 C 243.585938 109.917969 243.128906 108.101562 242.582031 106.308594 C 242.039062 104.515625 241.40625 102.75 240.6875 101.019531 C 239.96875 99.285156 239.164062 97.59375 238.277344 95.941406 C 237.394531 94.285156 236.429688 92.679688 235.382812 91.121094 C 234.339844 89.5625 233.222656 88.058594 232.03125 86.609375 C 230.839844 85.160156 229.578125 83.773438 228.25 82.445312 C 226.921875 81.121094 225.53125 79.863281 224.078125 78.671875 C 222.625 77.484375 221.117188 76.367188 219.554688 75.328125 C 217.992188 74.285156 216.382812 73.324219 214.726562 72.4375 C 213.066406 71.554688 211.371094 70.753906 209.636719 70.035156 C 207.898438 69.320312 206.132812 68.6875 204.335938 68.144531 C 202.535156 67.601562 200.714844 67.144531 198.871094 66.777344 C 197.03125 66.414062 195.171875 66.136719 193.304688 65.953125 C 191.433594 65.769531 189.558594 65.679688 187.679688 65.679688 C 185.800781 65.679688 183.925781 65.769531 182.054688 65.953125 C 180.183594 66.136719 178.328125 66.414062 176.484375 66.777344 C 174.644531 67.144531 172.820312 67.601562 171.023438 68.144531 C 169.226562 68.6875 167.457031 69.320312 165.722656 70.035156 C 163.988281 70.753906 162.289062 71.554688 160.632812 72.4375 C 158.976562 73.324219 157.367188 74.285156 155.804688 75.328125 C 154.242188 76.367188 152.734375 77.484375 151.28125 78.671875 C 149.828125 79.863281 148.4375 81.121094 147.109375 82.445312 C 145.78125 83.773438 144.519531 85.160156 143.328125 86.609375 C 142.136719 88.058594 141.015625 89.5625 139.972656 91.121094 C 138.929688 92.679688 137.964844 94.285156 137.078125 95.941406 C 136.191406 97.59375 135.390625 99.285156 134.671875 101.019531 C 133.953125 102.75 133.320312 104.515625 132.773438 106.308594 C 132.230469 108.101562 131.773438 109.917969 131.40625 111.757812 C 131.039062 113.597656 130.765625 115.449219 130.582031 117.316406 C 130.394531 119.179688 130.304688 121.050781 130.304688 122.925781 Z M 187.679688 218.339844 C 186.308594 218.328125 184.949219 218.4375 183.597656 218.660156 C 182.246094 218.886719 180.921875 219.222656 179.628906 219.675781 C 178.335938 220.125 177.089844 220.683594 175.894531 221.347656 C 174.695312 222.011719 173.5625 222.773438 172.496094 223.632812 C 171.429688 224.492188 170.445312 225.4375 169.542969 226.464844 C 168.640625 227.492188 167.828125 228.585938 167.113281 229.753906 C 166.398438 230.921875 165.789062 232.140625 165.285156 233.410156 C 164.78125 234.679688 164.386719 235.984375 164.109375 237.324219 C 163.828125 238.664062 163.664062 240.015625 163.617188 241.382812 C 163.570312 242.746094 163.640625 244.109375 163.828125 245.460938 C 164.011719 246.816406 164.316406 248.144531 164.730469 249.449219 C 165.148438 250.75 165.671875 252.007812 166.304688 253.21875 C 166.9375 254.433594 167.667969 255.582031 168.496094 256.671875 C 169.328125 257.757812 170.246094 258.765625 171.25 259.695312 C 172.253906 260.625 173.332031 261.464844 174.480469 262.210938 C 175.628906 262.957031 176.832031 263.597656 178.089844 264.136719 L 178.089844 280.472656 C 178.09375 281.097656 178.152344 281.71875 178.277344 282.335938 C 178.402344 282.949219 178.582031 283.546875 178.824219 284.128906 C 179.066406 284.707031 179.363281 285.257812 179.710938 285.78125 C 180.0625 286.300781 180.457031 286.785156 180.902344 287.226562 C 181.347656 287.671875 181.832031 288.066406 182.355469 288.414062 C 182.878906 288.761719 183.433594 289.058594 184.011719 289.296875 C 184.59375 289.539062 185.191406 289.71875 185.808594 289.839844 C 186.425781 289.964844 187.050781 290.023438 187.679688 290.023438 C 188.308594 290.023438 188.929688 289.964844 189.546875 289.839844 C 190.164062 289.71875 190.765625 289.539062 191.34375 289.296875 C 191.925781 289.058594 192.480469 288.761719 193 288.414062 C 193.523438 288.066406 194.007812 287.671875 194.453125 287.226562 C 194.898438 286.785156 195.296875 286.300781 195.648438 285.78125 C 195.996094 285.257812 196.292969 284.707031 196.535156 284.128906 C 196.773438 283.546875 196.957031 282.949219 197.082031 282.335938 C 197.203125 281.71875 197.265625 281.097656 197.265625 280.472656 L 197.265625 264.035156 C 198.527344 263.496094 199.730469 262.855469 200.878906 262.109375 C 202.027344 261.363281 203.105469 260.523438 204.109375 259.59375 C 205.113281 258.664062 206.03125 257.65625 206.859375 256.570312 C 207.691406 255.480469 208.421875 254.332031 209.054688 253.117188 C 209.6875 251.90625 210.210938 250.648438 210.628906 249.34375 C 211.042969 248.042969 211.34375 246.714844 211.53125 245.359375 C 211.71875 244.003906 211.789062 242.644531 211.742188 241.277344 C 211.695312 239.914062 211.53125 238.558594 211.25 237.222656 C 210.96875 235.882812 210.578125 234.578125 210.074219 233.308594 C 209.566406 232.039062 208.957031 230.820312 208.242188 229.652344 C 207.527344 228.484375 206.71875 227.390625 205.816406 226.363281 C 204.910156 225.332031 203.925781 224.390625 202.859375 223.53125 C 201.792969 222.671875 200.664062 221.910156 199.464844 221.246094 C 198.269531 220.582031 197.023438 220.023438 195.730469 219.574219 C 194.4375 219.121094 193.113281 218.785156 191.761719 218.558594 C 190.410156 218.335938 189.050781 218.226562 187.679688 218.238281 Z M 187.679688 218.339844 " fill-opacity="1" fill-rule="evenodd"/></g></svg>