<?xml version="1.0" encoding="UTF-8"?>
<svg width="500" height="500" version="1.0" viewBox="0 0 375 375" xmlns="http://www.w3.org/2000/svg" zoomAndPan="magnify">
<defs>
<clipPath id="a">
<path d="m72.93 37h229.5v305.65h-229.5z"/>
</clipPath>
</defs>
<path d="m375 187.5c0 3.0703-0.074219 6.1367-0.22656 9.1992-0.14844 3.0664-0.375 6.125-0.67578 9.1797-0.30078 3.0547-0.67578 6.0977-1.1289 9.1328-0.44922 3.0352-0.97266 6.0586-1.5703 9.0664-0.60156 3.0117-1.2734 6.0039-2.0195 8.9805-0.74219 2.9766-1.5625 5.9336-2.4531 8.8711-0.89062 2.9336-1.8516 5.8477-2.8867 8.7383-1.0352 2.8867-2.1367 5.75-3.3125 8.5859-1.1719 2.8359-2.418 5.6367-3.7305 8.4141-1.3086 2.7734-2.6914 5.5117-4.1367 8.2188s-2.957 5.375-4.5352 8.0078c-1.5781 2.6328-3.2188 5.2227-4.9219 7.7734-1.707 2.5547-3.4727 5.0625-5.3008 7.5273-1.8281 2.4648-3.7148 4.8828-5.6641 7.2539-1.9453 2.3711-3.9492 4.6953-6.0078 6.9688-2.0625 2.2734-4.1758 4.4961-6.3477 6.6641-2.168 2.1719-4.3906 4.2852-6.6641 6.3477-2.2734 2.0586-4.5977 4.0625-6.9688 6.0078-2.3711 1.9492-4.7891 3.8359-7.2539 5.6641-2.4648 1.8281-4.9727 3.5938-7.5273 5.3008-2.5508 1.7031-5.1406 3.3438-7.7734 4.9219-2.6328 1.5781-5.3008 3.0898-8.0078 4.5352-2.707 1.4492-5.4453 2.8281-8.2188 4.1367-2.7773 1.3125-5.5781 2.5586-8.4141 3.7305-2.8359 1.1758-5.6992 2.2773-8.5859 3.3125-2.8906 1.0352-5.8047 1.9961-8.7383 2.8867-2.9375 0.89062-5.8945 1.7109-8.8711 2.4531-2.9766 0.74609-5.9688 1.418-8.9805 2.0195-3.0078 0.59766-6.0312 1.1211-9.0664 1.5703-3.0352 0.45312-6.0781 0.82812-9.1328 1.1289-3.0547 0.30078-6.1133 0.52734-9.1797 0.67578-3.0625 0.15234-6.1289 0.22656-9.1992 0.22656s-6.1367-0.074219-9.1992-0.22656c-3.0664-0.14844-6.125-0.375-9.1797-0.67578-3.0547-0.30078-6.0977-0.67578-9.1328-1.1289-3.0352-0.44922-6.0586-0.97266-9.0664-1.5703-3.0117-0.60156-6.0039-1.2734-8.9805-2.0195-2.9766-0.74219-5.9336-1.5625-8.8711-2.4531-2.9336-0.89062-5.8477-1.8516-8.7383-2.8867-2.8867-1.0352-5.75-2.1367-8.5859-3.3125-2.8359-1.1719-5.6406-2.418-8.4141-3.7305-2.7734-1.3086-5.5117-2.6875-8.2188-4.1367-2.707-1.4453-5.375-2.957-8.0078-4.5352-2.6328-1.5781-5.2227-3.2188-7.7734-4.9219-2.5547-1.707-5.0625-3.4727-7.5273-5.3008-2.4648-1.8281-4.8828-3.7148-7.2539-5.6641-2.3711-1.9453-4.6953-3.9492-6.9688-6.0078-2.2734-2.0625-4.4961-4.1758-6.6641-6.3477-2.1719-2.168-4.2852-4.3906-6.3477-6.6641-2.0586-2.2734-4.0625-4.5977-6.0117-6.9688-1.9453-2.3711-3.832-4.7891-5.6602-7.2539-1.8281-2.4648-3.5938-4.9727-5.3008-7.5273-1.7031-2.5508-3.3438-5.1406-4.9219-7.7734-1.5781-2.6328-3.0898-5.3008-4.5352-8.0078-1.4492-2.707-2.8281-5.4453-4.1367-8.2188-1.3125-2.7773-2.5586-5.5781-3.7305-8.4141-1.1758-2.8359-2.2773-5.6992-3.3125-8.5859-1.0352-2.8906-1.9961-5.8047-2.8867-8.7383-0.89062-2.9375-1.7109-5.8945-2.457-8.8711-0.74219-2.9766-1.4141-5.9688-2.0156-8.9805-0.59766-3.0078-1.1211-6.0312-1.5703-9.0664-0.45312-3.0352-0.82812-6.0781-1.1289-9.1328-0.30078-3.0547-0.52734-6.1133-0.67578-9.1797-0.15234-3.0625-0.22656-6.1289-0.22656-9.1992s0.074219-6.1367 0.22656-9.1992c0.14844-3.0664 0.375-6.125 0.67578-9.1797 0.30078-3.0547 0.67578-6.0977 1.1289-9.1328 0.44922-3.0352 0.97266-6.0586 1.5703-9.0664 0.60156-3.0117 1.2734-6.0039 2.0156-8.9805 0.74609-2.9766 1.5664-5.9336 2.457-8.8711 0.89062-2.9336 1.8516-5.8477 2.8867-8.7383 1.0352-2.8867 2.1367-5.75 3.3125-8.5859 1.1719-2.8359 2.418-5.6406 3.7305-8.4141 1.3086-2.7734 2.6875-5.5117 4.1367-8.2188 1.4453-2.707 2.957-5.375 4.5352-8.0078 1.5781-2.6328 3.2188-5.2227 4.9219-7.7734 1.707-2.5547 3.4727-5.0625 5.3008-7.5273 1.8281-2.4648 3.7148-4.8828 5.6602-7.2539 1.9492-2.3711 3.9531-4.6953 6.0117-6.9688 2.0625-2.2734 4.1758-4.4961 6.3477-6.6641 2.168-2.1719 4.3906-4.2852 6.6641-6.3477 2.2734-2.0586 4.5977-4.0625 6.9688-6.0117 2.3711-1.9453 4.7891-3.832 7.2539-5.6602 2.4648-1.8281 4.9727-3.5938 7.5273-5.3008 2.5508-1.7031 5.1406-3.3438 7.7734-4.9219 2.6328-1.5781 5.3008-3.0898 8.0078-4.5352 2.707-1.4492 5.4453-2.8281 8.2188-4.1367 2.7734-1.3125 5.5781-2.5586 8.4141-3.7305 2.8359-1.1758 5.6992-2.2773 8.5859-3.3125 2.8906-1.0352 5.8047-1.9961 8.7383-2.8867 2.9375-0.89062 5.8945-1.7109 8.8711-2.457 2.9766-0.74219 5.9688-1.4141 8.9805-2.0156 3.0078-0.59766 6.0312-1.1211 9.0664-1.5703 3.0352-0.45312 6.0781-0.82812 9.1328-1.1289 3.0547-0.30078 6.1133-0.52734 9.1797-0.67578 3.0625-0.15234 6.1289-0.22656 9.1992-0.22656s6.1367 0.074219 9.1992 0.22656c3.0664 0.14844 6.125 0.375 9.1797 0.67578 3.0547 0.30078 6.0977 0.67578 9.1328 1.1289 3.0352 0.44922 6.0586 0.97266 9.0664 1.5703 3.0117 0.60156 6.0039 1.2734 8.9805 2.0156 2.9766 0.74609 5.9336 1.5664 8.8711 2.457 2.9336 0.89062 5.8477 1.8516 8.7383 2.8867 2.8867 1.0352 5.75 2.1367 8.5859 3.3125 2.8359 1.1719 5.6367 2.418 8.4141 3.7305 2.7734 1.3086 5.5117 2.6875 8.2188 4.1367 2.707 1.4453 5.375 2.957 8.0078 4.5352 2.6328 1.5781 5.2227 3.2188 7.7734 4.9219 2.5547 1.707 5.0625 3.4727 7.5273 5.3008 2.4648 1.8281 4.8828 3.7148 7.2539 5.6602 2.3711 1.9492 4.6953 3.9531 6.9688 6.0117 2.2734 2.0625 4.4961 4.1758 6.6641 6.3477 2.1719 2.168 4.2852 4.3906 6.3477 6.6641 2.0586 2.2734 4.0625 4.5977 6.0078 6.9688 1.9492 2.3711 3.8359 4.7891 5.6641 7.2539 1.8281 2.4648 3.5938 4.9727 5.3008 7.5273 1.7031 2.5508 3.3438 5.1406 4.9219 7.7734 1.5781 2.6328 3.0898 5.3008 4.5352 8.0078s2.8281 5.4453 4.1367 8.2188c1.3125 2.7734 2.5586 5.5781 3.7305 8.4141 1.1758 2.8359 2.2773 5.6992 3.3125 8.5859 1.0352 2.8906 1.9961 5.8047 2.8867 8.7383 0.89062 2.9375 1.7109 5.8945 2.4531 8.8711 0.74609 2.9766 1.418 5.9688 2.0195 8.9805 0.59766 3.0078 1.1211 6.0312 1.5703 9.0664 0.45312 3.0352 0.82812 6.0781 1.1289 9.1328 0.30078 3.0547 0.52734 6.1133 0.67578 9.1797 0.15234 3.0625 0.22656 6.1289 0.22656 9.1992z" fill="#fff"/>
<g clip-path="url(#a)">
<path d="m130.3 161.09h143.46c0.9375 0.003906 1.875 0.054687 2.8086 0.14844 0.93359 0.09375 1.8594 0.23438 2.7773 0.41797 0.91797 0.1875 1.8281 0.41406 2.7227 0.6875 0.89844 0.27344 1.7812 0.59375 2.6445 0.95312 0.86719 0.35938 1.7148 0.75781 2.5391 1.1992 0.82813 0.44531 1.6289 0.92578 2.4102 1.4453 0.77734 0.51953 1.5312 1.0781 2.2539 1.6719 0.72656 0.59375 1.418 1.2227 2.082 1.8828 0.66406 0.66406 1.293 1.3555 1.8867 2.0781 0.59766 0.72266 1.1562 1.4727 1.6758 2.25 0.52344 0.77734 1.0039 1.5781 1.4492 2.4023 0.44141 0.82813 0.84375 1.6719 1.2031 2.5352 0.36328 0.86328 0.67969 1.7422 0.95312 2.6367 0.27344 0.89453 0.50391 1.8008 0.69141 2.7188 0.18359 0.91797 0.32422 1.8398 0.41797 2.7734 0.09375 0.92969 0.14453 1.8633 0.14844 2.8008v124.06c-0.003907 0.9375-0.054688 1.8711-0.14844 2.8047-0.09375 0.92969-0.23438 1.8555-0.42188 2.7734-0.18359 0.91797-0.41406 1.8281-0.69141 2.7227-0.27344 0.89453-0.58984 1.7773-0.95312 2.6406-0.35938 0.86328-0.76172 1.7109-1.207 2.5352-0.44531 0.82422-0.92969 1.625-1.4492 2.4062-0.52344 0.77734-1.0859 1.5273-1.6797 2.25-0.59766 0.72266-1.2266 1.418-1.8906 2.0781-0.66797 0.66406-1.3633 1.2891-2.0859 1.8828-0.72656 0.59375-1.4805 1.1523-2.2617 1.6719s-1.5859 1-2.4141 1.4453c-0.82812 0.44141-1.6758 0.83984-2.543 1.1992-0.86719 0.35938-1.75 0.67578-2.6484 0.94531-0.89844 0.27344-1.8047 0.50391-2.7266 0.6875-0.92188 0.18359-1.8477 0.32031-2.7812 0.41406-0.9375 0.09375-1.8711 0.14062-2.8125 0.14062h-172.07c-0.9375 0-1.875-0.046875-2.8086-0.14062-0.93359-0.09375-1.8594-0.23047-2.7812-0.41406-0.92188-0.18359-1.832-0.41406-2.7305-0.6875-0.89844-0.26953-1.7812-0.58594-2.6484-0.94531s-1.7148-0.75781-2.5391-1.1992c-0.82812-0.44531-1.6328-0.92578-2.4141-1.4453s-1.5352-1.0781-2.2617-1.6719c-0.72656-0.59375-1.4219-1.2188-2.0859-1.8828-0.66406-0.66016-1.293-1.3555-1.8906-2.0781-0.59766-0.72266-1.1562-1.4727-1.6797-2.25-0.52344-0.78125-1.0039-1.582-1.4492-2.4062-0.44531-0.82422-0.84766-1.6719-1.207-2.5352-0.36328-0.86328-0.67969-1.7461-0.95703-2.6406-0.27344-0.89453-0.50391-1.8047-0.69141-2.7227-0.18359-0.91797-0.32422-1.8438-0.41797-2.7734-0.097656-0.93359-0.14453-1.8672-0.14844-2.8047v-124.06c0.003906-0.9375 0.050781-1.8711 0.14844-2.8047 0.09375-0.93359 0.23438-1.8555 0.41797-2.7773 0.1875-0.91797 0.41797-1.8242 0.69141-2.7188 0.27734-0.89453 0.59375-1.7773 0.95703-2.6406 0.35938-0.86328 0.76172-1.7109 1.207-2.5352 0.44531-0.82422 0.92578-1.6289 1.4492-2.4062 0.52344-0.77734 1.082-1.5273 1.6797-2.25 0.59766-0.72656 1.2266-1.418 1.8906-2.0781 0.66406-0.66406 1.3594-1.2891 2.0859-1.8867 0.72656-0.59375 1.4805-1.1484 2.2617-1.668 0.78125-0.52344 1.5859-1.0039 2.4141-1.4453 0.82422-0.44141 1.6719-0.83984 2.5391-1.1992s1.75-0.67578 2.6484-0.94922c0.89844-0.26953 1.8086-0.5 2.7305-0.68359 0.92188-0.18359 1.8477-0.32031 2.7812-0.41406 0.93359-0.09375 1.8711-0.14062 2.8086-0.14453v-38.164c0-1.4062 0.035156-2.8086 0.10547-4.2109 0.070312-1.4023 0.17188-2.8047 0.30859-4.2031 0.14062-1.3984 0.3125-2.793 0.51953-4.1836 0.20703-1.3867 0.44531-2.7734 0.72266-4.1484 0.27344-1.3789 0.58203-2.75 0.92188-4.1133 0.34375-1.3633 0.71875-2.7148 1.1289-4.0586 0.40625-1.3477 0.84766-2.6797 1.3242-4.0039 0.47266-1.3203 0.98047-2.6328 1.5195-3.9297 0.53906-1.2969 1.1094-2.582 1.7109-3.8516 0.60156-1.2695 1.2344-2.5234 1.8984-3.7656 0.66406-1.2383 1.3594-2.4609 2.082-3.6641 0.72266-1.207 1.4766-2.3906 2.2578-3.5586 0.78516-1.168 1.5938-2.3164 2.4336-3.4453 0.83984-1.1289 1.7031-2.2383 2.5977-3.3242 0.89453-1.0859 1.8125-2.1484 2.7578-3.1875 0.94531-1.043 1.918-2.0586 2.9102-3.0547 0.99609-0.99219 2.0156-1.9609 3.0586-2.9023 1.0469-0.94531 2.1094-1.8633 3.1992-2.7539s2.1992-1.7539 3.3281-2.5938c1.1328-0.83594 2.2812-1.6445 3.4531-2.4258 1.1719-0.77734 2.3594-1.5312 3.5664-2.2539 1.2109-0.72266 2.4336-1.4141 3.6758-2.0742 1.2422-0.66406 2.5-1.2969 3.7734-1.8945 1.2734-0.60156 2.5586-1.1719 3.8594-1.7109 1.3008-0.53516 2.6133-1.043 3.9414-1.5156 1.3242-0.47266 2.6602-0.91406 4.0078-1.3203s2.7031-0.78125 4.0703-1.125c1.3672-0.33984 2.7383-0.64844 4.1211-0.92188 1.3789-0.27344 2.7656-0.51562 4.1602-0.72266 1.3945-0.20312 2.7891-0.375 4.1914-0.51562 1.4023-0.13672 2.8047-0.23828 4.2109-0.30859 1.4062-0.070313 2.8125-0.10156 4.2227-0.10156 1.4062 0 2.8164 0.03125 4.2227 0.10156 1.4062 0.070312 2.8086 0.17188 4.2109 0.30859 1.3984 0.14062 2.7969 0.3125 4.1914 0.51562 1.3906 0.20703 2.7773 0.44922 4.1602 0.72266 1.3789 0.27344 2.7539 0.58203 4.1211 0.92188 1.3633 0.34375 2.7227 0.71875 4.0664 1.125 1.3477 0.40625 2.6875 0.84766 4.0117 1.3203 1.3242 0.47266 2.6406 0.98047 3.9414 1.5156 1.3008 0.53906 2.5859 1.1094 3.8594 1.7109 1.2734 0.59766 2.5312 1.2305 3.7734 1.8945 1.2383 0.66016 2.4648 1.3516 3.6719 2.0742 1.207 0.72266 2.3984 1.4766 3.5703 2.2539 1.168 0.78125 2.3203 1.5898 3.4492 2.4258 1.1328 0.83984 2.2422 1.7031 3.332 2.5938 1.0859 0.89062 2.1523 1.8086 3.1953 2.7539 1.043 0.94141 2.0625 1.9102 3.0586 2.9023 0.99609 0.99609 1.9688 2.0117 2.9141 3.0547 0.94531 1.0391 1.8633 2.1016 2.7578 3.1875 0.89062 1.0859 1.7578 2.1953 2.5977 3.3242 0.83984 1.1289 1.6484 2.2773 2.4297 3.4453 0.78516 1.168 1.5352 2.3516 2.2617 3.5586 0.72266 1.2031 1.418 2.4258 2.082 3.6641 0.66016 1.2422 1.293 2.4961 1.8984 3.7656 0.60156 1.2695 1.1719 2.5547 1.7109 3.8516 0.53906 1.2969 1.043 2.6094 1.5195 3.9297 0.47266 1.3242 0.91406 2.6562 1.3242 4.0039 0.41016 1.3438 0.78516 2.6953 1.125 4.0586 0.34375 1.3633 0.65234 2.7344 0.92578 4.1133 0.27344 1.375 0.51562 2.7617 0.72266 4.1484 0.20703 1.3906 0.37891 2.7852 0.51562 4.1836 0.14062 1.3984 0.24219 2.8008 0.3125 4.2031 0.066407 1.4023 0.10156 2.8047 0.10156 4.2109v4.7852c0.003906 0.9375-0.089844 1.8711-0.26953 2.793-0.18359 0.92188-0.45312 1.8164-0.8125 2.6836-0.36328 0.86719-0.80078 1.6953-1.3242 2.4766-0.52344 0.78125-1.1172 1.5039-1.7812 2.168-0.66797 0.66797-1.3906 1.2617-2.1758 1.7812-0.78125 0.52344-1.6094 0.96484-2.4766 1.3242-0.87109 0.35938-1.7695 0.63281-2.6914 0.81641-0.92578 0.18359-1.8555 0.27344-2.7969 0.27344-0.94531 0-1.875-0.089844-2.8008-0.27344-0.92188-0.18359-1.8203-0.45703-2.6914-0.81641-0.86719-0.35938-1.6953-0.80078-2.4766-1.3242-0.78516-0.51953-1.5078-1.1133-2.1719-1.7812-0.66797-0.66406-1.2617-1.3867-1.7852-2.168-0.51953-0.78125-0.96094-1.6094-1.3203-2.4766s-0.63281-1.7617-0.81641-2.6836c-0.17969-0.92188-0.26953-1.8555-0.26953-2.793v-4.7852c0-1.875-0.09375-3.7461-0.27734-5.6094-0.18359-1.8672-0.46094-3.7188-0.82422-5.5586-0.36719-1.8398-0.82422-3.6562-1.3711-5.4492-0.54297-1.793-1.1758-3.5586-1.8945-5.2891-0.71875-1.7344-1.5234-3.4258-2.4102-5.0781-0.88281-1.6562-1.8477-3.2617-2.8945-4.8203-1.043-1.5586-2.1602-3.0625-3.3516-4.5117s-2.4531-2.8359-3.7812-4.1641c-1.3281-1.3242-2.7188-2.582-4.1719-3.7734-1.4531-1.1875-2.9609-2.3047-4.5234-3.3438-1.5625-1.043-3.1719-2.0039-4.8281-2.8906-1.6602-0.88281-3.3555-1.6836-5.0898-2.4023-1.7383-0.71484-3.5039-1.3477-5.3008-1.8906-1.8008-0.54297-3.6211-1-5.4648-1.3672-1.8398-0.36328-3.6992-0.64062-5.5664-0.82422-1.8711-0.18359-3.7461-0.27344-5.625-0.27344-1.8789 0-3.7539 0.089843-5.625 0.27344-1.8711 0.18359-3.7266 0.46094-5.5703 0.82422-1.8398 0.36719-3.6641 0.82422-5.4609 1.3672-1.7969 0.54297-3.5664 1.1758-5.3008 1.8906-1.7344 0.71875-3.4336 1.5195-5.0898 2.4023-1.6562 0.88672-3.2656 1.8477-4.8281 2.8906-1.5625 1.0391-3.0703 2.1562-4.5234 3.3438-1.4531 1.1914-2.8438 2.4492-4.1719 3.7734-1.3281 1.3281-2.5898 2.7148-3.7812 4.1641s-2.3125 2.9531-3.3555 4.5117c-1.043 1.5586-2.0078 3.1641-2.8945 4.8203-0.88672 1.6523-1.6875 3.3438-2.4062 5.0781-0.71875 1.7305-1.3516 3.4961-1.8984 5.2891-0.54297 1.793-1 3.6094-1.3672 5.4492-0.36719 1.8398-0.64062 3.6914-0.82422 5.5586-0.1875 1.8633-0.27734 3.7344-0.27734 5.6094zm57.375 57.25c-1.3711-0.011719-2.7305 0.097656-4.082 0.32031-1.3516 0.22656-2.6758 0.5625-3.9688 1.0156-1.293 0.44922-2.5391 1.0078-3.7344 1.6719-1.1992 0.66406-2.332 1.4258-3.3984 2.2852-1.0664 0.85938-2.0508 1.8047-2.9531 2.832-0.90234 1.0273-1.7148 2.1211-2.4297 3.2891-0.71484 1.168-1.3242 2.3867-1.8281 3.6562-0.50391 1.2695-0.89844 2.5742-1.1758 3.9141-0.28125 1.3398-0.44531 2.6914-0.49219 4.0586-0.046876 1.3633 0.023437 2.7266 0.21094 4.0781 0.18359 1.3555 0.48828 2.6836 0.90234 3.9883 0.41797 1.3008 0.94141 2.5586 1.5742 3.7695 0.63281 1.2148 1.3633 2.3633 2.1914 3.4531 0.83203 1.0859 1.75 2.0938 2.7539 3.0234 1.0039 0.92969 2.082 1.7695 3.2305 2.5156 1.1484 0.74609 2.3516 1.3867 3.6094 1.9258v16.336c0.003906 0.625 0.0625 1.2461 0.1875 1.8633 0.125 0.61328 0.30469 1.2109 0.54688 1.793 0.24219 0.57812 0.53906 1.1289 0.88672 1.6523 0.35156 0.51953 0.74609 1.0039 1.1914 1.4453 0.44531 0.44531 0.92969 0.83984 1.4531 1.1875 0.52344 0.34766 1.0781 0.64453 1.6562 0.88281 0.58203 0.24219 1.1797 0.42188 1.7969 0.54297 0.61719 0.125 1.2422 0.18359 1.8711 0.18359 0.62891 0 1.25-0.058594 1.8672-0.18359 0.61719-0.12109 1.2188-0.30078 1.7969-0.54297 0.58203-0.23828 1.1367-0.53516 1.6562-0.88281 0.52344-0.34766 1.0078-0.74219 1.4531-1.1875 0.44531-0.44141 0.84375-0.92578 1.1953-1.4453 0.34766-0.52344 0.64453-1.0742 0.88672-1.6523 0.23828-0.58203 0.42188-1.1797 0.54688-1.793 0.12109-0.61719 0.18359-1.2383 0.18359-1.8633v-16.438c1.2617-0.53906 2.4648-1.1797 3.6133-1.9258 1.1484-0.74609 2.2266-1.5859 3.2305-2.5156s1.9219-1.9375 2.75-3.0234c0.83203-1.0898 1.5625-2.2383 2.1953-3.4531 0.63281-1.2109 1.1562-2.4688 1.5742-3.7734 0.41406-1.3008 0.71484-2.6289 0.90234-3.9844s0.25781-2.7148 0.21094-4.082c-0.046876-1.3633-0.21094-2.7188-0.49219-4.0547-0.28125-1.3398-0.67188-2.6445-1.1758-3.9141-0.50781-1.2695-1.1172-2.4883-1.832-3.6562-0.71484-1.168-1.5234-2.2617-2.4258-3.2891-0.90625-1.0312-1.8906-1.9727-2.957-2.832s-2.1953-1.6211-3.3945-2.2852c-1.1953-0.66406-2.4414-1.2227-3.7344-1.6719-1.293-0.45312-2.6172-0.78906-3.9688-1.0156-1.3516-0.22266-2.7109-0.33203-4.082-0.32031z" fill-rule="evenodd"/>
</g>
</svg>
