<svg xmlns="http://www.w3.org/2000/svg" xmlns:xlink="http://www.w3.org/1999/xlink" width="500" zoomAndPan="magnify" viewBox="0 0 375 374.999991" height="500" preserveAspectRatio="xMidYMid meet" version="1.0"><defs><clipPath id="62c84d9f1f"><path d="M 33.496094 114 L 190 114 L 190 285.246094 L 33.496094 285.246094 Z M 33.496094 114 " clip-rule="nonzero"/></clipPath><clipPath id="06bf26bc74"><path d="M 185 114 L 341.746094 114 L 341.746094 285.246094 L 185 285.246094 Z M 185 114 " clip-rule="nonzero"/></clipPath><clipPath id="6418dacfeb"><path d="M 47 102 L 190 102 L 190 285.246094 L 47 285.246094 Z M 47 102 " clip-rule="nonzero"/></clipPath><clipPath id="2bbfdc3044"><path d="M 185 102 L 328 102 L 328 285.246094 L 185 285.246094 Z M 185 102 " clip-rule="nonzero"/></clipPath><clipPath id="094dae5d37"><path d="M 60 89.496094 L 190 89.496094 L 190 285.246094 L 60 285.246094 Z M 60 89.496094 " clip-rule="nonzero"/></clipPath><clipPath id="15e6f67712"><path d="M 182 89.496094 L 312 89.496094 L 312 285.246094 L 182 285.246094 Z M 182 89.496094 " clip-rule="nonzero"/></clipPath><clipPath id="aff82f0915"><path d="M 112.5 103.316406 L 262.5 103.316406 L 262.5 253.316406 L 112.5 253.316406 Z M 112.5 103.316406 " clip-rule="nonzero"/></clipPath></defs><path fill="#000000" d="M 187.5 283.957031 L 35.035156 282.058594 L 35.035156 116.03125 L 187.5 116.03125 Z M 187.5 283.957031 " fill-opacity="1" fill-rule="nonzero"/><g clip-path="url(#62c84d9f1f)"><path fill="#737373" d="M 187.5 285.496094 C 187.492188 285.496094 187.488281 285.496094 187.480469 285.496094 L 35.019531 283.597656 C 34.175781 283.585938 33.496094 282.902344 33.496094 282.058594 L 33.496094 116.03125 C 33.496094 115.183594 34.1875 114.492188 35.035156 114.492188 L 187.5 114.492188 C 188.347656 114.492188 189.039062 115.183594 189.039062 116.03125 L 189.039062 283.957031 C 189.039062 284.371094 188.871094 284.765625 188.582031 285.054688 C 188.292969 285.335938 187.90625 285.496094 187.5 285.496094 Z M 36.582031 280.53125 L 185.957031 282.390625 L 185.957031 117.574219 L 36.582031 117.574219 Z M 36.582031 280.53125 " fill-opacity="1" fill-rule="nonzero"/></g><path fill="#000000" d="M 187.5 283.957031 L 339.960938 282.058594 L 339.960938 116.03125 L 187.5 116.03125 Z M 187.5 283.957031 " fill-opacity="1" fill-rule="nonzero"/><g clip-path="url(#06bf26bc74)"><path fill="#737373" d="M 187.5 285.496094 C 187.09375 285.496094 186.703125 285.335938 186.414062 285.054688 C 186.125 284.765625 185.957031 284.371094 185.957031 283.957031 L 185.957031 116.03125 C 185.957031 115.183594 186.648438 114.492188 187.5 114.492188 L 339.960938 114.492188 C 340.8125 114.492188 341.5 115.183594 341.5 116.03125 L 341.5 282.058594 C 341.5 282.902344 340.824219 283.59375 339.980469 283.597656 L 187.523438 285.496094 C 187.511719 285.496094 187.503906 285.496094 187.5 285.496094 Z M 189.046875 117.574219 L 189.046875 282.390625 L 338.421875 280.53125 L 338.421875 117.574219 Z M 189.046875 117.574219 " fill-opacity="1" fill-rule="nonzero"/></g><path fill="#a6a6a6" d="M 187.5 283.957031 C 187.5 283.957031 150.371094 271.722656 118.085938 271.722656 C 85.800781 271.722656 48.675781 271.722656 48.675781 271.722656 L 48.675781 103.597656 C 48.675781 103.597656 68.660156 103.597656 113.203125 103.597656 C 157.746094 103.597656 187.5 115.828125 187.5 115.828125 Z M 187.5 283.957031 " fill-opacity="1" fill-rule="nonzero"/><g clip-path="url(#6418dacfeb)"><path fill="#737373" d="M 187.5 285.496094 C 187.339844 285.496094 187.171875 285.472656 187.019531 285.417969 C 186.648438 285.292969 149.742188 273.261719 118.085938 273.261719 L 48.667969 273.261719 C 47.820312 273.261719 47.128906 272.574219 47.128906 271.722656 L 47.128906 103.597656 C 47.128906 102.746094 47.820312 102.054688 48.667969 102.054688 L 113.195312 102.054688 C 157.53125 102.054688 187.78125 114.285156 188.085938 114.40625 C 188.664062 114.648438 189.039062 115.207031 189.039062 115.835938 L 189.039062 283.957031 C 189.039062 284.449219 188.796875 284.917969 188.398438 285.207031 C 188.140625 285.398438 187.820312 285.496094 187.5 285.496094 Z M 50.210938 270.175781 L 118.082031 270.175781 C 145.949219 270.175781 177.730469 279.332031 185.953125 281.851562 L 185.953125 116.890625 C 180.527344 114.855469 152.507812 105.140625 113.195312 105.140625 L 50.210938 105.140625 Z M 50.210938 270.175781 " fill-opacity="1" fill-rule="nonzero"/></g><path fill="#a6a6a6" d="M 187.5 283.957031 C 187.5 283.957031 224.625 271.722656 256.910156 271.722656 C 289.195312 271.722656 326.324219 271.722656 326.324219 271.722656 L 326.324219 103.597656 C 326.324219 103.597656 306.339844 103.597656 261.796875 103.597656 C 217.253906 103.597656 187.5 115.828125 187.5 115.828125 Z M 187.5 283.957031 " fill-opacity="1" fill-rule="nonzero"/><g clip-path="url(#2bbfdc3044)"><path fill="#737373" d="M 187.5 285.496094 C 187.179688 285.496094 186.863281 285.398438 186.59375 285.199219 C 186.191406 284.910156 185.953125 284.441406 185.953125 283.949219 L 185.953125 115.828125 C 185.953125 115.207031 186.328125 114.640625 186.90625 114.402344 C 187.210938 114.277344 217.457031 102.050781 261.796875 102.050781 L 326.324219 102.050781 C 327.171875 102.050781 327.863281 102.738281 327.863281 103.589844 L 327.863281 271.710938 C 327.863281 272.5625 327.171875 273.25 326.324219 273.25 L 256.910156 273.25 C 225.242188 273.25 188.347656 285.289062 187.980469 285.40625 C 187.824219 285.472656 187.664062 285.496094 187.5 285.496094 Z M 189.046875 116.890625 L 189.046875 281.855469 C 197.269531 279.335938 229.046875 270.183594 256.917969 270.183594 L 324.789062 270.183594 L 324.789062 105.140625 L 261.800781 105.140625 C 222.480469 105.140625 194.464844 114.855469 189.046875 116.890625 Z M 189.046875 116.890625 " fill-opacity="1" fill-rule="nonzero"/></g><path fill="#a6a6a6" d="M 187.5 283.957031 C 187.5 283.957031 163.695312 259.1875 131.410156 259.1875 C 99.125 259.1875 62 259.1875 62 259.1875 L 62 91.058594 C 62 91.058594 81.984375 91.058594 126.527344 91.058594 C 171.070312 91.058594 187.5 115.828125 187.5 115.828125 Z M 187.5 283.957031 " fill-opacity="1" fill-rule="nonzero"/><g clip-path="url(#094dae5d37)"><path fill="#737373" d="M 187.5 285.496094 C 187.085938 285.496094 186.6875 285.332031 186.390625 285.023438 C 186.15625 284.78125 162.644531 260.726562 131.417969 260.726562 L 62 260.726562 C 61.148438 260.726562 60.460938 260.039062 60.460938 259.1875 L 60.460938 91.058594 C 60.460938 90.210938 61.148438 89.519531 62 89.519531 L 126.527344 89.519531 C 171.382812 89.519531 188.097656 113.9375 188.78125 114.980469 C 188.945312 115.230469 189.039062 115.527344 189.039062 115.828125 L 189.039062 283.949219 C 189.039062 284.578125 188.65625 285.144531 188.070312 285.378906 C 187.886719 285.460938 187.695312 285.496094 187.5 285.496094 Z M 63.539062 257.640625 L 131.410156 257.640625 C 158.121094 257.640625 178.824219 273.921875 185.953125 280.351562 L 185.953125 116.328125 C 183.710938 113.335938 166.707031 92.605469 126.527344 92.605469 L 63.539062 92.605469 Z M 63.539062 257.640625 " fill-opacity="1" fill-rule="nonzero"/></g><path fill="#a6a6a6" d="M 184.109375 283.957031 C 184.109375 283.957031 207.914062 259.1875 240.199219 259.1875 C 272.484375 259.1875 309.609375 259.1875 309.609375 259.1875 L 309.609375 91.058594 C 309.609375 91.058594 289.625 91.058594 245.082031 91.058594 C 200.539062 91.058594 184.109375 115.828125 184.109375 115.828125 Z M 184.109375 283.957031 " fill-opacity="1" fill-rule="nonzero"/><g clip-path="url(#15e6f67712)"><path fill="#737373" d="M 184.109375 285.496094 C 183.914062 285.496094 183.722656 285.460938 183.539062 285.386719 C 182.953125 285.152344 182.570312 284.585938 182.570312 283.957031 L 182.570312 115.828125 C 182.570312 115.527344 182.65625 115.230469 182.828125 114.980469 C 183.511719 113.9375 200.226562 89.519531 245.082031 89.519531 L 309.609375 89.519531 C 310.460938 89.519531 311.148438 90.210938 311.148438 91.058594 L 311.148438 259.179688 C 311.148438 260.03125 310.460938 260.722656 309.609375 260.722656 L 240.191406 260.722656 C 208.921875 260.722656 185.453125 284.777344 185.21875 285.015625 C 184.925781 285.332031 184.523438 285.496094 184.109375 285.496094 Z M 185.652344 116.328125 L 185.652344 280.351562 C 192.785156 273.921875 213.480469 257.640625 240.191406 257.640625 L 308.0625 257.640625 L 308.0625 92.605469 L 245.082031 92.605469 C 204.894531 92.605469 187.894531 113.335938 185.652344 116.328125 Z M 185.652344 116.328125 " fill-opacity="1" fill-rule="nonzero"/></g><path fill="#231f20" d="M 138.792969 175.667969 C 138.6875 173.851562 138.371094 172.023438 137.894531 170.265625 C 137.359375 168.289062 136.042969 167.417969 134.207031 167.441406 C 132.414062 167.464844 131.242188 168.328125 130.644531 170.234375 C 130.328125 171.246094 130.039062 172.3125 130.011719 173.363281 C 129.867188 179.078125 129.71875 184.792969 129.761719 190.507812 C 129.773438 192.46875 130.234375 194.445312 130.671875 196.375 C 130.960938 197.65625 131.777344 198.628906 133.203125 198.957031 C 135.777344 199.546875 137.757812 198.351562 138.164062 195.371094 C 138.707031 191.386719 138.855469 187.355469 139.175781 183.347656 C 139.0625 183.339844 138.945312 183.332031 138.832031 183.328125 C 138.832031 180.773438 138.941406 178.214844 138.792969 175.667969 " fill-opacity="1" fill-rule="nonzero"/><path fill="#231f20" d="M 166.003906 169.164062 C 166.003906 172.972656 166.003906 176.621094 166.003906 180.46875 C 168.691406 180.386719 171.558594 181.078125 173.042969 178.3125 C 174.359375 175.851562 174.308594 173.070312 172.660156 170.746094 C 171.023438 168.433594 168.417969 169.136719 166.003906 169.164062 " fill-opacity="1" fill-rule="nonzero"/><g clip-path="url(#aff82f0915)"><path fill="#231f20" d="M 240.503906 205.039062 C 240.121094 205.03125 239.574219 204.25 239.417969 203.734375 C 236.734375 194.921875 234.105469 186.09375 231.464844 177.269531 C 231.320312 176.792969 231.167969 176.316406 231.019531 175.835938 C 230.910156 175.839844 230.800781 175.84375 230.695312 175.847656 C 230.695312 185.527344 230.695312 195.207031 230.695312 204.996094 C 227.601562 204.996094 224.625 204.996094 221.546875 204.996094 C 221.546875 190.496094 221.546875 176.066406 221.546875 161.457031 C 225.351562 161.457031 229.066406 161.421875 232.777344 161.515625 C 233.113281 161.527344 233.574219 162.308594 233.726562 162.808594 C 236.292969 171.285156 238.8125 179.773438 241.34375 188.253906 C 241.445312 188.582031 241.570312 188.902344 241.863281 189.191406 C 241.863281 180.03125 241.863281 170.875 241.863281 161.582031 C 245.046875 161.582031 248.132812 161.582031 251.347656 161.582031 C 251.347656 175.984375 251.347656 190.457031 251.347656 205.101562 C 247.71875 205.101562 244.109375 205.140625 240.503906 205.039062 Z M 214.9375 204.996094 C 206.351562 204.996094 197.804688 204.996094 189.160156 204.996094 C 189.160156 190.527344 189.160156 176.09375 189.160156 161.554688 C 197.492188 161.554688 205.796875 161.554688 214.234375 161.554688 C 214.234375 164.183594 214.234375 166.863281 214.234375 169.730469 C 209.371094 169.730469 204.449219 169.730469 199.433594 169.730469 C 199.433594 172.695312 199.433594 175.46875 199.433594 178.410156 C 204.0625 178.410156 208.636719 178.410156 213.324219 178.410156 C 213.324219 181.253906 213.324219 183.9375 213.324219 186.832031 C 208.746094 186.832031 204.132812 186.832031 199.429688 186.832031 C 199.429688 190.195312 199.429688 193.34375 199.429688 196.675781 C 204.507812 196.675781 209.636719 196.675781 214.9375 196.675781 C 214.9375 199.601562 214.9375 202.242188 214.9375 204.996094 Z M 184.464844 176.105469 C 184.382812 177.367188 184.160156 178.644531 183.804688 179.859375 C 182.417969 184.613281 178.484375 187.613281 173.21875 187.890625 C 170.84375 188.015625 168.457031 187.910156 165.921875 187.910156 C 165.921875 193.863281 165.921875 199.402344 165.921875 205.023438 C 162.464844 205.023438 159.167969 205.023438 155.769531 205.023438 C 155.769531 190.546875 155.769531 176.121094 155.769531 161.449219 C 156.242188 161.449219 156.726562 161.449219 157.214844 161.449219 C 162.015625 161.449219 166.816406 161.503906 171.617188 161.441406 C 181.308594 161.3125 184.953125 168.078125 184.464844 176.105469 Z M 148.699219 195.148438 C 147.378906 202.046875 143.386719 205.445312 136.363281 205.921875 C 134.144531 206.074219 131.851562 205.949219 129.65625 205.558594 C 124.5 204.632812 121.414062 201.347656 120.148438 196.347656 C 118.578125 190.128906 118.746094 183.789062 119.078125 177.457031 C 119.183594 175.527344 119.4375 173.589844 119.820312 171.695312 C 121.25 164.632812 124.824219 161.300781 131.925781 160.65625 C 134.238281 160.449219 136.65625 160.582031 138.933594 161.023438 C 144.710938 162.144531 148.105469 166.011719 148.972656 172.433594 C 149.464844 176.066406 149.585938 179.75 149.914062 183.917969 C 149.5625 187.363281 149.433594 191.3125 148.699219 195.148438 Z M 187.5 103.316406 C 146.078125 103.316406 112.5 136.894531 112.5 178.316406 C 112.5 219.738281 146.078125 253.316406 187.5 253.316406 C 228.921875 253.316406 262.5 219.738281 262.5 178.316406 C 262.5 136.894531 228.921875 103.316406 187.5 103.316406 " fill-opacity="1" fill-rule="nonzero"/></g></svg>