<svg xmlns="http://www.w3.org/2000/svg" xmlns:xlink="http://www.w3.org/1999/xlink" width="500" zoomAndPan="magnify" viewBox="0 0 375 374.999991" height="500" preserveAspectRatio="xMidYMid meet" version="1.0"><defs><clipPath id="a96a6d0f96"><path d="M 33.496094 114 L 190 114 L 190 285.246094 L 33.496094 285.246094 Z M 33.496094 114 " clip-rule="nonzero"/></clipPath><clipPath id="d15f305076"><path d="M 185 114 L 341.746094 114 L 341.746094 285.246094 L 185 285.246094 Z M 185 114 " clip-rule="nonzero"/></clipPath><clipPath id="0eec8fd1d0"><path d="M 47 102 L 190 102 L 190 285.246094 L 47 285.246094 Z M 47 102 " clip-rule="nonzero"/></clipPath><clipPath id="b77f966c6c"><path d="M 185 102 L 328 102 L 328 285.246094 L 185 285.246094 Z M 185 102 " clip-rule="nonzero"/></clipPath><clipPath id="be3d78c816"><path d="M 60 89.496094 L 190 89.496094 L 190 285.246094 L 60 285.246094 Z M 60 89.496094 " clip-rule="nonzero"/></clipPath><clipPath id="5228d9ba8b"><path d="M 182 89.496094 L 312 89.496094 L 312 285.246094 L 182 285.246094 Z M 182 89.496094 " clip-rule="nonzero"/></clipPath><clipPath id="5066aa9619"><path d="M 137.53125 113 L 237 113 L 237 262 L 137.53125 262 Z M 137.53125 113 " clip-rule="nonzero"/></clipPath></defs><path fill="#000000" d="M 187.5 283.957031 L 35.035156 282.058594 L 35.035156 116.03125 L 187.5 116.03125 Z M 187.5 283.957031 " fill-opacity="1" fill-rule="nonzero"/><g clip-path="url(#a96a6d0f96)"><path fill="#737373" d="M 187.5 285.496094 C 187.492188 285.496094 187.488281 285.496094 187.480469 285.496094 L 35.019531 283.597656 C 34.175781 283.585938 33.496094 282.902344 33.496094 282.058594 L 33.496094 116.03125 C 33.496094 115.183594 34.1875 114.492188 35.035156 114.492188 L 187.5 114.492188 C 188.347656 114.492188 189.039062 115.183594 189.039062 116.03125 L 189.039062 283.957031 C 189.039062 284.371094 188.871094 284.765625 188.582031 285.054688 C 188.292969 285.335938 187.90625 285.496094 187.5 285.496094 Z M 36.582031 280.53125 L 185.957031 282.390625 L 185.957031 117.574219 L 36.582031 117.574219 Z M 36.582031 280.53125 " fill-opacity="1" fill-rule="nonzero"/></g><path fill="#000000" d="M 187.5 283.957031 L 339.960938 282.058594 L 339.960938 116.03125 L 187.5 116.03125 Z M 187.5 283.957031 " fill-opacity="1" fill-rule="nonzero"/><g clip-path="url(#d15f305076)"><path fill="#737373" d="M 187.5 285.496094 C 187.09375 285.496094 186.703125 285.335938 186.414062 285.054688 C 186.125 284.765625 185.957031 284.371094 185.957031 283.957031 L 185.957031 116.03125 C 185.957031 115.183594 186.648438 114.492188 187.5 114.492188 L 339.960938 114.492188 C 340.8125 114.492188 341.5 115.183594 341.5 116.03125 L 341.5 282.058594 C 341.5 282.902344 340.824219 283.59375 339.980469 283.597656 L 187.523438 285.496094 C 187.511719 285.496094 187.503906 285.496094 187.5 285.496094 Z M 189.046875 117.574219 L 189.046875 282.390625 L 338.421875 280.53125 L 338.421875 117.574219 Z M 189.046875 117.574219 " fill-opacity="1" fill-rule="nonzero"/></g><path fill="#a6a6a6" d="M 187.5 283.957031 C 187.5 283.957031 150.371094 271.722656 118.085938 271.722656 C 85.800781 271.722656 48.675781 271.722656 48.675781 271.722656 L 48.675781 103.597656 C 48.675781 103.597656 68.660156 103.597656 113.203125 103.597656 C 157.746094 103.597656 187.5 115.828125 187.5 115.828125 Z M 187.5 283.957031 " fill-opacity="1" fill-rule="nonzero"/><g clip-path="url(#0eec8fd1d0)"><path fill="#737373" d="M 187.5 285.496094 C 187.339844 285.496094 187.171875 285.472656 187.019531 285.417969 C 186.648438 285.292969 149.742188 273.261719 118.085938 273.261719 L 48.667969 273.261719 C 47.820312 273.261719 47.128906 272.574219 47.128906 271.722656 L 47.128906 103.597656 C 47.128906 102.746094 47.820312 102.054688 48.667969 102.054688 L 113.195312 102.054688 C 157.53125 102.054688 187.78125 114.285156 188.085938 114.40625 C 188.664062 114.648438 189.039062 115.207031 189.039062 115.835938 L 189.039062 283.957031 C 189.039062 284.449219 188.796875 284.917969 188.398438 285.207031 C 188.140625 285.398438 187.820312 285.496094 187.5 285.496094 Z M 50.210938 270.175781 L 118.082031 270.175781 C 145.949219 270.175781 177.730469 279.332031 185.953125 281.851562 L 185.953125 116.890625 C 180.527344 114.855469 152.507812 105.140625 113.195312 105.140625 L 50.210938 105.140625 Z M 50.210938 270.175781 " fill-opacity="1" fill-rule="nonzero"/></g><path fill="#a6a6a6" d="M 187.5 283.957031 C 187.5 283.957031 224.625 271.722656 256.910156 271.722656 C 289.195312 271.722656 326.324219 271.722656 326.324219 271.722656 L 326.324219 103.597656 C 326.324219 103.597656 306.339844 103.597656 261.796875 103.597656 C 217.253906 103.597656 187.5 115.828125 187.5 115.828125 Z M 187.5 283.957031 " fill-opacity="1" fill-rule="nonzero"/><g clip-path="url(#b77f966c6c)"><path fill="#737373" d="M 187.5 285.496094 C 187.179688 285.496094 186.863281 285.398438 186.59375 285.199219 C 186.191406 284.910156 185.953125 284.441406 185.953125 283.949219 L 185.953125 115.828125 C 185.953125 115.207031 186.328125 114.640625 186.90625 114.402344 C 187.210938 114.277344 217.457031 102.050781 261.796875 102.050781 L 326.324219 102.050781 C 327.171875 102.050781 327.863281 102.738281 327.863281 103.589844 L 327.863281 271.710938 C 327.863281 272.5625 327.171875 273.25 326.324219 273.25 L 256.910156 273.25 C 225.242188 273.25 188.347656 285.289062 187.980469 285.40625 C 187.824219 285.472656 187.664062 285.496094 187.5 285.496094 Z M 189.046875 116.890625 L 189.046875 281.855469 C 197.269531 279.335938 229.046875 270.183594 256.917969 270.183594 L 324.789062 270.183594 L 324.789062 105.140625 L 261.800781 105.140625 C 222.480469 105.140625 194.464844 114.855469 189.046875 116.890625 Z M 189.046875 116.890625 " fill-opacity="1" fill-rule="nonzero"/></g><path fill="#a6a6a6" d="M 187.5 283.957031 C 187.5 283.957031 163.695312 259.1875 131.410156 259.1875 C 99.125 259.1875 62 259.1875 62 259.1875 L 62 91.058594 C 62 91.058594 81.984375 91.058594 126.527344 91.058594 C 171.070312 91.058594 187.5 115.828125 187.5 115.828125 Z M 187.5 283.957031 " fill-opacity="1" fill-rule="nonzero"/><g clip-path="url(#be3d78c816)"><path fill="#737373" d="M 187.5 285.496094 C 187.085938 285.496094 186.6875 285.332031 186.390625 285.023438 C 186.15625 284.78125 162.644531 260.726562 131.417969 260.726562 L 62 260.726562 C 61.148438 260.726562 60.460938 260.039062 60.460938 259.1875 L 60.460938 91.058594 C 60.460938 90.210938 61.148438 89.519531 62 89.519531 L 126.527344 89.519531 C 171.382812 89.519531 188.097656 113.9375 188.78125 114.980469 C 188.945312 115.230469 189.039062 115.527344 189.039062 115.828125 L 189.039062 283.949219 C 189.039062 284.578125 188.65625 285.144531 188.070312 285.378906 C 187.886719 285.460938 187.695312 285.496094 187.5 285.496094 Z M 63.539062 257.640625 L 131.410156 257.640625 C 158.121094 257.640625 178.824219 273.921875 185.953125 280.351562 L 185.953125 116.328125 C 183.710938 113.335938 166.707031 92.605469 126.527344 92.605469 L 63.539062 92.605469 Z M 63.539062 257.640625 " fill-opacity="1" fill-rule="nonzero"/></g><path fill="#a6a6a6" d="M 184.109375 283.957031 C 184.109375 283.957031 207.914062 259.1875 240.199219 259.1875 C 272.484375 259.1875 309.609375 259.1875 309.609375 259.1875 L 309.609375 91.058594 C 309.609375 91.058594 289.625 91.058594 245.082031 91.058594 C 200.539062 91.058594 184.109375 115.828125 184.109375 115.828125 Z M 184.109375 283.957031 " fill-opacity="1" fill-rule="nonzero"/><g clip-path="url(#5228d9ba8b)"><path fill="#737373" d="M 184.109375 285.496094 C 183.914062 285.496094 183.722656 285.460938 183.539062 285.386719 C 182.953125 285.152344 182.570312 284.585938 182.570312 283.957031 L 182.570312 115.828125 C 182.570312 115.527344 182.65625 115.230469 182.828125 114.980469 C 183.511719 113.9375 200.226562 89.519531 245.082031 89.519531 L 309.609375 89.519531 C 310.460938 89.519531 311.148438 90.210938 311.148438 91.058594 L 311.148438 259.179688 C 311.148438 260.03125 310.460938 260.722656 309.609375 260.722656 L 240.191406 260.722656 C 208.921875 260.722656 185.453125 284.777344 185.21875 285.015625 C 184.925781 285.332031 184.523438 285.496094 184.109375 285.496094 Z M 185.652344 116.328125 L 185.652344 280.351562 C 192.785156 273.921875 213.480469 257.640625 240.191406 257.640625 L 308.0625 257.640625 L 308.0625 92.605469 L 245.082031 92.605469 C 204.894531 92.605469 187.894531 113.335938 185.652344 116.328125 Z M 185.652344 116.328125 " fill-opacity="1" fill-rule="nonzero"/></g><g clip-path="url(#5066aa9619)"><path fill="#000000" d="M 187.160156 161.457031 C 177.332031 161.457031 168.191406 164.363281 160.480469 169.285156 L 160.480469 150.234375 C 160.480469 135.511719 172.46875 123.5 187.160156 123.5 C 194.285156 123.5 200.96875 126.257812 206.03125 131.277344 C 211.089844 136.398438 213.84375 143.09375 213.84375 150.234375 C 213.84375 152.941406 216.054688 155.15625 218.757812 155.15625 C 221.457031 155.15625 223.671875 152.941406 223.671875 150.234375 C 223.671875 140.484375 219.886719 131.328125 212.957031 124.335938 C 206.03125 117.445312 196.890625 113.65625 187.160156 113.65625 C 167.015625 113.65625 150.652344 130.046875 150.652344 150.234375 L 150.652344 177.554688 C 142.394531 186.464844 137.335938 198.332031 137.335938 211.425781 C 137.335938 238.945312 159.691406 261.34375 187.160156 261.34375 C 214.628906 261.34375 236.988281 238.945312 236.988281 211.425781 C 236.988281 183.855469 214.628906 161.457031 187.160156 161.457031 Z M 206.273438 204.679688 L 185.882812 225.113281 C 184.898438 226.097656 183.671875 226.539062 182.394531 226.539062 C 181.117188 226.539062 179.886719 226.097656 178.90625 225.113281 L 168.046875 214.230469 C 166.128906 212.3125 166.128906 209.160156 168.046875 207.242188 C 169.960938 205.320312 173.058594 205.320312 174.972656 207.242188 L 182.394531 214.675781 L 199.347656 197.691406 C 201.261719 195.769531 204.359375 195.769531 206.273438 197.691406 C 208.191406 199.609375 208.191406 202.761719 206.273438 204.679688 Z M 206.273438 204.679688 " fill-opacity="1" fill-rule="nonzero"/></g></svg>