<svg xmlns="http://www.w3.org/2000/svg" xmlns:xlink="http://www.w3.org/1999/xlink" width="500" zoomAndPan="magnify" viewBox="0 0 375 374.999991" height="500" preserveAspectRatio="xMidYMid meet" version="1.0"><defs><clipPath id="582dce3d39"><path d="M 89 43 L 263 43 L 263 334.796875 L 89 334.796875 Z M 89 43 " clip-rule="nonzero"/></clipPath><clipPath id="24df7d4e0c"><path d="M 262 120 L 289.386719 120 L 289.386719 130 L 262 130 Z M 262 120 " clip-rule="nonzero"/></clipPath></defs><path fill="#ffffff" d="M 375 187.5 C 375 190.570312 374.925781 193.636719 374.773438 196.699219 C 374.625 199.765625 374.398438 202.824219 374.097656 205.878906 C 373.796875 208.933594 373.421875 211.976562 372.96875 215.011719 C 372.519531 218.046875 371.996094 221.070312 371.398438 224.078125 C 370.796875 227.089844 370.125 230.082031 369.378906 233.058594 C 368.636719 236.035156 367.816406 238.992188 366.925781 241.929688 C 366.035156 244.863281 365.074219 247.777344 364.039062 250.667969 C 363.003906 253.554688 361.902344 256.417969 360.726562 259.253906 C 359.554688 262.089844 358.308594 264.890625 356.996094 267.667969 C 355.6875 270.441406 354.304688 273.179688 352.859375 275.886719 C 351.414062 278.59375 349.902344 281.261719 348.324219 283.894531 C 346.746094 286.527344 345.105469 289.117188 343.402344 291.667969 C 341.695312 294.222656 339.929688 296.730469 338.101562 299.195312 C 336.273438 301.660156 334.386719 304.078125 332.4375 306.449219 C 330.492188 308.820312 328.488281 311.144531 326.429688 313.417969 C 324.367188 315.691406 322.253906 317.914062 320.082031 320.082031 C 317.914062 322.253906 315.691406 324.367188 313.417969 326.429688 C 311.144531 328.488281 308.820312 330.492188 306.449219 332.4375 C 304.078125 334.386719 301.660156 336.273438 299.195312 338.101562 C 296.730469 339.929688 294.222656 341.695312 291.667969 343.402344 C 289.117188 345.105469 286.527344 346.746094 283.894531 348.324219 C 281.261719 349.902344 278.59375 351.414062 275.886719 352.859375 C 273.179688 354.308594 270.441406 355.6875 267.667969 356.996094 C 264.890625 358.308594 262.089844 359.554688 259.253906 360.726562 C 256.417969 361.902344 253.554688 363.003906 250.667969 364.039062 C 247.777344 365.074219 244.863281 366.035156 241.929688 366.925781 C 238.992188 367.816406 236.035156 368.636719 233.058594 369.378906 C 230.082031 370.125 227.089844 370.796875 224.078125 371.398438 C 221.070312 371.996094 218.046875 372.519531 215.011719 372.96875 C 211.976562 373.421875 208.933594 373.796875 205.878906 374.097656 C 202.824219 374.398438 199.765625 374.625 196.699219 374.773438 C 193.636719 374.925781 190.570312 375 187.5 375 C 184.429688 375 181.363281 374.925781 178.300781 374.773438 C 175.234375 374.625 172.175781 374.398438 169.121094 374.097656 C 166.066406 373.796875 163.023438 373.421875 159.988281 372.96875 C 156.953125 372.519531 153.929688 371.996094 150.921875 371.398438 C 147.910156 370.796875 144.917969 370.125 141.941406 369.378906 C 138.964844 368.636719 136.007812 367.816406 133.070312 366.925781 C 130.136719 366.035156 127.222656 365.074219 124.332031 364.039062 C 121.445312 363.003906 118.582031 361.902344 115.746094 360.726562 C 112.910156 359.554688 110.105469 358.308594 107.332031 356.996094 C 104.558594 355.6875 101.820312 354.308594 99.113281 352.859375 C 96.40625 351.414062 93.738281 349.902344 91.105469 348.324219 C 88.472656 346.746094 85.882812 345.105469 83.332031 343.402344 C 80.777344 341.695312 78.269531 339.929688 75.804688 338.101562 C 73.339844 336.273438 70.921875 334.386719 68.550781 332.4375 C 66.179688 330.492188 63.855469 328.488281 61.582031 326.429688 C 59.308594 324.367188 57.085938 322.253906 54.917969 320.082031 C 52.746094 317.914062 50.632812 315.691406 48.570312 313.417969 C 46.511719 311.144531 44.507812 308.820312 42.558594 306.449219 C 40.613281 304.078125 38.726562 301.660156 36.898438 299.195312 C 35.070312 296.730469 33.304688 294.222656 31.597656 291.667969 C 29.894531 289.117188 28.253906 286.527344 26.675781 283.894531 C 25.097656 281.261719 23.585938 278.59375 22.140625 275.886719 C 20.691406 273.179688 19.3125 270.441406 18.003906 267.667969 C 16.691406 264.890625 15.445312 262.089844 14.273438 259.253906 C 13.097656 256.417969 11.996094 253.554688 10.960938 250.667969 C 9.925781 247.777344 8.964844 244.863281 8.074219 241.929688 C 7.183594 238.992188 6.363281 236.035156 5.617188 233.058594 C 4.875 230.082031 4.203125 227.089844 3.601562 224.078125 C 3.003906 221.070312 2.480469 218.046875 2.03125 215.011719 C 1.578125 211.976562 1.203125 208.933594 0.902344 205.878906 C 0.601562 202.824219 0.375 199.765625 0.226562 196.699219 C 0.0742188 193.636719 0 190.570312 0 187.5 C 0 184.429688 0.0742188 181.363281 0.226562 178.300781 C 0.375 175.234375 0.601562 172.175781 0.902344 169.121094 C 1.203125 166.066406 1.578125 163.023438 2.03125 159.988281 C 2.480469 156.953125 3.003906 153.929688 3.601562 150.921875 C 4.203125 147.910156 4.875 144.917969 5.617188 141.941406 C 6.363281 138.964844 7.183594 136.007812 8.074219 133.070312 C 8.964844 130.136719 9.925781 127.222656 10.960938 124.332031 C 11.996094 121.445312 13.097656 118.582031 14.273438 115.746094 C 15.445312 112.910156 16.691406 110.105469 18.003906 107.332031 C 19.3125 104.558594 20.691406 101.820312 22.140625 99.113281 C 23.585938 96.40625 25.097656 93.738281 26.675781 91.105469 C 28.253906 88.472656 29.894531 85.882812 31.597656 83.332031 C 33.304688 80.777344 35.070312 78.269531 36.898438 75.804688 C 38.726562 73.339844 40.613281 70.921875 42.558594 68.550781 C 44.507812 66.179688 46.511719 63.855469 48.570312 61.582031 C 50.632812 59.308594 52.746094 57.085938 54.917969 54.917969 C 57.085938 52.746094 59.308594 50.632812 61.582031 48.570312 C 63.855469 46.511719 66.179688 44.507812 68.550781 42.558594 C 70.921875 40.613281 73.339844 38.726562 75.804688 36.898438 C 78.269531 35.070312 80.777344 33.304688 83.332031 31.597656 C 85.882812 29.894531 88.472656 28.253906 91.105469 26.675781 C 93.738281 25.097656 96.40625 23.585938 99.113281 22.140625 C 101.820312 20.691406 104.558594 19.3125 107.332031 18.003906 C 110.105469 16.691406 112.910156 15.445312 115.746094 14.273438 C 118.582031 13.097656 121.445312 11.996094 124.332031 10.960938 C 127.222656 9.925781 130.136719 8.964844 133.070312 8.074219 C 136.007812 7.183594 138.964844 6.363281 141.941406 5.617188 C 144.917969 4.875 147.910156 4.203125 150.921875 3.601562 C 153.929688 3.003906 156.953125 2.480469 159.988281 2.03125 C 163.023438 1.578125 166.066406 1.203125 169.121094 0.902344 C 172.175781 0.601562 175.234375 0.375 178.300781 0.226562 C 181.363281 0.0742188 184.429688 0 187.5 0 C 190.570312 0 193.636719 0.0742188 196.699219 0.226562 C 199.765625 0.375 202.824219 0.601562 205.878906 0.902344 C 208.933594 1.203125 211.976562 1.578125 215.011719 2.03125 C 218.046875 2.480469 221.070312 3.003906 224.078125 3.601562 C 227.089844 4.203125 230.082031 4.875 233.058594 5.617188 C 236.035156 6.363281 238.992188 7.183594 241.929688 8.074219 C 244.863281 8.964844 247.777344 9.925781 250.667969 10.960938 C 253.554688 11.996094 256.417969 13.097656 259.253906 14.273438 C 262.089844 15.445312 264.890625 16.691406 267.667969 18.003906 C 270.441406 19.3125 273.179688 20.691406 275.886719 22.140625 C 278.59375 23.585938 281.261719 25.097656 283.894531 26.675781 C 286.527344 28.253906 289.117188 29.894531 291.667969 31.597656 C 294.222656 33.304688 296.730469 35.070312 299.195312 36.898438 C 301.660156 38.726562 304.078125 40.613281 306.449219 42.558594 C 308.820312 44.507812 311.144531 46.511719 313.417969 48.570312 C 315.691406 50.632812 317.914062 52.746094 320.082031 54.917969 C 322.253906 57.085938 324.367188 59.308594 326.429688 61.582031 C 328.488281 63.855469 330.492188 66.179688 332.4375 68.550781 C 334.386719 70.921875 336.273438 73.339844 338.101562 75.804688 C 339.929688 78.269531 341.695312 80.777344 343.402344 83.332031 C 345.105469 85.882812 346.746094 88.472656 348.324219 91.105469 C 349.902344 93.738281 351.414062 96.40625 352.859375 99.113281 C 354.304688 101.820312 355.6875 104.558594 356.996094 107.332031 C 358.308594 110.105469 359.554688 112.910156 360.726562 115.746094 C 361.902344 118.582031 363.003906 121.445312 364.039062 124.332031 C 365.074219 127.222656 366.035156 130.136719 366.925781 133.070312 C 367.816406 136.007812 368.636719 138.964844 369.378906 141.941406 C 370.125 144.917969 370.796875 147.910156 371.398438 150.921875 C 371.996094 153.929688 372.519531 156.953125 372.96875 159.988281 C 373.421875 163.023438 373.796875 166.066406 374.097656 169.121094 C 374.398438 172.175781 374.625 175.234375 374.773438 178.300781 C 374.925781 181.363281 375 184.429688 375 187.5 Z M 375 187.5 " fill-opacity="1" fill-rule="nonzero"/><path fill="#000000" d="M 167.472656 250 L 160.464844 281.578125 C 160.378906 281.949219 160.316406 282.324219 160.273438 282.703125 C 160.234375 283.085938 160.214844 283.464844 160.214844 283.847656 C 160.214844 284.226562 160.238281 284.609375 160.28125 284.988281 C 160.324219 285.367188 160.390625 285.742188 160.476562 286.113281 C 160.5625 286.484375 160.667969 286.851562 160.792969 287.210938 C 160.921875 287.570312 161.066406 287.921875 161.234375 288.265625 C 161.398438 288.609375 161.585938 288.941406 161.789062 289.265625 C 161.992188 289.585938 162.210938 289.898438 162.449219 290.195312 C 162.6875 290.492188 162.941406 290.777344 163.210938 291.046875 C 163.484375 291.316406 163.765625 291.570312 164.066406 291.808594 C 164.363281 292.042969 164.675781 292.265625 164.996094 292.46875 C 165.320312 292.667969 165.652344 292.851562 165.996094 293.019531 C 166.339844 293.183594 166.695312 293.328125 167.054688 293.453125 C 167.414062 293.582031 167.78125 293.6875 168.152344 293.769531 C 168.523438 293.855469 168.898438 293.917969 169.277344 293.960938 C 169.65625 294.003906 170.035156 294.023438 170.417969 294.023438 L 190.273438 294.023438 C 190.652344 294.023438 191.03125 294.003906 191.410156 293.960938 C 191.789062 293.917969 192.164062 293.855469 192.535156 293.769531 C 192.90625 293.6875 193.273438 293.582031 193.632812 293.453125 C 193.992188 293.328125 194.34375 293.183594 194.6875 293.019531 C 195.027344 292.855469 195.363281 292.671875 195.683594 292.46875 C 196.007812 292.265625 196.316406 292.046875 196.617188 291.808594 C 196.914062 291.574219 197.199219 291.320312 197.46875 291.050781 C 197.738281 290.78125 197.992188 290.5 198.230469 290.203125 C 198.46875 289.90625 198.6875 289.597656 198.890625 289.273438 C 199.09375 288.953125 199.28125 288.621094 199.445312 288.277344 C 199.613281 287.933594 199.757812 287.582031 199.886719 287.222656 C 200.011719 286.863281 200.121094 286.5 200.207031 286.128906 C 200.292969 285.757812 200.359375 285.382812 200.402344 285.003906 C 200.445312 284.625 200.46875 284.246094 200.472656 283.867188 C 200.472656 283.484375 200.453125 283.105469 200.414062 282.726562 C 200.371094 282.347656 200.308594 281.972656 200.226562 281.601562 L 193.214844 250.027344 C 194.179688 249.308594 195.078125 248.511719 195.90625 247.636719 C 196.738281 246.765625 197.488281 245.832031 198.160156 244.832031 C 198.832031 243.835938 199.417969 242.785156 199.914062 241.691406 C 200.414062 240.59375 200.816406 239.460938 201.121094 238.296875 C 201.429688 237.132812 201.636719 235.953125 201.746094 234.753906 C 201.855469 233.554688 201.863281 232.355469 201.769531 231.152344 C 201.679688 229.953125 201.484375 228.769531 201.195312 227.601562 C 200.902344 226.433594 200.515625 225.296875 200.035156 224.191406 C 199.550781 223.089844 198.980469 222.035156 198.324219 221.027344 C 197.664062 220.019531 196.925781 219.074219 196.105469 218.191406 C 195.289062 217.308594 194.402344 216.5 193.449219 215.765625 C 192.496094 215.03125 191.488281 214.378906 190.425781 213.816406 C 189.363281 213.25 188.261719 212.777344 187.117188 212.398438 C 185.976562 212.019531 184.808594 211.738281 183.621094 211.550781 C 182.429688 211.367188 181.234375 211.285156 180.03125 211.300781 C 178.828125 211.320312 177.636719 211.4375 176.453125 211.65625 C 175.429688 211.839844 174.421875 212.101562 173.4375 212.433594 C 172.449219 212.765625 171.492188 213.167969 170.566406 213.636719 C 169.636719 214.109375 168.75 214.644531 167.898438 215.246094 C 167.050781 215.847656 166.25 216.507812 165.492188 217.222656 C 164.738281 217.941406 164.042969 218.707031 163.398438 219.527344 C 162.757812 220.347656 162.175781 221.207031 161.660156 222.113281 C 161.144531 223.015625 160.695312 223.949219 160.3125 224.917969 C 159.929688 225.886719 159.621094 226.878906 159.382812 227.894531 C 159.148438 228.90625 158.984375 229.933594 158.898438 230.96875 C 158.808594 232.007812 158.796875 233.046875 158.859375 234.085938 C 158.921875 235.125 159.058594 236.152344 159.269531 237.171875 C 159.484375 238.191406 159.769531 239.191406 160.125 240.167969 C 160.484375 241.144531 160.910156 242.089844 161.402344 243.007812 C 161.898438 243.921875 162.457031 244.796875 163.078125 245.632812 C 163.703125 246.46875 164.382812 247.253906 165.117188 247.988281 C 165.851562 248.722656 166.640625 249.402344 167.472656 250.023438 Z M 168.089844 230.65625 C 168.320312 229.417969 168.726562 228.238281 169.3125 227.117188 C 169.894531 226 170.628906 224.992188 171.515625 224.09375 C 172.402344 223.195312 173.402344 222.449219 174.511719 221.847656 C 175.621094 221.25 176.796875 220.828125 178.03125 220.582031 C 178.796875 220.449219 179.570312 220.382812 180.34375 220.378906 C 181.800781 220.375 183.214844 220.621094 184.585938 221.117188 C 185.957031 221.617188 187.195312 222.335938 188.308594 223.28125 C 188.703125 223.605469 189.074219 223.957031 189.421875 224.328125 C 189.769531 224.699219 190.09375 225.09375 190.394531 225.507812 C 190.695312 225.917969 190.96875 226.347656 191.214844 226.796875 C 191.464844 227.242188 191.683594 227.703125 191.871094 228.175781 C 192.0625 228.648438 192.222656 229.132812 192.351562 229.628906 C 192.484375 230.121094 192.582031 230.621094 192.652344 231.128906 C 192.71875 231.632812 192.757812 232.140625 192.761719 232.652344 C 192.769531 233.164062 192.742188 233.671875 192.683594 234.179688 C 192.628906 234.6875 192.539062 235.1875 192.417969 235.683594 C 192.300781 236.179688 192.148438 236.667969 191.96875 237.144531 C 191.789062 237.625 191.582031 238.089844 191.34375 238.539062 C 191.105469 238.992188 190.84375 239.429688 190.550781 239.847656 C 190.261719 240.265625 189.945312 240.667969 189.601562 241.046875 C 189.261719 241.425781 188.898438 241.785156 188.515625 242.121094 C 188.128906 242.453125 187.726562 242.765625 187.300781 243.050781 C 186.878906 243.335938 186.4375 243.59375 185.984375 243.824219 C 185.539062 244.054688 185.140625 244.347656 184.792969 244.710938 C 184.445312 245.074219 184.164062 245.480469 183.953125 245.9375 C 183.742188 246.390625 183.605469 246.867188 183.554688 247.367188 C 183.5 247.867188 183.527344 248.359375 183.632812 248.851562 L 191.359375 283.550781 C 191.441406 283.902344 191.371094 284.21875 191.140625 284.496094 C 190.917969 284.777344 190.628906 284.914062 190.273438 284.910156 L 170.417969 284.910156 C 170.058594 284.914062 169.769531 284.777344 169.550781 284.496094 C 169.320312 284.21875 169.25 283.902344 169.332031 283.550781 L 177.054688 248.851562 C 177.164062 248.359375 177.191406 247.867188 177.136719 247.367188 C 177.082031 246.867188 176.949219 246.390625 176.738281 245.9375 C 176.523438 245.480469 176.246094 245.074219 175.898438 244.710938 C 175.550781 244.347656 175.152344 244.054688 174.707031 243.824219 C 174.117188 243.527344 173.554688 243.1875 173.015625 242.804688 C 172.480469 242.417969 171.980469 241.996094 171.511719 241.527344 C 171.042969 241.0625 170.617188 240.5625 170.230469 240.027344 C 169.84375 239.496094 169.5 238.933594 169.203125 238.34375 C 168.90625 237.753906 168.660156 237.144531 168.460938 236.515625 C 168.261719 235.886719 168.113281 235.246094 168.019531 234.589844 C 167.921875 233.9375 167.878906 233.28125 167.890625 232.621094 C 167.898438 231.960938 167.960938 231.308594 168.078125 230.65625 Z M 168.089844 230.65625 " fill-opacity="1" fill-rule="nonzero"/><g clip-path="url(#582dce3d39)"><path fill="#000000" d="M 144.050781 82.53125 C 144.992188 82.085938 145.953125 81.6875 146.933594 81.339844 C 147.914062 80.988281 148.910156 80.6875 149.921875 80.4375 C 150.929688 80.183594 151.949219 79.980469 152.980469 79.828125 C 154.007812 79.675781 155.042969 79.574219 156.082031 79.527344 C 157.121094 79.476562 158.164062 79.476562 159.203125 79.527344 C 160.242188 79.578125 161.277344 79.679688 162.304688 79.835938 C 163.335938 79.988281 164.355469 80.191406 165.363281 80.445312 C 166.375 80.695312 167.367188 81 168.347656 81.347656 C 169.328125 81.699219 170.289062 82.097656 171.230469 82.542969 C 172.171875 82.988281 173.085938 83.476562 173.980469 84.011719 C 174.875 84.546875 175.738281 85.125 176.574219 85.746094 C 177.410156 86.367188 178.214844 87.023438 178.988281 87.722656 C 179.757812 88.421875 180.492188 89.15625 181.195312 89.929688 C 181.894531 90.699219 182.554688 91.503906 183.175781 92.339844 C 183.796875 93.175781 184.375 94.039062 184.910156 94.929688 C 185.445312 95.824219 185.9375 96.742188 186.382812 97.679688 L 205.785156 138.777344 C 205.910156 139.042969 206.058594 139.296875 206.234375 139.535156 C 206.410156 139.769531 206.605469 139.988281 206.820312 140.1875 C 207.039062 140.386719 207.273438 140.5625 207.523438 140.71875 C 207.777344 140.871094 208.039062 141 208.316406 141.101562 C 208.59375 141.203125 208.875 141.277344 209.167969 141.324219 C 209.457031 141.371094 209.75 141.390625 210.042969 141.382812 C 210.339844 141.371094 210.628906 141.332031 210.914062 141.265625 C 211.203125 141.199219 211.480469 141.105469 211.75 140.988281 L 236.648438 129.847656 C 236.925781 129.726562 237.1875 129.578125 237.433594 129.402344 C 237.679688 129.226562 237.910156 129.03125 238.117188 128.808594 C 238.324219 128.589844 238.507812 128.347656 238.667969 128.09375 C 238.828125 127.835938 238.960938 127.5625 239.066406 127.28125 C 239.171875 126.996094 239.25 126.703125 239.296875 126.40625 C 239.34375 126.105469 239.363281 125.804688 239.347656 125.5 C 239.335938 125.199219 239.292969 124.898438 239.222656 124.605469 C 239.148438 124.3125 239.046875 124.027344 238.917969 123.753906 L 219.246094 82.117188 C 218.769531 81.105469 218.269531 80.109375 217.742188 79.125 C 217.214844 78.140625 216.667969 77.171875 216.09375 76.214844 C 215.519531 75.257812 214.921875 74.3125 214.304688 73.386719 C 213.683594 72.457031 213.042969 71.542969 212.378906 70.648438 C 211.714844 69.75 211.027344 68.871094 210.320312 68.007812 C 209.613281 67.148438 208.882812 66.300781 208.136719 65.476562 C 207.386719 64.648438 206.617188 63.839844 205.828125 63.050781 C 205.039062 62.261719 204.234375 61.492188 203.40625 60.742188 C 202.578125 59.992188 201.734375 59.261719 200.875 58.554688 C 200.011719 57.847656 199.132812 57.160156 198.238281 56.496094 C 197.339844 55.832031 196.429688 55.1875 195.5 54.566406 C 194.574219 53.949219 193.632812 53.351562 192.675781 52.777344 C 191.71875 52.203125 190.75 51.652344 189.765625 51.128906 C 188.78125 50.601562 187.785156 50.097656 186.777344 49.621094 C 185.769531 49.144531 184.75 48.691406 183.71875 48.265625 C 182.6875 47.835938 181.648438 47.4375 180.597656 47.058594 C 179.546875 46.683594 178.488281 46.332031 177.421875 46.011719 C 176.355469 45.6875 175.28125 45.386719 174.199219 45.117188 C 173.117188 44.84375 172.027344 44.601562 170.933594 44.382812 C 169.839844 44.164062 168.742188 43.972656 167.636719 43.808594 C 166.535156 43.648438 165.425781 43.511719 164.316406 43.402344 C 163.207031 43.289062 162.09375 43.207031 160.980469 43.152344 C 159.867188 43.097656 158.753906 43.070312 157.636719 43.070312 C 156.523438 43.070312 155.40625 43.097656 154.292969 43.152344 C 153.179688 43.207031 152.066406 43.289062 150.957031 43.398438 C 149.847656 43.507812 148.738281 43.644531 147.636719 43.808594 C 146.53125 43.972656 145.433594 44.164062 144.339844 44.378906 C 143.246094 44.597656 142.15625 44.84375 141.074219 45.113281 C 139.992188 45.382812 138.917969 45.683594 137.851562 46.007812 C 136.785156 46.328125 135.726562 46.679688 134.675781 47.054688 C 133.625 47.429688 132.585938 47.832031 131.554688 48.261719 C 130.523438 48.6875 129.503906 49.140625 128.496094 49.617188 C 127.488281 50.09375 126.492188 50.59375 125.507812 51.121094 C 124.523438 51.648438 123.554688 52.195312 122.597656 52.769531 C 121.640625 53.34375 120.699219 53.941406 119.769531 54.5625 C 118.84375 55.179688 117.929688 55.824219 117.035156 56.488281 C 116.140625 57.152344 115.257812 57.839844 114.398438 58.546875 C 113.535156 59.253906 112.691406 59.984375 111.863281 60.734375 C 111.039062 61.484375 110.230469 62.25 109.441406 63.039062 C 108.652344 63.828125 107.882812 64.636719 107.132812 65.464844 C 106.386719 66.292969 105.65625 67.136719 104.949219 68 C 104.242188 68.863281 103.554688 69.742188 102.890625 70.636719 C 102.226562 71.535156 101.582031 72.445312 100.964844 73.375 C 100.34375 74.300781 99.746094 75.246094 99.175781 76.203125 C 98.601562 77.160156 98.050781 78.128906 97.523438 79.113281 C 97 80.097656 96.496094 81.09375 96.019531 82.105469 C 95.542969 83.113281 95.089844 84.132812 94.664062 85.164062 C 94.238281 86.195312 93.835938 87.234375 93.460938 88.285156 C 93.085938 89.335938 92.734375 90.398438 92.410156 91.464844 C 92.085938 92.53125 91.789062 93.609375 91.519531 94.691406 C 91.246094 95.773438 91.003906 96.863281 90.785156 97.957031 C 90.566406 99.050781 90.375 100.148438 90.210938 101.253906 C 90.046875 102.359375 89.910156 103.464844 89.800781 104.578125 C 89.691406 105.6875 89.609375 106.800781 89.554688 107.914062 C 89.5 109.027344 89.472656 110.144531 89.472656 111.261719 C 89.472656 112.375 89.5 113.492188 89.554688 114.605469 C 89.609375 115.722656 89.691406 116.835938 89.800781 117.945312 C 89.910156 119.054688 90.046875 120.164062 90.210938 121.265625 C 90.375 122.371094 90.566406 123.46875 90.78125 124.566406 C 91 125.660156 91.242188 126.75 91.515625 127.832031 C 91.785156 128.914062 92.082031 129.988281 92.40625 131.058594 C 92.730469 132.125 93.078125 133.183594 93.457031 134.234375 C 93.832031 135.285156 94.234375 136.328125 94.660156 137.359375 C 95.085938 138.390625 95.539062 139.410156 96.015625 140.417969 L 113.066406 176.515625 C 112.007812 176.925781 110.984375 177.414062 109.996094 177.976562 C 109.011719 178.542969 108.074219 179.179688 107.179688 179.882812 C 106.289062 180.589844 105.457031 181.359375 104.679688 182.1875 C 103.90625 183.019531 103.195312 183.902344 102.554688 184.839844 C 101.910156 185.777344 101.339844 186.757812 100.84375 187.78125 C 100.347656 188.804688 99.929688 189.859375 99.59375 190.945312 C 99.253906 192.027344 99 193.132812 98.828125 194.257812 C 98.652344 195.382812 98.566406 196.511719 98.5625 197.648438 L 98.5625 311.300781 C 98.5625 312.042969 98.601562 312.785156 98.675781 313.527344 C 98.75 314.265625 98.859375 315.003906 99.003906 315.730469 C 99.148438 316.460938 99.332031 317.183594 99.546875 317.894531 C 99.765625 318.605469 100.015625 319.304688 100.300781 319.992188 C 100.585938 320.679688 100.902344 321.351562 101.253906 322.007812 C 101.605469 322.664062 101.988281 323.304688 102.402344 323.921875 C 102.8125 324.539062 103.257812 325.136719 103.726562 325.710938 C 104.199219 326.289062 104.699219 326.839844 105.226562 327.363281 C 105.75 327.890625 106.300781 328.390625 106.875 328.863281 C 107.453125 329.335938 108.046875 329.777344 108.667969 330.191406 C 109.285156 330.605469 109.921875 330.988281 110.578125 331.339844 C 111.234375 331.6875 111.90625 332.007812 112.589844 332.292969 C 113.277344 332.578125 113.976562 332.828125 114.6875 333.046875 C 115.402344 333.261719 116.121094 333.441406 116.851562 333.589844 C 117.578125 333.734375 118.316406 333.84375 119.054688 333.917969 C 119.796875 333.992188 120.535156 334.027344 121.28125 334.03125 L 239.410156 334.03125 C 240.152344 334.027344 240.894531 333.992188 241.636719 333.917969 C 242.375 333.84375 243.109375 333.734375 243.839844 333.589844 C 244.570312 333.441406 245.289062 333.261719 246 333.046875 C 246.710938 332.828125 247.410156 332.578125 248.097656 332.292969 C 248.785156 332.007812 249.457031 331.6875 250.113281 331.339844 C 250.769531 330.988281 251.40625 330.605469 252.023438 330.191406 C 252.644531 329.777344 253.238281 329.335938 253.8125 328.863281 C 254.390625 328.390625 254.9375 327.890625 255.464844 327.363281 C 255.992188 326.839844 256.488281 326.289062 256.960938 325.710938 C 257.433594 325.136719 257.875 324.539062 258.289062 323.921875 C 258.703125 323.304688 259.085938 322.664062 259.4375 322.007812 C 259.789062 321.351562 260.105469 320.679688 260.390625 319.992188 C 260.675781 319.304688 260.925781 318.605469 261.144531 317.894531 C 261.359375 317.183594 261.539062 316.460938 261.6875 315.730469 C 261.832031 315.003906 261.941406 314.265625 262.015625 313.527344 C 262.089844 312.785156 262.125 312.042969 262.128906 311.300781 L 262.128906 197.648438 C 262.125 196.90625 262.089844 196.164062 262.015625 195.421875 C 261.941406 194.679688 261.832031 193.945312 261.6875 193.214844 C 261.539062 192.488281 261.359375 191.765625 261.144531 191.054688 C 260.925781 190.339844 260.675781 189.640625 260.390625 188.953125 C 260.105469 188.265625 259.789062 187.59375 259.4375 186.9375 C 259.085938 186.28125 258.703125 185.644531 258.289062 185.027344 C 257.875 184.410156 257.433594 183.8125 256.960938 183.234375 C 256.488281 182.660156 255.992188 182.109375 255.464844 181.585938 C 254.9375 181.058594 254.390625 180.558594 253.8125 180.085938 C 253.238281 179.613281 252.644531 179.171875 252.023438 178.757812 C 251.40625 178.34375 250.769531 177.960938 250.113281 177.609375 C 249.457031 177.257812 248.785156 176.941406 248.097656 176.65625 C 247.410156 176.371094 246.710938 176.121094 246 175.902344 C 245.289062 175.6875 244.570312 175.503906 243.839844 175.359375 C 243.109375 175.214844 242.375 175.105469 241.636719 175.03125 C 240.894531 174.957031 240.152344 174.917969 239.410156 174.917969 L 152.492188 174.917969 L 128.867188 124.914062 C 128.425781 123.96875 128.03125 123.007812 127.679688 122.023438 C 127.332031 121.042969 127.03125 120.046875 126.78125 119.035156 C 126.53125 118.023438 126.328125 117.003906 126.179688 115.972656 C 126.027344 114.941406 125.925781 113.90625 125.878906 112.863281 C 125.828125 111.824219 125.828125 110.785156 125.882812 109.742188 C 125.933594 108.703125 126.039062 107.667969 126.191406 106.636719 C 126.347656 105.605469 126.550781 104.585938 126.804688 103.574219 C 127.058594 102.5625 127.363281 101.570312 127.714844 100.585938 C 128.066406 99.605469 128.464844 98.644531 128.910156 97.703125 C 129.355469 96.761719 129.847656 95.84375 130.382812 94.953125 C 130.917969 94.058594 131.496094 93.195312 132.117188 92.355469 C 132.738281 91.519531 133.398438 90.714844 134.097656 89.945312 C 134.796875 89.171875 135.53125 88.4375 136.304688 87.738281 C 137.074219 87.035156 137.878906 86.375 138.714844 85.753906 C 139.550781 85.136719 140.417969 84.554688 141.308594 84.019531 C 142.203125 83.484375 143.121094 82.992188 144.0625 82.546875 Z M 253.039062 197.648438 L 253.039062 311.300781 C 253.039062 312.195312 252.953125 313.082031 252.777344 313.960938 C 252.605469 314.839844 252.34375 315.691406 252.003906 316.519531 C 251.660156 317.347656 251.238281 318.132812 250.742188 318.875 C 250.246094 319.621094 249.679688 320.308594 249.046875 320.941406 C 248.414062 321.578125 247.726562 322.140625 246.980469 322.640625 C 246.238281 323.136719 245.453125 323.558594 244.625 323.898438 C 243.800781 324.242188 242.945312 324.5 242.070312 324.675781 C 241.191406 324.851562 240.304688 324.9375 239.410156 324.9375 L 121.28125 324.9375 C 120.386719 324.9375 119.5 324.851562 118.621094 324.675781 C 117.742188 324.5 116.890625 324.242188 116.066406 323.898438 C 115.238281 323.558594 114.453125 323.136719 113.707031 322.640625 C 112.964844 322.140625 112.277344 321.578125 111.644531 320.941406 C 111.007812 320.308594 110.445312 319.621094 109.949219 318.875 C 109.449219 318.132812 109.03125 317.347656 108.6875 316.519531 C 108.34375 315.691406 108.085938 314.839844 107.914062 313.960938 C 107.738281 313.082031 107.648438 312.195312 107.648438 311.300781 L 107.648438 197.648438 C 107.648438 196.753906 107.738281 195.867188 107.914062 194.988281 C 108.085938 194.109375 108.34375 193.257812 108.6875 192.429688 C 109.03125 191.601562 109.449219 190.816406 109.949219 190.070312 C 110.445312 189.328125 111.007812 188.636719 111.644531 188.003906 C 112.277344 187.371094 112.964844 186.804688 113.707031 186.308594 C 114.453125 185.8125 115.238281 185.390625 116.066406 185.046875 C 116.890625 184.707031 117.742188 184.449219 118.621094 184.273438 C 119.5 184.097656 120.386719 184.011719 121.28125 184.011719 L 239.410156 184.011719 C 240.304688 184.011719 241.191406 184.097656 242.070312 184.273438 C 242.945312 184.449219 243.800781 184.707031 244.625 185.046875 C 245.453125 185.390625 246.238281 185.8125 246.980469 186.308594 C 247.726562 186.804688 248.414062 187.371094 249.046875 188.003906 C 249.679688 188.636719 250.246094 189.328125 250.742188 190.070312 C 251.238281 190.816406 251.660156 191.601562 252.003906 192.429688 C 252.34375 193.257812 252.605469 194.109375 252.777344 194.988281 C 252.953125 195.867188 253.039062 196.753906 253.039062 197.648438 Z M 119.148438 97.5 C 118.234375 100.027344 117.578125 102.617188 117.175781 105.277344 C 116.773438 107.933594 116.636719 110.605469 116.765625 113.289062 C 116.894531 115.972656 117.285156 118.621094 117.9375 121.226562 C 118.589844 123.835938 119.488281 126.351562 120.640625 128.78125 L 142.445312 174.917969 L 122.367188 174.917969 L 104.234375 136.53125 C 103.445312 134.789062 102.746094 133.007812 102.128906 131.195312 C 101.515625 129.382812 100.988281 127.546875 100.554688 125.683594 C 100.117188 123.820312 99.773438 121.9375 99.519531 120.042969 C 99.265625 118.144531 99.101562 116.242188 99.035156 114.328125 C 98.964844 112.414062 98.988281 110.503906 99.105469 108.59375 C 99.222656 106.683594 99.433594 104.78125 99.734375 102.890625 C 100.035156 101.003906 100.425781 99.132812 100.910156 97.277344 C 101.394531 95.425781 101.964844 93.601562 102.625 91.804688 C 103.285156 90.011719 104.03125 88.25 104.859375 86.527344 C 105.691406 84.800781 106.605469 83.121094 107.597656 81.488281 C 108.59375 79.851562 109.664062 78.269531 110.8125 76.738281 C 111.960938 75.207031 113.179688 73.734375 114.46875 72.324219 C 115.761719 70.910156 117.117188 69.5625 118.539062 68.28125 C 119.960938 67.003906 121.441406 65.792969 122.980469 64.65625 C 124.519531 63.519531 126.109375 62.460938 127.75 61.476562 C 129.390625 60.496094 131.078125 59.59375 132.804688 58.777344 C 134.535156 57.957031 136.300781 57.226562 138.101562 56.578125 C 139.902344 55.933594 141.730469 55.375 143.582031 54.90625 C 145.4375 54.4375 147.3125 54.058594 149.203125 53.769531 C 151.09375 53.484375 152.992188 53.289062 154.902344 53.1875 C 156.8125 53.085938 158.726562 53.074219 160.636719 53.160156 C 162.546875 53.242188 164.449219 53.417969 166.34375 53.6875 C 168.238281 53.957031 170.113281 54.316406 171.972656 54.765625 C 173.832031 55.214844 175.664062 55.757812 177.472656 56.386719 C 179.277344 57.015625 181.050781 57.730469 182.785156 58.53125 C 184.523438 59.332031 186.21875 60.214844 187.871094 61.179688 C 189.519531 62.148438 191.121094 63.191406 192.671875 64.3125 C 194.222656 65.433594 195.714844 66.628906 197.148438 67.894531 C 198.582031 69.160156 199.953125 70.496094 201.257812 71.894531 C 202.5625 73.292969 203.792969 74.753906 204.957031 76.273438 C 206.121094 77.792969 207.207031 79.367188 208.21875 80.992188 C 209.226562 82.617188 210.15625 84.285156 211.003906 86.003906 L 228.695312 123.445312 L 212.09375 130.871094 L 194.59375 93.792969 C 193.734375 91.976562 192.746094 90.230469 191.628906 88.5625 C 190.507812 86.890625 189.277344 85.308594 187.925781 83.820312 C 186.574219 82.328125 185.121094 80.945312 183.570312 79.671875 C 182.015625 78.394531 180.375 77.242188 178.652344 76.207031 C 176.925781 75.175781 175.136719 74.273438 173.28125 73.503906 C 171.421875 72.734375 169.519531 72.105469 167.570312 71.617188 C 165.621094 71.128906 163.644531 70.785156 161.644531 70.589844 C 159.644531 70.390625 157.640625 70.34375 155.632812 70.441406 C 153.625 70.539062 151.636719 70.785156 149.664062 71.175781 C 147.695312 71.570312 145.761719 72.105469 143.867188 72.78125 C 141.976562 73.457031 140.144531 74.269531 138.371094 75.21875 C 136.597656 76.164062 134.902344 77.238281 133.289062 78.4375 C 131.675781 79.632812 130.15625 80.941406 128.734375 82.363281 C 127.3125 83.785156 126.003906 85.304688 124.804688 86.917969 C 123.605469 88.535156 122.535156 90.226562 121.585938 92 C 120.636719 93.773438 119.824219 95.605469 119.144531 97.5 Z M 119.148438 97.5 " fill-opacity="1" fill-rule="nonzero"/></g><path fill="#000000" d="M 248.496094 106.726562 L 248.496094 83.996094 C 248.496094 83.699219 248.46875 83.402344 248.410156 83.109375 C 248.351562 82.816406 248.265625 82.535156 248.152344 82.257812 C 248.035156 81.980469 247.898438 81.71875 247.730469 81.472656 C 247.566406 81.222656 247.375 80.996094 247.164062 80.785156 C 246.953125 80.570312 246.726562 80.382812 246.476562 80.21875 C 246.230469 80.050781 245.96875 79.910156 245.691406 79.796875 C 245.417969 79.683594 245.132812 79.597656 244.839844 79.539062 C 244.546875 79.480469 244.25 79.453125 243.953125 79.453125 C 243.65625 79.453125 243.359375 79.480469 243.066406 79.539062 C 242.773438 79.597656 242.488281 79.683594 242.214844 79.796875 C 241.9375 79.910156 241.675781 80.050781 241.429688 80.21875 C 241.179688 80.382812 240.953125 80.570312 240.742188 80.785156 C 240.53125 80.996094 240.339844 81.222656 240.175781 81.472656 C 240.007812 81.71875 239.871094 81.980469 239.753906 82.257812 C 239.640625 82.535156 239.554688 82.816406 239.496094 83.109375 C 239.4375 83.402344 239.410156 83.699219 239.410156 83.996094 L 239.410156 106.726562 C 239.410156 107.027344 239.4375 107.320312 239.496094 107.613281 C 239.554688 107.90625 239.640625 108.191406 239.753906 108.46875 C 239.871094 108.742188 240.007812 109.003906 240.175781 109.253906 C 240.339844 109.5 240.53125 109.730469 240.742188 109.941406 C 240.953125 110.152344 241.179688 110.34375 241.429688 110.507812 C 241.675781 110.671875 241.9375 110.8125 242.214844 110.929688 C 242.488281 111.042969 242.773438 111.128906 243.066406 111.1875 C 243.359375 111.246094 243.65625 111.273438 243.953125 111.273438 C 244.25 111.273438 244.546875 111.246094 244.839844 111.1875 C 245.132812 111.128906 245.417969 111.042969 245.691406 110.929688 C 245.96875 110.8125 246.230469 110.671875 246.476562 110.507812 C 246.726562 110.34375 246.953125 110.152344 247.164062 109.941406 C 247.375 109.730469 247.566406 109.5 247.730469 109.253906 C 247.898438 109.003906 248.035156 108.742188 248.152344 108.46875 C 248.265625 108.191406 248.351562 107.90625 248.410156 107.613281 C 248.46875 107.320312 248.496094 107.027344 248.496094 106.726562 Z M 248.496094 106.726562 " fill-opacity="1" fill-rule="nonzero"/><path fill="#000000" d="M 272.546875 89.875 L 254.371094 108.058594 C 254.15625 108.269531 253.960938 108.5 253.789062 108.746094 C 253.617188 108.996094 253.472656 109.257812 253.351562 109.535156 C 253.234375 109.8125 253.144531 110.097656 253.082031 110.394531 C 253.019531 110.691406 252.988281 110.988281 252.984375 111.289062 C 252.980469 111.59375 253.007812 111.890625 253.066406 112.1875 C 253.121094 112.484375 253.207031 112.773438 253.324219 113.050781 C 253.4375 113.332031 253.578125 113.597656 253.746094 113.847656 C 253.910156 114.097656 254.101562 114.332031 254.316406 114.542969 C 254.527344 114.757812 254.761719 114.949219 255.011719 115.113281 C 255.261719 115.28125 255.527344 115.421875 255.808594 115.539062 C 256.085938 115.652344 256.375 115.738281 256.671875 115.792969 C 256.964844 115.851562 257.265625 115.878906 257.566406 115.875 C 257.867188 115.875 258.167969 115.839844 258.460938 115.777344 C 258.757812 115.714844 259.042969 115.625 259.320312 115.507812 C 259.597656 115.386719 259.859375 115.242188 260.109375 115.070312 C 260.355469 114.898438 260.585938 114.707031 260.796875 114.488281 L 278.96875 96.304688 C 279.175781 96.089844 279.355469 95.863281 279.515625 95.613281 C 279.675781 95.367188 279.8125 95.105469 279.921875 94.832031 C 280.03125 94.554688 280.113281 94.273438 280.167969 93.984375 C 280.222656 93.695312 280.246094 93.402344 280.246094 93.105469 C 280.242188 92.8125 280.210938 92.519531 280.152344 92.230469 C 280.09375 91.941406 280.003906 91.660156 279.890625 91.386719 C 279.777344 91.117188 279.636719 90.855469 279.472656 90.613281 C 279.308594 90.367188 279.121094 90.140625 278.914062 89.929688 C 278.707031 89.722656 278.480469 89.535156 278.234375 89.371094 C 277.988281 89.207031 277.730469 89.066406 277.457031 88.953125 C 277.1875 88.839844 276.90625 88.753906 276.617188 88.691406 C 276.328125 88.632812 276.035156 88.601562 275.742188 88.601562 C 275.445312 88.597656 275.152344 88.625 274.863281 88.675781 C 274.574219 88.730469 274.292969 88.8125 274.019531 88.921875 C 273.742188 89.03125 273.484375 89.167969 273.234375 89.328125 C 272.988281 89.488281 272.757812 89.671875 272.546875 89.875 Z M 272.546875 89.875 " fill-opacity="1" fill-rule="nonzero"/><g clip-path="url(#24df7d4e0c)"><path fill="#000000" d="M 262.128906 124.914062 C 262.125 125.210938 262.15625 125.507812 262.214844 125.800781 C 262.273438 126.09375 262.359375 126.375 262.472656 126.652344 C 262.585938 126.925781 262.726562 127.191406 262.894531 127.4375 C 263.058594 127.6875 263.246094 127.914062 263.457031 128.125 C 263.667969 128.335938 263.898438 128.527344 264.144531 128.691406 C 264.394531 128.859375 264.65625 128.996094 264.933594 129.113281 C 265.207031 129.226562 265.492188 129.3125 265.785156 129.371094 C 266.078125 129.429688 266.371094 129.457031 266.671875 129.457031 L 284.84375 129.457031 C 285.140625 129.457031 285.4375 129.429688 285.730469 129.371094 C 286.023438 129.3125 286.308594 129.226562 286.582031 129.113281 C 286.859375 128.996094 287.121094 128.859375 287.367188 128.691406 C 287.617188 128.527344 287.847656 128.335938 288.058594 128.125 C 288.269531 127.914062 288.457031 127.6875 288.621094 127.4375 C 288.789062 127.191406 288.925781 126.925781 289.042969 126.652344 C 289.15625 126.375 289.242188 126.09375 289.300781 125.800781 C 289.359375 125.507812 289.386719 125.210938 289.386719 124.914062 C 289.386719 124.613281 289.359375 124.316406 289.300781 124.023438 C 289.242188 123.734375 289.15625 123.449219 289.042969 123.171875 C 288.925781 122.898438 288.789062 122.632812 288.621094 122.386719 C 288.457031 122.136719 288.269531 121.910156 288.058594 121.699219 C 287.847656 121.488281 287.617188 121.296875 287.367188 121.132812 C 287.121094 120.964844 286.859375 120.828125 286.582031 120.710938 C 286.308594 120.597656 286.023438 120.511719 285.730469 120.453125 C 285.4375 120.394531 285.140625 120.367188 284.84375 120.367188 L 266.671875 120.367188 C 266.371094 120.367188 266.078125 120.394531 265.785156 120.453125 C 265.492188 120.511719 265.207031 120.597656 264.933594 120.710938 C 264.65625 120.828125 264.394531 120.964844 264.144531 121.132812 C 263.898438 121.296875 263.667969 121.488281 263.457031 121.699219 C 263.246094 121.910156 263.058594 122.136719 262.894531 122.386719 C 262.726562 122.632812 262.585938 122.898438 262.472656 123.171875 C 262.359375 123.449219 262.273438 123.734375 262.214844 124.023438 C 262.15625 124.316406 262.125 124.613281 262.128906 124.914062 Z M 262.128906 124.914062 " fill-opacity="1" fill-rule="nonzero"/></g></svg>