<svg xmlns="http://www.w3.org/2000/svg" xmlns:xlink="http://www.w3.org/1999/xlink" width="500" zoomAndPan="magnify" viewBox="0 0 375 374.999991" height="500" preserveAspectRatio="xMidYMid meet" version="1.0"><defs><clipPath id="806e1081b7"><path d="M 49 198 L 148 198 L 148 337.472656 L 49 337.472656 Z M 49 198 " clip-rule="nonzero"/></clipPath><clipPath id="7283ec2486"><path d="M 202.699219 36 L 363 36 L 363 220 L 202.699219 220 Z M 202.699219 36 " clip-rule="nonzero"/></clipPath></defs><path fill="#000000" d="M 158.683594 278.320312 L 177.128906 317.511719 L 183.777344 314.378906 L 166.523438 277.71875 C 164.859375 278.226562 163.125 278.523438 161.34375 278.523438 C 160.449219 278.523438 159.558594 278.453125 158.683594 278.320312 Z M 158.683594 278.320312 " fill-opacity="1" fill-rule="nonzero"/><g clip-path="url(#806e1081b7)"><path fill="#000000" d="M 143.933594 264.300781 L 131.15625 266.03125 L 108.234375 274.058594 L 55.730469 198.382812 L 49.691406 202.574219 L 104.652344 281.792969 L 117.878906 337.457031 L 125.027344 335.757812 L 112.695312 283.855469 L 147.363281 271.71875 C 145.636719 269.519531 144.484375 266.972656 143.933594 264.300781 Z M 143.933594 264.300781 " fill-opacity="1" fill-rule="nonzero"/></g><path fill="#000000" d="M 63.054688 156.054688 C 71.453125 168.75 88.550781 172.230469 101.242188 163.828125 C 113.933594 155.425781 117.410156 138.320312 109.007812 125.625 C 100.609375 112.929688 83.515625 109.449219 70.824219 117.855469 C 58.132812 126.257812 54.652344 143.359375 63.054688 156.054688 Z M 105.425781 138.996094 C 105.640625 145.777344 102.46875 152.515625 96.410156 156.527344 C 90.351562 160.535156 82.914062 160.824219 76.757812 157.980469 Z M 105.425781 138.996094 " fill-opacity="1" fill-rule="nonzero"/><path fill="#000000" d="M 201.195312 235.171875 L 182.640625 261.449219 L 223.445312 316.144531 C 227.296875 321.269531 233.746094 323.289062 239.582031 321.75 C 241.445312 321.261719 243.246094 320.40625 244.882812 319.175781 C 251.636719 314.09375 252.992188 304.492188 247.910156 297.734375 Z M 201.195312 235.171875 " fill-opacity="1" fill-rule="nonzero"/><path fill="#000000" d="M 146.800781 250.410156 L 162.628906 227.996094 L 136.964844 231.441406 L 138.34375 228.472656 L 164.828125 224.882812 L 174.65625 210.957031 L 177.40625 211.949219 L 149.101562 252.035156 C 144.324219 258.808594 145.933594 268.171875 152.699219 272.953125 C 155.332031 274.8125 158.351562 275.703125 161.34375 275.703125 C 166.050781 275.703125 170.6875 273.492188 173.609375 269.351562 L 206.671875 222.523438 L 214.84375 210.953125 C 214.890625 210.886719 214.929688 210.8125 214.976562 210.742188 C 215.132812 210.511719 215.277344 210.277344 215.421875 210.039062 C 215.539062 209.839844 215.660156 209.644531 215.769531 209.441406 C 215.882812 209.234375 215.988281 209.019531 216.089844 208.800781 C 216.203125 208.566406 216.316406 208.332031 216.417969 208.09375 C 216.5 207.902344 216.570312 207.699219 216.644531 207.503906 C 216.742188 207.246094 216.839844 206.984375 216.917969 206.722656 C 216.980469 206.519531 217.03125 206.3125 217.085938 206.109375 C 217.152344 205.851562 217.222656 205.589844 217.277344 205.328125 C 217.324219 205.09375 217.359375 204.859375 217.394531 204.625 C 217.433594 204.386719 217.472656 204.152344 217.5 203.914062 C 217.527344 203.648438 217.539062 203.382812 217.554688 203.113281 C 217.566406 202.902344 217.582031 202.691406 217.585938 202.480469 C 217.589844 202.203125 217.574219 201.925781 217.5625 201.648438 C 217.554688 201.4375 217.546875 201.230469 217.53125 201.019531 C 217.507812 200.757812 217.472656 200.5 217.4375 200.238281 C 217.402344 200.007812 217.371094 199.773438 217.328125 199.539062 C 217.285156 199.3125 217.230469 199.082031 217.175781 198.855469 C 217.113281 198.589844 217.050781 198.324219 216.972656 198.058594 C 216.949219 197.976562 216.933594 197.894531 216.910156 197.8125 C 216.867188 197.6875 216.816406 197.574219 216.773438 197.449219 C 216.679688 197.179688 216.582031 196.910156 216.476562 196.640625 C 216.394531 196.441406 216.308594 196.246094 216.21875 196.050781 C 216.105469 195.800781 215.984375 195.554688 215.855469 195.308594 C 215.75 195.109375 215.640625 194.914062 215.527344 194.722656 C 215.398438 194.496094 215.257812 194.273438 215.113281 194.050781 C 214.984375 193.855469 214.855469 193.664062 214.71875 193.476562 C 214.566406 193.273438 214.414062 193.074219 214.253906 192.875 C 214.101562 192.6875 213.945312 192.503906 213.785156 192.324219 C 213.625 192.140625 213.457031 191.960938 213.28125 191.785156 C 213.105469 191.605469 212.925781 191.433594 212.738281 191.261719 C 212.5625 191.101562 212.386719 190.945312 212.203125 190.789062 C 212 190.621094 211.796875 190.464844 211.585938 190.304688 C 211.46875 190.21875 211.363281 190.121094 211.242188 190.035156 C 211.164062 189.980469 211.082031 189.9375 211 189.882812 C 210.800781 189.746094 210.59375 189.621094 210.386719 189.496094 C 210.160156 189.355469 209.933594 189.21875 209.699219 189.09375 C 209.527344 189 209.347656 188.914062 209.167969 188.828125 C 208.898438 188.695312 208.628906 188.5625 208.351562 188.445312 C 208.199219 188.382812 208.046875 188.328125 207.890625 188.273438 C 207.589844 188.15625 207.285156 188.042969 206.976562 187.949219 C 206.824219 187.902344 206.667969 187.867188 206.515625 187.824219 C 206.207031 187.738281 205.898438 187.65625 205.585938 187.59375 C 205.402344 187.554688 205.21875 187.53125 205.03125 187.5 C 204.746094 187.453125 204.464844 187.402344 204.175781 187.375 C 203.953125 187.351562 203.730469 187.339844 203.507812 187.328125 C 203.25 187.3125 203 187.292969 202.742188 187.289062 C 202.503906 187.289062 202.257812 187.300781 202.015625 187.308594 C 201.773438 187.320312 201.53125 187.324219 201.289062 187.347656 C 201.054688 187.367188 200.816406 187.402344 200.585938 187.433594 C 200.324219 187.46875 200.070312 187.503906 199.8125 187.550781 C 199.601562 187.589844 199.390625 187.644531 199.183594 187.691406 C 198.898438 187.757812 198.617188 187.828125 198.339844 187.910156 C 198.261719 187.933594 198.183594 187.945312 198.109375 187.96875 L 136.628906 207.207031 C 128.929688 193.21875 128.132812 179.996094 129.597656 164.171875 C 132.75 162.929688 136.175781 161.523438 139.609375 160.015625 C 157.6875 152.058594 169.289062 144.5 167.140625 133.46875 C 164.984375 122.378906 150.675781 120.886719 144.5625 120.253906 C 135.835938 119.347656 123.820312 119.234375 108.050781 119.921875 C 109.25 121.1875 110.363281 122.566406 111.359375 124.070312 C 114.457031 128.757812 116.082031 133.996094 116.347656 139.238281 C 125.746094 138.972656 132.617188 139.074219 137.613281 139.347656 C 131.515625 142.316406 123.585938 145.640625 115.367188 148.632812 C 113.53125 155.578125 109.246094 161.90625 102.796875 166.175781 C 91.851562 173.425781 77.882812 172.628906 67.90625 165.214844 C 67.742188 165.308594 67.578125 165.394531 67.421875 165.5 C 60.617188 169.9375 53.433594 174.1875 47.121094 177.59375 C 50.828125 173.078125 55.820312 167.335938 62.519531 160.074219 C 61.882812 159.289062 61.277344 158.46875 60.707031 157.609375 C 56.851562 151.78125 55.277344 145.097656 55.761719 138.613281 C 42.128906 152.980469 32.097656 164.5 25.914062 172.914062 C 21.167969 179.371094 12.332031 191.394531 19.625 200.25 C 22.242188 203.429688 25.691406 204.710938 29.679688 204.710938 C 37.355469 204.710938 47.015625 199.953125 56.546875 194.78125 C 59.152344 193.363281 61.707031 191.914062 64.101562 190.519531 C 73.050781 216.621094 86.578125 235.015625 105.578125 257.921875 C 106.417969 258.9375 107.367188 259.78125 108.371094 260.472656 C 111.613281 263.519531 116.144531 265.140625 120.894531 264.503906 L 121.648438 264.402344 L 143.578125 261.457031 C 143.414062 257.648438 144.441406 253.757812 146.800781 250.410156 Z M 146.800781 250.410156 " fill-opacity="1" fill-rule="nonzero"/><g clip-path="url(#7283ec2486)"><path fill="#000000" d="M 270.34375 36.261719 C 268.148438 36.308594 266.390625 38.109375 266.421875 40.296875 L 266.421875 64.15625 C 266.40625 65.585938 267.152344 66.921875 268.398438 67.652344 C 269.640625 68.367188 271.167969 68.367188 272.410156 67.652344 C 273.65625 66.921875 274.402344 65.585938 274.386719 64.15625 L 274.386719 40.296875 C 274.402344 39.226562 273.984375 38.1875 273.21875 37.425781 C 272.457031 36.664062 271.414062 36.246094 270.34375 36.261719 Z M 234.515625 48.21875 C 232.894531 48.21875 231.449219 49.199219 230.828125 50.691406 C 230.21875 52.195312 230.578125 53.90625 231.746094 55.039062 L 247.675781 70.945312 C 248.671875 71.984375 250.164062 72.40625 251.550781 72.03125 C 252.949219 71.675781 254.039062 70.585938 254.394531 69.1875 C 254.769531 67.808594 254.347656 66.316406 253.308594 65.320312 L 237.375 49.417969 C 236.628906 48.640625 235.601562 48.21875 234.515625 48.21875 Z M 306.171875 48.21875 C 305.128906 48.234375 304.148438 48.671875 303.433594 49.417969 L 287.5 65.320312 C 286.460938 66.316406 286.039062 67.808594 286.414062 69.1875 C 286.769531 70.585938 287.859375 71.675781 289.257812 72.03125 C 290.644531 72.40625 292.136719 71.984375 293.132812 70.945312 L 309.0625 55.039062 C 310.246094 53.890625 310.589844 52.148438 309.949219 50.644531 C 309.3125 49.121094 307.820312 48.15625 306.171875 48.21875 Z M 346.757812 56.203125 C 343.878906 56.203125 340.988281 57.308594 338.792969 59.496094 L 262.4375 135.730469 C 262.4375 135.730469 250.785156 113.84375 244.953125 108.003906 C 234.761719 97.832031 215.050781 92.859375 209.855469 98.050781 L 202.699219 105.179688 L 225.226562 127.667969 L 242.527344 179.46875 L 273.796875 210.691406 C 285.121094 222 303.480469 222 314.804688 210.691406 L 358.707031 166.859375 C 363.109375 162.460938 363.109375 155.347656 358.707031 150.953125 C 354.304688 146.558594 347.179688 146.558594 342.777344 150.953125 L 346.757812 146.976562 C 351.160156 142.582031 351.160156 135.46875 346.757812 131.070312 C 342.355469 126.675781 335.230469 126.675781 330.828125 131.070312 L 334.8125 127.09375 C 339.214844 122.699219 339.214844 115.585938 334.8125 111.1875 C 330.410156 106.792969 323.28125 106.792969 318.878906 111.1875 L 354.722656 75.402344 C 359.125 71.007812 359.125 63.894531 354.722656 59.496094 C 352.53125 57.308594 349.636719 56.203125 346.757812 56.203125 Z M 346.757812 56.203125 " fill-opacity="1" fill-rule="nonzero"/></g></svg>