<svg xmlns="http://www.w3.org/2000/svg" xmlns:xlink="http://www.w3.org/1999/xlink" width="500" zoomAndPan="magnify" viewBox="0 0 375 374.999991" height="500" preserveAspectRatio="xMidYMid meet" version="1.0"><defs><filter x="0%" y="0%" width="100%" height="100%" id="0743b38630"><feColorMatrix values="0 0 0 0 1 0 0 0 0 1 0 0 0 0 1 0 0 0 1 0" color-interpolation-filters="sRGB"/></filter><clipPath id="fcec81262d"><path d="M 89 156 L 209.03125 156 L 209.03125 337.203125 L 89 337.203125 Z M 89 156 " clip-rule="nonzero"/></clipPath><clipPath id="ba4c21e4bc"><path d="M 28.28125 148.203125 L 194 148.203125 L 194 332 L 28.28125 332 Z M 28.28125 148.203125 " clip-rule="nonzero"/></clipPath><clipPath id="1fe347b4b6"><path d="M 28.28125 189 L 102 189 L 102 332 L 28.28125 332 Z M 28.28125 189 " clip-rule="nonzero"/></clipPath><mask id="dea3a293c2"><g filter="url(#0743b38630)"><rect x="-37.5" width="450" fill="#000000" y="-37.499999" height="449.999989" fill-opacity="0.4"/></g></mask><clipPath id="93c04cdf20"><path d="M 0.398438 0.441406 L 137.441406 0.441406 L 137.441406 115 L 0.398438 115 Z M 0.398438 0.441406 " clip-rule="nonzero"/></clipPath><clipPath id="bfbfc66c95"><rect x="0" width="138" y="0" height="116"/></clipPath><clipPath id="6740257b48"><path d="M 81 76 L 165 76 L 165 233 L 81 233 Z M 81 76 " clip-rule="nonzero"/></clipPath><clipPath id="9c46cfddc5"><path d="M 209.3125 142.398438 L 84 232.769531 L 35.742188 165.855469 L 161.054688 75.484375 Z M 209.3125 142.398438 " clip-rule="nonzero"/></clipPath><clipPath id="cf184ff2d6"><path d="M 209.3125 142.398438 L 84 232.769531 L 35.742188 165.855469 L 161.054688 75.484375 Z M 209.3125 142.398438 " clip-rule="nonzero"/></clipPath><clipPath id="7e863729ed"><path d="M 209.3125 142.398438 L 84 232.769531 L 35.742188 165.855469 L 161.054688 75.484375 Z M 209.3125 142.398438 " clip-rule="nonzero"/></clipPath><clipPath id="a632b11ab7"><path d="M 155 71 L 166 71 L 166 75.226562 L 155 75.226562 Z M 155 71 " clip-rule="nonzero"/></clipPath><clipPath id="ef43090e03"><path d="M 149.421875 37 L 171.921875 37 L 171.921875 73 L 149.421875 73 Z M 149.421875 37 " clip-rule="nonzero"/></clipPath><clipPath id="56c9feff76"><path d="M 276 172 L 287 172 L 287 176.453125 L 276 176.453125 Z M 276 172 " clip-rule="nonzero"/></clipPath><clipPath id="30d36458b6"><path d="M 276 171 L 287 171 L 287 176.453125 L 276 176.453125 Z M 276 171 " clip-rule="nonzero"/></clipPath><clipPath id="09a49214b5"><path d="M 270.140625 138.203125 L 292.640625 138.203125 L 292.640625 174 L 270.140625 174 Z M 270.140625 138.203125 " clip-rule="nonzero"/></clipPath><clipPath id="37023c7f71"><path d="M 165 72 L 282 72 L 282 171 L 165 171 Z M 165 72 " clip-rule="nonzero"/></clipPath><clipPath id="fe39dfddb1"><path d="M 261.667969 56.1875 L 281.386719 169.992188 L 184.578125 186.765625 L 164.859375 72.960938 Z M 261.667969 56.1875 " clip-rule="nonzero"/></clipPath><clipPath id="1dd375929e"><path d="M 261.667969 56.1875 L 281.386719 169.992188 L 184.578125 186.765625 L 164.859375 72.960938 Z M 261.667969 56.1875 " clip-rule="nonzero"/></clipPath><clipPath id="220b3d314f"><path d="M 261.667969 56.1875 L 281.386719 169.992188 L 184.578125 186.765625 L 164.859375 72.960938 Z M 261.667969 56.1875 " clip-rule="nonzero"/></clipPath><clipPath id="b4487122eb"><path d="M 287 170 L 290 170 L 290 173 L 287 173 Z M 287 170 " clip-rule="nonzero"/></clipPath><clipPath id="931fbf8404"><path d="M 306.65625 164.171875 L 346.714844 273.300781 L 269.269531 301.730469 L 229.207031 192.601562 Z M 306.65625 164.171875 " clip-rule="nonzero"/></clipPath><clipPath id="e7ad63f066"><path d="M 306.65625 164.171875 L 346.714844 273.300781 L 269.269531 301.730469 L 229.207031 192.601562 Z M 306.65625 164.171875 " clip-rule="nonzero"/></clipPath><clipPath id="63e523c59c"><path d="M 267 171 L 318 171 L 318 297 L 267 297 Z M 267 171 " clip-rule="nonzero"/></clipPath><clipPath id="26d4d30b04"><path d="M 306.65625 164.171875 L 346.714844 273.300781 L 269.269531 301.730469 L 229.207031 192.601562 Z M 306.65625 164.171875 " clip-rule="nonzero"/></clipPath><clipPath id="a9727a100e"><path d="M 306.65625 164.171875 L 346.714844 273.300781 L 269.269531 301.730469 L 229.207031 192.601562 Z M 306.65625 164.171875 " clip-rule="nonzero"/></clipPath><clipPath id="155ed1e983"><path d="M 270 298 L 273 298 L 273 301 L 270 301 Z M 270 298 " clip-rule="nonzero"/></clipPath><clipPath id="3247fa7877"><path d="M 306.65625 164.171875 L 346.714844 273.300781 L 269.269531 301.730469 L 229.207031 192.601562 Z M 306.65625 164.171875 " clip-rule="nonzero"/></clipPath><clipPath id="c1fbbf9a36"><path d="M 306.65625 164.171875 L 346.714844 273.300781 L 269.269531 301.730469 L 229.207031 192.601562 Z M 306.65625 164.171875 " clip-rule="nonzero"/></clipPath><clipPath id="4a4fe78ca4"><path d="M 265 302 L 276 302 L 276 306.449219 L 265 306.449219 Z M 265 302 " clip-rule="nonzero"/></clipPath><clipPath id="0853eae835"><path d="M 265 301 L 276 301 L 276 306.449219 L 265 306.449219 Z M 265 301 " clip-rule="nonzero"/></clipPath><clipPath id="343c9ddd0b"><path d="M 258.851562 268.199219 L 281.351562 268.199219 L 281.351562 304 L 258.851562 304 Z M 258.851562 268.199219 " clip-rule="nonzero"/></clipPath></defs><path fill="#ffffff" d="M 375 187.5 C 375 190.570312 374.925781 193.636719 374.773438 196.699219 C 374.625 199.765625 374.398438 202.824219 374.097656 205.878906 C 373.796875 208.933594 373.421875 211.976562 372.96875 215.011719 C 372.519531 218.046875 371.996094 221.070312 371.398438 224.078125 C 370.796875 227.089844 370.125 230.082031 369.378906 233.058594 C 368.636719 236.035156 367.816406 238.992188 366.925781 241.929688 C 366.035156 244.863281 365.074219 247.777344 364.039062 250.667969 C 363.003906 253.554688 361.902344 256.417969 360.726562 259.253906 C 359.554688 262.089844 358.308594 264.890625 356.996094 267.667969 C 355.6875 270.441406 354.304688 273.179688 352.859375 275.886719 C 351.414062 278.59375 349.902344 281.261719 348.324219 283.894531 C 346.746094 286.527344 345.105469 289.117188 343.402344 291.667969 C 341.695312 294.222656 339.929688 296.730469 338.101562 299.195312 C 336.273438 301.660156 334.386719 304.078125 332.4375 306.449219 C 330.492188 308.820312 328.488281 311.144531 326.429688 313.417969 C 324.367188 315.691406 322.253906 317.914062 320.082031 320.082031 C 317.914062 322.253906 315.691406 324.367188 313.417969 326.429688 C 311.144531 328.488281 308.820312 330.492188 306.449219 332.4375 C 304.078125 334.386719 301.660156 336.273438 299.195312 338.101562 C 296.730469 339.929688 294.222656 341.695312 291.667969 343.402344 C 289.117188 345.105469 286.527344 346.746094 283.894531 348.324219 C 281.261719 349.902344 278.59375 351.414062 275.886719 352.859375 C 273.179688 354.308594 270.441406 355.6875 267.667969 356.996094 C 264.890625 358.308594 262.089844 359.554688 259.253906 360.726562 C 256.417969 361.902344 253.554688 363.003906 250.667969 364.039062 C 247.777344 365.074219 244.863281 366.035156 241.929688 366.925781 C 238.992188 367.816406 236.035156 368.636719 233.058594 369.378906 C 230.082031 370.125 227.089844 370.796875 224.078125 371.398438 C 221.070312 371.996094 218.046875 372.519531 215.011719 372.96875 C 211.976562 373.421875 208.933594 373.796875 205.878906 374.097656 C 202.824219 374.398438 199.765625 374.625 196.699219 374.773438 C 193.636719 374.925781 190.570312 375 187.5 375 C 184.429688 375 181.363281 374.925781 178.300781 374.773438 C 175.234375 374.625 172.175781 374.398438 169.121094 374.097656 C 166.066406 373.796875 163.023438 373.421875 159.988281 372.96875 C 156.953125 372.519531 153.929688 371.996094 150.921875 371.398438 C 147.910156 370.796875 144.917969 370.125 141.941406 369.378906 C 138.964844 368.636719 136.007812 367.816406 133.070312 366.925781 C 130.136719 366.035156 127.222656 365.074219 124.332031 364.039062 C 121.445312 363.003906 118.582031 361.902344 115.746094 360.726562 C 112.910156 359.554688 110.105469 358.308594 107.332031 356.996094 C 104.558594 355.6875 101.820312 354.308594 99.113281 352.859375 C 96.40625 351.414062 93.738281 349.902344 91.105469 348.324219 C 88.472656 346.746094 85.882812 345.105469 83.332031 343.402344 C 80.777344 341.695312 78.269531 339.929688 75.804688 338.101562 C 73.339844 336.273438 70.921875 334.386719 68.550781 332.4375 C 66.179688 330.492188 63.855469 328.488281 61.582031 326.429688 C 59.308594 324.367188 57.085938 322.253906 54.917969 320.082031 C 52.746094 317.914062 50.632812 315.691406 48.570312 313.417969 C 46.511719 311.144531 44.507812 308.820312 42.558594 306.449219 C 40.613281 304.078125 38.726562 301.660156 36.898438 299.195312 C 35.070312 296.730469 33.304688 294.222656 31.597656 291.667969 C 29.894531 289.117188 28.253906 286.527344 26.675781 283.894531 C 25.097656 281.261719 23.585938 278.59375 22.140625 275.886719 C 20.691406 273.179688 19.3125 270.441406 18.003906 267.667969 C 16.691406 264.890625 15.445312 262.089844 14.273438 259.253906 C 13.097656 256.417969 11.996094 253.554688 10.960938 250.667969 C 9.925781 247.777344 8.964844 244.863281 8.074219 241.929688 C 7.183594 238.992188 6.363281 236.035156 5.617188 233.058594 C 4.875 230.082031 4.203125 227.089844 3.601562 224.078125 C 3.003906 221.070312 2.480469 218.046875 2.03125 215.011719 C 1.578125 211.976562 1.203125 208.933594 0.902344 205.878906 C 0.601562 202.824219 0.375 199.765625 0.226562 196.699219 C 0.0742188 193.636719 0 190.570312 0 187.5 C 0 184.429688 0.0742188 181.363281 0.226562 178.300781 C 0.375 175.234375 0.601562 172.175781 0.902344 169.121094 C 1.203125 166.066406 1.578125 163.023438 2.03125 159.988281 C 2.480469 156.953125 3.003906 153.929688 3.601562 150.921875 C 4.203125 147.910156 4.875 144.917969 5.617188 141.941406 C 6.363281 138.964844 7.183594 136.007812 8.074219 133.070312 C 8.964844 130.136719 9.925781 127.222656 10.960938 124.332031 C 11.996094 121.445312 13.097656 118.582031 14.273438 115.746094 C 15.445312 112.910156 16.691406 110.105469 18.003906 107.332031 C 19.3125 104.558594 20.691406 101.820312 22.140625 99.113281 C 23.585938 96.40625 25.097656 93.738281 26.675781 91.105469 C 28.253906 88.472656 29.894531 85.882812 31.597656 83.332031 C 33.304688 80.777344 35.070312 78.269531 36.898438 75.804688 C 38.726562 73.339844 40.613281 70.921875 42.558594 68.550781 C 44.507812 66.179688 46.511719 63.855469 48.570312 61.582031 C 50.632812 59.308594 52.746094 57.085938 54.917969 54.917969 C 57.085938 52.746094 59.308594 50.632812 61.582031 48.570312 C 63.855469 46.511719 66.179688 44.507812 68.550781 42.558594 C 70.921875 40.613281 73.339844 38.726562 75.804688 36.898438 C 78.269531 35.070312 80.777344 33.304688 83.332031 31.597656 C 85.882812 29.894531 88.472656 28.253906 91.105469 26.675781 C 93.738281 25.097656 96.40625 23.585938 99.113281 22.140625 C 101.820312 20.691406 104.558594 19.3125 107.332031 18.003906 C 110.105469 16.691406 112.910156 15.445312 115.746094 14.273438 C 118.582031 13.097656 121.445312 11.996094 124.332031 10.960938 C 127.222656 9.925781 130.136719 8.964844 133.070312 8.074219 C 136.007812 7.183594 138.964844 6.363281 141.941406 5.617188 C 144.917969 4.875 147.910156 4.203125 150.921875 3.601562 C 153.929688 3.003906 156.953125 2.480469 159.988281 2.03125 C 163.023438 1.578125 166.066406 1.203125 169.121094 0.902344 C 172.175781 0.601562 175.234375 0.375 178.300781 0.226562 C 181.363281 0.0742188 184.429688 0 187.5 0 C 190.570312 0 193.636719 0.0742188 196.699219 0.226562 C 199.765625 0.375 202.824219 0.601562 205.878906 0.902344 C 208.933594 1.203125 211.976562 1.578125 215.011719 2.03125 C 218.046875 2.480469 221.070312 3.003906 224.078125 3.601562 C 227.089844 4.203125 230.082031 4.875 233.058594 5.617188 C 236.035156 6.363281 238.992188 7.183594 241.929688 8.074219 C 244.863281 8.964844 247.777344 9.925781 250.667969 10.960938 C 253.554688 11.996094 256.417969 13.097656 259.253906 14.273438 C 262.089844 15.445312 264.890625 16.691406 267.667969 18.003906 C 270.441406 19.3125 273.179688 20.691406 275.886719 22.140625 C 278.59375 23.585938 281.261719 25.097656 283.894531 26.675781 C 286.527344 28.253906 289.117188 29.894531 291.667969 31.597656 C 294.222656 33.304688 296.730469 35.070312 299.195312 36.898438 C 301.660156 38.726562 304.078125 40.613281 306.449219 42.558594 C 308.820312 44.507812 311.144531 46.511719 313.417969 48.570312 C 315.691406 50.632812 317.914062 52.746094 320.082031 54.917969 C 322.253906 57.085938 324.367188 59.308594 326.429688 61.582031 C 328.488281 63.855469 330.492188 66.179688 332.4375 68.550781 C 334.386719 70.921875 336.273438 73.339844 338.101562 75.804688 C 339.929688 78.269531 341.695312 80.777344 343.402344 83.332031 C 345.105469 85.882812 346.746094 88.472656 348.324219 91.105469 C 349.902344 93.738281 351.414062 96.40625 352.859375 99.113281 C 354.304688 101.820312 355.6875 104.558594 356.996094 107.332031 C 358.308594 110.105469 359.554688 112.910156 360.726562 115.746094 C 361.902344 118.582031 363.003906 121.445312 364.039062 124.332031 C 365.074219 127.222656 366.035156 130.136719 366.925781 133.070312 C 367.816406 136.007812 368.636719 138.964844 369.378906 141.941406 C 370.125 144.917969 370.796875 147.910156 371.398438 150.921875 C 371.996094 153.929688 372.519531 156.953125 372.96875 159.988281 C 373.421875 163.023438 373.796875 166.066406 374.097656 169.121094 C 374.398438 172.175781 374.625 175.234375 374.773438 178.300781 C 374.925781 181.363281 375 184.429688 375 187.5 Z M 375 187.5 " fill-opacity="1" fill-rule="nonzero"/><g clip-path="url(#fcec81262d)"><path fill="#010101" d="M 124.363281 160.734375 C 132.714844 159.339844 141.066406 157.949219 149.417969 156.558594 C 169.367188 202.027344 189.3125 247.492188 209.265625 292.960938 C 174.46875 307.804688 139.675781 322.652344 104.878906 337.496094 C 99.773438 335.640625 94.671875 333.78125 89.566406 331.929688 C 101.164062 274.859375 112.761719 217.792969 124.363281 160.734375 Z M 124.363281 160.734375 " fill-opacity="1" fill-rule="nonzero"/></g><g clip-path="url(#ba4c21e4bc)"><path fill="#e9eaea" d="M 28.328125 194.132812 L 132.714844 148.203125 L 193.953125 285.996094 L 89.566406 331.925781 Z M 28.328125 194.132812 " fill-opacity="1" fill-rule="nonzero"/></g><g clip-path="url(#1fe347b4b6)"><path fill="#010101" d="M 28.328125 194.132812 L 39.558594 189.191406 L 101.539062 326.507812 L 89.566406 331.925781 Z M 28.328125 194.132812 " fill-opacity="1" fill-rule="nonzero"/></g><g mask="url(#dea3a293c2)"><g transform="matrix(1, 0, 0, 1, 38, 217)"><g clip-path="url(#bfbfc66c95)"><g clip-path="url(#93c04cdf20)"><path fill="#010101" d="M 0.800781 0.695312 L 51.566406 114.925781 L 137.074219 77.300781 C 69.398438 61.625 25.589844 26.941406 0.800781 0.695312 Z M 0.800781 0.695312 " fill-opacity="1" fill-rule="nonzero"/></g></g></g></g><path fill="#e9eaea" d="M 93.90625 330.015625 L 104.878906 334.207031 L 205.089844 291.5625 L 146.742188 157 L 134.253906 151.675781 C 154.152344 196.449219 174.054688 241.222656 193.949219 285.996094 C 160.605469 300.667969 127.253906 315.34375 93.90625 330.015625 Z M 93.90625 330.015625 " fill-opacity="1" fill-rule="nonzero"/><g clip-path="url(#6740257b48)"><g clip-path="url(#9c46cfddc5)"><g clip-path="url(#cf184ff2d6)"><g clip-path="url(#7e863729ed)"><path fill="#010101" d="M 115.582031 127.335938 L 114.550781 126.328125 C 115.238281 125.644531 115.957031 125.011719 116.777344 124.457031 C 117.570312 123.925781 118.460938 123.472656 119.355469 123.132812 L 119.867188 124.472656 C 119.066406 124.785156 118.273438 125.164062 117.554688 125.644531 C 116.832031 126.167969 116.167969 126.722656 115.582031 127.335938 Z M 112.589844 132.042969 C 112.917969 131.234375 113.289062 130.433594 113.742188 129.691406 L 112.515625 128.9375 C 112.007812 129.761719 111.601562 130.625 111.242188 131.492188 C 110.898438 132.386719 110.640625 133.296875 110.402344 134.230469 L 111.789062 134.519531 C 112.035156 133.699219 112.277344 132.875 112.589844 132.042969 Z M 111.457031 137.539062 L 110.03125 137.460938 C 109.992188 138.40625 110.035156 139.363281 110.148438 140.308594 C 110.257812 141.253906 110.414062 142.207031 110.6875 143.113281 L 112.050781 142.738281 C 111.570312 141.070312 111.394531 139.296875 111.457031 137.539062 Z M 114.320312 149.738281 C 114.644531 150.074219 114.988281 150.398438 115.328125 150.761719 L 116.289062 149.722656 C 115.988281 149.410156 115.660156 149.113281 115.359375 148.800781 L 114.507812 147.777344 C 113.976562 147.09375 113.496094 146.375 113.117188 145.585938 L 111.839844 146.238281 C 112.273438 147.105469 112.78125 147.917969 113.390625 148.65625 Z M 120.96875 152.890625 C 120.578125 152.71875 120.175781 152.476562 119.792969 152.257812 C 119.589844 152.136719 119.382812 152.058594 119.222656 151.945312 L 118.6875 151.570312 L 117.902344 152.746094 L 118.496094 153.152344 C 118.699219 153.273438 118.898438 153.394531 119.125 153.5 C 119.554688 153.722656 119.957031 153.964844 120.367188 154.164062 L 121.664062 154.75 C 122.097656 154.929688 122.539062 155.070312 123 155.230469 L 123.4375 153.890625 C 123.023438 153.734375 122.597656 153.621094 122.207031 153.445312 Z M 127.152344 156.191406 L 127.523438 156.230469 L 128.914062 156.367188 C 129.859375 156.410156 130.800781 156.453125 131.738281 156.386719 L 131.660156 154.957031 C 130.765625 155.035156 129.871094 154.957031 128.988281 154.945312 L 127.667969 154.796875 L 127.339844 154.765625 L 126.996094 154.710938 L 126.332031 154.578125 L 126.082031 155.976562 L 126.773438 156.085938 Z M 142.554688 151.820312 L 143.257812 153.0625 C 144.910156 152.136719 146.410156 151.054688 147.863281 149.851562 L 146.960938 148.757812 C 145.554688 149.921875 144.105469 150.96875 142.554688 151.820312 Z M 150.242188 147.71875 C 151.5625 146.386719 152.769531 144.949219 153.867188 143.46875 L 152.726562 142.621094 C 151.628906 144.054688 150.484375 145.417969 149.210938 146.714844 Z M 158.332031 135.953125 L 157.042969 135.324219 C 156.273438 136.941406 155.398438 138.523438 154.445312 140.050781 L 155.644531 140.820312 C 156.648438 139.257812 157.574219 137.640625 158.332031 135.953125 Z M 160.59375 130.441406 L 161.421875 127.789062 L 160.070312 127.394531 L 159.277344 129.984375 C 158.984375 130.84375 158.628906 131.667969 158.316406 132.503906 L 159.644531 133.027344 C 159.9375 132.167969 160.277344 131.316406 160.59375 130.441406 Z M 162.53125 123.375 L 163.0625 120.632812 C 163.097656 120.417969 163.160156 120.183594 163.175781 119.945312 L 163.289062 119.253906 L 161.882812 119.050781 L 161.796875 119.722656 C 161.761719 119.9375 161.703125 120.167969 161.667969 120.382812 L 161.152344 123.039062 C 161.054688 123.488281 160.941406 123.914062 160.847656 124.363281 L 162.230469 124.695312 C 162.324219 124.246094 162.460938 123.804688 162.53125 123.375 Z M 163.933594 113.351562 C 163.984375 112.894531 163.992188 112.433594 164.027344 111.949219 L 164.097656 110.570312 L 162.671875 110.492188 L 162.601562 111.875 C 162.59375 112.335938 162.566406 112.773438 162.515625 113.230469 L 162.273438 115.953125 L 163.683594 116.117188 Z M 164.125 101.914062 L 162.679688 101.964844 C 162.742188 103.789062 162.800781 105.609375 162.746094 107.433594 L 164.160156 107.441406 C 164.21875 105.574219 164.160156 103.753906 164.125 101.914062 Z M 163.753906 96.019531 C 163.703125 95.105469 163.609375 94.183594 163.515625 93.261719 L 162.097656 93.410156 C 162.195312 94.328125 162.269531 95.226562 162.34375 96.121094 C 162.394531 97.035156 162.515625 97.941406 162.523438 98.847656 L 163.949219 98.769531 C 163.898438 97.855469 163.804688 96.933594 163.753906 96.019531 Z M 162.851562 87.386719 L 162.519531 84.660156 L 161.097656 84.851562 L 161.453125 87.558594 L 161.769531 90.261719 L 163.183594 90.117188 Z M 161.320312 76.089844 L 159.917969 76.304688 L 160.691406 81.757812 L 162.113281 81.566406 Z M 85.238281 231.878906 L 84.507812 229.285156 C 84.296875 228.410156 84.152344 227.527344 83.964844 226.632812 L 82.554688 226.890625 C 82.757812 227.808594 82.921875 228.71875 83.125 229.636719 L 83.859375 232.339844 Z M 83.375 220.859375 C 83.339844 219.96875 83.375 219.070312 83.367188 218.164062 L 81.9375 218.128906 C 81.964844 219.0625 81.921875 220.003906 81.949219 220.9375 C 82.015625 221.875 82.066406 222.789062 82.136719 223.730469 L 83.550781 223.582031 C 83.476562 222.6875 83.425781 221.773438 83.375 220.859375 Z M 83.882812 212.390625 C 83.933594 211.933594 84.046875 211.511719 84.140625 211.0625 L 84.398438 209.734375 L 83.011719 209.441406 L 82.746094 210.8125 C 82.652344 211.261719 82.554688 211.710938 82.503906 212.167969 C 82.375 213.097656 82.246094 214.027344 82.144531 214.9375 L 83.5625 215.054688 C 83.632812 214.207031 83.777344 213.300781 83.882812 212.390625 Z M 85.957031 204.199219 C 86.097656 203.757812 86.269531 203.363281 86.449219 202.929688 L 86.960938 201.6875 L 85.640625 201.117188 L 85.121094 202.40625 C 84.941406 202.839844 84.761719 203.273438 84.621094 203.714844 C 84.347656 204.597656 84.027344 205.476562 83.753906 206.359375 L 85.101562 206.753906 C 85.398438 205.898438 85.691406 205.039062 85.957031 204.199219 Z M 88.910156 197.695312 L 89.585938 196.523438 C 89.804688 196.136719 90.046875 195.734375 90.28125 195.375 L 91.015625 194.234375 L 89.824219 193.421875 L 89.0625 194.582031 C 88.800781 194.957031 88.558594 195.363281 88.316406 195.765625 L 87.632812 196.980469 C 87.394531 197.382812 87.152344 197.785156 86.96875 198.21875 L 88.234375 198.867188 C 88.433594 198.457031 88.695312 198.078125 88.910156 197.695312 Z M 96.460938 187.761719 L 95.457031 186.734375 C 94.117188 188.042969 92.875 189.433594 91.695312 190.855469 L 92.808594 191.765625 C 93.988281 190.34375 95.199219 189.015625 96.460938 187.761719 Z M 100.875 183.96875 C 101.582031 183.421875 102.3125 182.855469 103.039062 182.332031 L 102.210938 181.179688 C 101.460938 181.722656 100.726562 182.289062 99.996094 182.855469 C 99.28125 183.445312 98.546875 184.011719 97.851562 184.628906 L 98.78125 185.707031 C 99.433594 185.082031 100.167969 184.515625 100.875 183.96875 Z M 109.4375 176.386719 C 107.886719 177.351562 106.332031 178.359375 104.796875 179.390625 L 105.601562 180.558594 C 107.113281 179.546875 108.644531 178.558594 110.191406 177.59375 Z M 116.777344 171.855469 C 115.226562 172.820312 113.679688 173.785156 112.113281 174.722656 L 112.871094 175.929688 C 114.417969 174.964844 115.984375 174.023438 117.554688 173.042969 Z M 124.730469 168.175781 L 123.875 167.039062 C 122.417969 168.128906 120.921875 169.167969 119.390625 170.160156 L 120.171875 171.34375 C 121.726562 170.339844 123.246094 169.28125 124.730469 168.175781 Z M 126.285156 165.113281 L 127.191406 166.207031 C 128.617188 165.027344 129.992188 163.769531 131.289062 162.453125 L 130.257812 161.449219 C 129.011719 162.726562 127.6875 163.949219 126.285156 165.113281 Z M 132.828125 158.683594 L 132.390625 159.1875 L 133.480469 160.113281 L 133.9375 159.59375 L 134.378906 159.046875 L 135.265625 157.953125 L 136.070312 156.800781 C 136.191406 156.597656 136.328125 156.421875 136.46875 156.246094 L 136.800781 155.703125 L 137.722656 155.457031 C 138.179688 155.351562 138.609375 155.15625 139.078125 155.011719 C 139.523438 154.839844 139.964844 154.714844 140.394531 154.519531 L 139.832031 153.210938 C 139.425781 153.390625 139.003906 153.542969 138.582031 153.695312 C 138.160156 153.847656 137.753906 154.023438 137.324219 154.109375 L 136.050781 154.453125 L 134.75 154.707031 L 134.96875 155.957031 C 134.941406 155.976562 134.9375 156.019531 134.910156 156.039062 L 134.136719 157.128906 L 133.304688 158.1875 Z M 137.945312 150.386719 L 137.667969 151.003906 C 137.472656 151.414062 137.316406 151.832031 137.097656 152.214844 L 138.363281 152.863281 C 138.5625 152.453125 138.742188 152.019531 138.96875 151.589844 L 139.269531 150.957031 C 139.347656 150.746094 139.449219 150.519531 139.507812 150.289062 L 139.992188 148.953125 L 140.386719 147.601562 L 139.011719 147.222656 L 138.648438 148.511719 L 138.179688 149.761719 C 138.101562 149.972656 138.050781 150.160156 137.945312 150.386719 Z M 139.628906 144.230469 L 141.054688 144.417969 C 141.292969 142.535156 141.230469 140.601562 140.914062 138.738281 L 139.527344 138.976562 C 139.753906 140.714844 139.84375 142.476562 139.628906 144.230469 Z M 138.765625 136.027344 L 140.121094 135.582031 C 139.523438 133.804688 138.722656 132.0625 137.699219 130.484375 L 136.492188 131.238281 C 137.445312 132.71875 138.199219 134.34375 138.765625 136.027344 Z M 134.675781 128.820312 L 135.734375 127.867188 C 135.101562 127.144531 134.410156 126.503906 133.691406 125.878906 C 132.949219 125.269531 132.175781 124.726562 131.355469 124.214844 L 130.644531 125.449219 C 131.390625 125.902344 132.101562 126.414062 132.789062 126.945312 C 133.421875 127.558594 134.074219 128.148438 134.675781 128.820312 Z M 127.921875 124.257812 L 128.34375 122.886719 C 127.417969 122.605469 126.476562 122.410156 125.496094 122.316406 C 124.535156 122.25 123.566406 122.222656 122.597656 122.355469 L 122.785156 123.777344 C 123.644531 123.652344 124.503906 123.679688 125.378906 123.734375 C 126.246094 123.828125 127.082031 123.988281 127.921875 124.257812 Z M 127.921875 124.257812 " fill-opacity="1" fill-rule="nonzero"/></g></g></g></g><g clip-path="url(#a632b11ab7)"><path fill="#e9eaea" d="M 165.808594 73.195312 C 165.808594 74.382812 163.550781 75.347656 160.761719 75.347656 C 157.976562 75.347656 155.71875 74.382812 155.71875 73.195312 C 155.71875 72.003906 157.976562 71.039062 160.761719 71.039062 C 163.550781 71.039062 165.808594 72.003906 165.808594 73.195312 " fill-opacity="1" fill-rule="nonzero"/></g><path fill="#e9eaea" d="M 165.707031 72.671875 C 165.707031 73.863281 163.46875 74.828125 160.710938 74.828125 C 157.953125 74.828125 155.71875 73.863281 155.71875 72.671875 C 155.71875 71.480469 157.953125 70.515625 160.710938 70.515625 C 163.46875 70.515625 165.707031 71.480469 165.707031 72.671875 " fill-opacity="1" fill-rule="nonzero"/><g clip-path="url(#ef43090e03)"><path fill="#010101" d="M 160.902344 37.019531 C 160.835938 37.019531 160.773438 37.023438 160.707031 37.027344 C 160.640625 37.023438 160.574219 37.019531 160.507812 37.019531 C 154.382812 37.019531 149.414062 42.199219 149.414062 48.585938 C 149.414062 49.675781 149.839844 52.195312 150.472656 53.238281 L 160.707031 72.671875 L 170.9375 53.238281 C 171.574219 52.195312 171.996094 49.675781 171.996094 48.585938 C 171.996094 42.199219 167.03125 37.019531 160.902344 37.019531 " fill-opacity="1" fill-rule="nonzero"/></g><path fill="#ffffff" d="M 166.832031 47.296875 C 166.832031 50.679688 164.089844 53.421875 160.707031 53.421875 C 157.324219 53.421875 154.578125 50.679688 154.578125 47.296875 C 154.578125 43.914062 157.324219 41.171875 160.707031 41.171875 C 164.089844 41.171875 166.832031 43.914062 166.832031 47.296875 " fill-opacity="1" fill-rule="nonzero"/><g clip-path="url(#56c9feff76)"><path fill="#e9eaea" d="M 286.527344 174.417969 C 286.527344 175.609375 284.269531 176.574219 281.480469 176.574219 C 278.695312 176.574219 276.4375 175.609375 276.4375 174.417969 C 276.4375 173.230469 278.695312 172.265625 281.480469 172.265625 C 284.269531 172.265625 286.527344 173.230469 286.527344 174.417969 " fill-opacity="1" fill-rule="nonzero"/></g><g clip-path="url(#30d36458b6)"><path fill="#e9eaea" d="M 286.421875 173.898438 C 286.421875 175.089844 284.1875 176.054688 281.429688 176.054688 C 278.671875 176.054688 276.4375 175.089844 276.4375 173.898438 C 276.4375 172.707031 278.671875 171.742188 281.429688 171.742188 C 284.1875 171.742188 286.421875 172.707031 286.421875 173.898438 " fill-opacity="1" fill-rule="nonzero"/></g><g clip-path="url(#09a49214b5)"><path fill="#010101" d="M 281.621094 138.246094 C 281.554688 138.246094 281.488281 138.25 281.425781 138.25 C 281.359375 138.25 281.292969 138.246094 281.226562 138.246094 C 275.101562 138.246094 270.132812 143.421875 270.132812 149.808594 C 270.132812 150.898438 270.554688 153.417969 271.191406 154.464844 L 281.425781 173.898438 L 291.65625 154.464844 C 292.292969 153.417969 292.714844 150.898438 292.714844 149.808594 C 292.714844 143.421875 287.75 138.246094 281.621094 138.246094 " fill-opacity="1" fill-rule="nonzero"/></g><path fill="#ffffff" d="M 287.550781 148.519531 C 287.550781 151.90625 284.808594 154.648438 281.425781 154.648438 C 278.039062 154.648438 275.296875 151.90625 275.296875 148.519531 C 275.296875 145.136719 278.039062 142.394531 281.425781 142.394531 C 284.808594 142.394531 287.550781 145.136719 287.550781 148.519531 " fill-opacity="1" fill-rule="nonzero"/><g clip-path="url(#37023c7f71)"><g clip-path="url(#fe39dfddb1)"><g clip-path="url(#1dd375929e)"><g clip-path="url(#220b3d314f)"><path fill="#010101" d="M 280.183594 170.199219 L 279.371094 167.265625 C 279.105469 166.277344 278.839844 165.289062 278.507812 164.335938 L 279.628906 164 C 279.964844 164.976562 280.207031 165.96875 280.496094 166.972656 L 281.335938 169.90625 Z M 277.550781 157.710938 L 277.015625 156.253906 L 276.746094 155.527344 L 276.457031 154.800781 L 275.351562 155.226562 L 275.636719 155.929688 L 275.90625 156.660156 L 276.4375 158.09375 C 276.765625 159.046875 277.144531 160.015625 277.453125 160.972656 L 278.566406 160.589844 C 278.257812 159.632812 277.878906 158.664062 277.550781 157.710938 Z M 274.847656 150.828125 L 274.539062 150.128906 L 273.890625 148.714844 C 273.46875 147.777344 273.046875 146.839844 272.605469 145.90625 L 271.539062 146.421875 C 271.976562 147.332031 272.375 148.273438 272.820312 149.207031 L 273.464844 150.597656 L 273.773438 151.296875 L 274.058594 152 L 275.132812 151.53125 Z M 269.558594 140.046875 L 268.078125 137.34375 L 267.046875 137.921875 L 268.523438 140.601562 C 269.011719 141.503906 269.515625 142.378906 269.960938 143.3125 L 271 142.78125 C 270.554688 141.847656 270.046875 140.949219 269.558594 140.046875 Z M 265.441406 133.007812 L 264.605469 131.71875 L 262.910156 129.148438 L 261.9375 129.808594 L 263.609375 132.363281 L 264.445312 133.648438 L 265.238281 134.96875 L 266.238281 134.347656 Z M 257.144531 121.3125 L 256.207031 122.039062 C 257.453125 123.65625 258.742188 125.242188 259.882812 126.921875 L 260.847656 126.238281 C 259.703125 124.535156 258.394531 122.953125 257.144531 121.3125 Z M 253.917969 117.410156 L 253.414062 116.816406 L 252.894531 116.246094 L 250.820312 113.953125 L 249.949219 114.761719 L 252.015625 117.035156 L 252.539062 117.601562 L 253.042969 118.195312 L 254.023438 119.363281 L 254.929688 118.621094 Z M 246.203125 109.207031 L 243.949219 107.085938 L 243.15625 107.949219 L 245.382812 110.054688 C 246.121094 110.773438 246.8125 111.5 247.53125 112.242188 L 248.378906 111.414062 C 247.660156 110.671875 246.964844 109.921875 246.203125 109.207031 Z M 239.011719 102.679688 L 236.601562 100.746094 L 235.867188 101.671875 L 238.25 103.585938 L 240.554688 105.605469 L 241.347656 104.71875 Z M 231.3125 96.753906 C 230.476562 96.148438 229.601562 95.59375 228.769531 95.007812 L 228.113281 95.96875 C 228.945312 96.554688 229.816406 97.105469 230.625 97.695312 L 233.089844 99.523438 L 233.796875 98.578125 Z M 223.195312 91.417969 L 222.539062 91.015625 L 221.859375 90.640625 L 220.523438 89.859375 L 219.941406 90.878906 L 221.277344 91.632812 L 221.933594 92.011719 L 222.589844 92.414062 L 225.183594 94.035156 L 225.816406 93.054688 Z M 211.914062 85.363281 L 211.414062 86.414062 C 213.28125 87.261719 215.054688 88.246094 216.890625 89.175781 L 217.441406 88.140625 C 215.605469 87.210938 213.78125 86.214844 211.914062 85.363281 Z M 205.855469 82.652344 L 204.433594 82.054688 L 202.992188 81.503906 L 202.566406 82.589844 L 204.007812 83.136719 L 205.410156 83.742188 L 208.234375 84.941406 L 208.707031 83.875 Z M 196.753906 79.25 C 195.777344 78.925781 194.800781 78.578125 193.808594 78.304688 L 193.460938 79.421875 C 194.449219 79.695312 195.402344 80.023438 196.382812 80.371094 L 199.289062 81.347656 L 199.6875 80.246094 Z M 187.417969 76.523438 L 184.414062 75.796875 L 184.140625 76.949219 L 187.121094 77.675781 C 188.109375 77.929688 189.117188 78.175781 190.085938 78.457031 L 190.40625 77.320312 C 189.414062 77.023438 188.402344 76.773438 187.417969 76.523438 Z M 179.445312 74.753906 L 177.917969 74.503906 C 176.898438 74.328125 175.894531 74.125 174.859375 74 L 174.683594 75.15625 C 175.699219 75.308594 176.699219 75.488281 177.71875 75.664062 L 179.226562 75.921875 L 180.734375 76.199219 L 180.960938 75.054688 Z M 168.257812 73.191406 L 165.167969 72.90625 L 165.085938 74.070312 L 168.152344 74.339844 C 169.160156 74.445312 170.183594 74.503906 171.199219 74.65625 L 171.351562 73.480469 C 170.316406 73.355469 169.289062 73.273438 168.257812 73.191406 Z M 168.257812 73.191406 " fill-opacity="1" fill-rule="nonzero"/></g></g></g></g><g clip-path="url(#b4487122eb)"><g clip-path="url(#931fbf8404)"><g clip-path="url(#e7ad63f066)"><path fill="#010101" d="M 288.144531 172.679688 L 287.894531 171.058594 C 288.550781 170.988281 289.003906 170.824219 289.570312 170.957031 L 289.667969 172.632812 C 289.160156 172.648438 288.652344 172.664062 288.144531 172.679688 Z M 288.144531 172.679688 " fill-opacity="1" fill-rule="nonzero"/></g></g></g><g clip-path="url(#63e523c59c)"><g clip-path="url(#26d4d30b04)"><g clip-path="url(#a9727a100e)"><path fill="#010101" d="M 267.917969 296.734375 C 267.53125 295.675781 267.445312 294.507812 267.507812 293.285156 L 269.089844 293.390625 C 269.121094 294.410156 269.148438 295.425781 269.484375 296.332031 Z M 268.117188 289.808594 C 268.308594 289.398438 268.347656 289.039062 268.59375 288.777344 C 269.03125 288.105469 269.46875 287.429688 269.960938 286.90625 L 271.214844 287.988281 C 270.722656 288.511719 270.4375 289.128906 270.09375 289.597656 C 269.847656 289.859375 269.808594 290.21875 269.710938 290.421875 Z M 272.539062 284.589844 C 273.332031 283.957031 274.277344 283.265625 275.277344 282.726562 L 276.136719 284.125 C 275.132812 284.664062 274.339844 285.300781 273.542969 285.933594 Z M 278.074219 281.015625 L 278.773438 280.589844 C 279.472656 280.160156 280.230469 279.882812 280.929688 279.457031 L 281.632812 280.910156 C 280.933594 281.335938 280.179688 281.613281 279.480469 282.042969 L 278.78125 282.46875 Z M 283.78125 277.894531 C 284.726562 277.207031 285.578125 276.722656 286.316406 275.9375 L 287.417969 277.074219 C 286.625 277.707031 285.679688 278.398438 284.730469 279.085938 Z M 269.746094 234.066406 C 269.582031 233.613281 269.414062 233.160156 269.25 232.707031 L 270.8125 232.304688 C 271.144531 233.210938 271.535156 234.265625 271.867188 235.171875 L 270.410156 235.875 C 270.246094 235.421875 270.023438 234.820312 269.746094 234.066406 Z M 268.59375 229.523438 C 268.507812 228.355469 268.421875 227.1875 268.542969 226.117188 L 270.121094 226.222656 C 270 227.292969 270.03125 228.308594 270.214844 229.269531 Z M 272.027344 238.878906 L 273.425781 238.023438 C 273.855469 238.722656 274.28125 239.421875 274.859375 240.066406 L 275.234375 240.613281 L 273.890625 241.621094 L 273.519531 241.074219 C 272.9375 240.429688 272.511719 239.730469 272.027344 238.878906 Z M 276.054688 244.25 L 277.191406 243.148438 C 277.828125 243.945312 278.613281 244.683594 279.453125 245.574219 L 278.316406 246.675781 C 277.476562 245.785156 276.839844 244.992188 276.054688 244.25 Z M 269.355469 222.734375 C 269.449219 222.527344 269.546875 222.320312 269.585938 221.964844 C 269.96875 221.140625 270.40625 220.464844 270.9375 219.585938 L 272.289062 220.460938 C 271.851562 221.132812 271.414062 221.808594 271.125 222.425781 C 271.03125 222.632812 270.933594 222.839844 270.839844 223.046875 Z M 288.230469 273.691406 L 288.421875 273.277344 C 288.859375 272.605469 289.242188 271.78125 289.472656 271.007812 L 291.015625 271.472656 C 290.6875 272.449219 290.304688 273.273438 289.773438 274.152344 C 289.675781 274.359375 289.527344 274.414062 289.429688 274.621094 Z M 280.519531 248.949219 L 281.65625 247.847656 C 282.441406 248.585938 283.074219 249.382812 283.917969 250.273438 L 282.78125 251.375 C 281.9375 250.484375 281.304688 249.6875 280.519531 248.949219 Z M 284.683594 253.757812 L 285.875 252.808594 C 286.453125 253.449219 286.9375 254.300781 287.515625 254.945312 L 287.832031 255.34375 L 286.433594 256.199219 L 286.117188 255.800781 C 285.894531 255.195312 285.261719 254.402344 284.683594 253.757812 Z M 290.097656 268.039062 C 290.066406 267.023438 290.035156 266.007812 290.003906 264.992188 L 291.625 264.738281 C 291.710938 265.90625 291.796875 267.074219 291.828125 268.089844 Z M 288.144531 258.996094 L 289.601562 258.289062 C 290.140625 259.289062 290.527344 260.347656 290.914062 261.402344 L 289.40625 261.957031 C 289.015625 260.902344 288.535156 260.050781 288.144531 258.996094 Z M 273.308594 217.171875 C 274.101562 216.539062 275.046875 215.847656 275.996094 215.160156 L 276.851562 216.558594 C 275.847656 217.097656 275.054688 217.730469 274.257812 218.367188 Z M 279.054688 213.695312 C 279.355469 213.582031 279.65625 213.472656 279.957031 213.363281 C 280.714844 213.085938 281.46875 212.808594 282.277344 212.683594 L 282.679688 214.246094 C 281.925781 214.523438 281.117188 214.648438 280.511719 214.871094 C 280.210938 214.980469 280.058594 215.039062 279.757812 215.148438 Z M 285.660156 213.496094 L 285.40625 211.875 C 286.519531 211.640625 287.535156 211.609375 288.703125 211.523438 L 288.953125 213.140625 C 287.789062 213.226562 286.828125 213.410156 285.660156 213.496094 Z M 292.097656 212.84375 L 292 211.167969 L 292.863281 211.195312 C 293.671875 211.066406 294.386719 211.148438 295.199219 211.023438 L 295.300781 212.699219 C 294.488281 212.824219 293.773438 212.742188 292.964844 212.871094 Z M 298.539062 212.191406 L 298.289062 210.574219 C 299.453125 210.488281 300.414062 210.304688 301.375 210.125 L 301.78125 211.6875 C 300.820312 211.871094 299.707031 212.105469 298.539062 212.191406 Z M 305.058594 210.828125 L 304.507812 209.316406 C 304.65625 209.261719 304.957031 209.152344 305.109375 209.097656 C 305.863281 208.820312 306.617188 208.542969 307.316406 208.113281 L 308.023438 209.566406 C 307.324219 209.996094 306.417969 210.328125 305.664062 210.605469 C 305.511719 210.660156 305.363281 210.714844 305.058594 210.828125 Z M 292.773438 172.691406 L 293.03125 171.058594 C 294.101562 171.179688 295.230469 171.449219 296.261719 171.925781 L 295.796875 173.464844 C 294.824219 173.140625 293.695312 172.867188 292.773438 172.691406 Z M 310.171875 206.554688 C 310.964844 205.917969 311.761719 205.285156 312.5 204.5 L 313.753906 205.582031 C 313.011719 206.367188 312.121094 207.207031 311.175781 207.898438 Z M 298.6875 174.804688 L 299.355469 173.359375 C 300.238281 173.894531 301.269531 174.371094 302.203125 175.054688 L 301.328125 176.402344 C 300.394531 175.71875 299.511719 175.1875 298.6875 174.804688 Z M 303.875 178.207031 L 304.957031 176.957031 C 305.742188 177.695312 306.679688 178.378906 307.464844 179.117188 L 306.382812 180.371094 C 305.597656 179.632812 304.660156 178.949219 303.875 178.207031 Z M 314.152344 202.007812 C 314.496094 201.539062 314.632812 200.976562 314.765625 200.414062 C 314.957031 200 315 199.644531 315.132812 199.078125 L 316.617188 199.390625 C 316.484375 199.953125 316.292969 200.367188 316.15625 200.929688 C 315.871094 201.550781 315.734375 202.113281 315.445312 202.734375 Z M 308.585938 182.644531 L 309.722656 181.542969 C 310.507812 182.28125 311.199219 183.226562 311.832031 184.023438 L 310.488281 185.027344 C 310.007812 184.179688 309.371094 183.382812 308.585938 182.644531 Z M 315.605469 196.167969 C 315.574219 195.148438 315.394531 194.1875 315.15625 193.078125 L 316.722656 192.675781 C 316.957031 193.785156 317.195312 194.898438 317.28125 196.066406 Z M 312.449219 187.5625 L 313.847656 186.707031 C 314.535156 187.652344 315.074219 188.65625 315.460938 189.710938 L 314.007812 190.417969 C 313.621094 189.359375 313.136719 188.507812 312.449219 187.5625 Z M 312.449219 187.5625 " fill-opacity="1" fill-rule="nonzero"/></g></g></g><g clip-path="url(#155ed1e983)"><g clip-path="url(#3247fa7877)"><g clip-path="url(#c1fbbf9a36)"><path fill="#010101" d="M 270.097656 299.871094 L 271.179688 298.617188 C 271.441406 298.867188 271.910156 299.207031 272.320312 299.398438 L 271.652344 300.84375 C 271.035156 300.554688 270.414062 300.269531 270.097656 299.871094 Z M 270.097656 299.871094 " fill-opacity="1" fill-rule="nonzero"/></g></g></g><g clip-path="url(#4a4fe78ca4)"><path fill="#e9eaea" d="M 275.242188 304.414062 C 275.242188 305.605469 272.980469 306.570312 270.195312 306.570312 C 267.410156 306.570312 265.148438 305.605469 265.148438 304.414062 C 265.148438 303.226562 267.410156 302.261719 270.195312 302.261719 C 272.980469 302.261719 275.242188 303.226562 275.242188 304.414062 " fill-opacity="1" fill-rule="nonzero"/></g><g clip-path="url(#0853eae835)"><path fill="#e9eaea" d="M 275.136719 303.894531 C 275.136719 305.085938 272.902344 306.050781 270.144531 306.050781 C 267.386719 306.050781 265.148438 305.085938 265.148438 303.894531 C 265.148438 302.703125 267.386719 301.738281 270.144531 301.738281 C 272.902344 301.738281 275.136719 302.703125 275.136719 303.894531 " fill-opacity="1" fill-rule="nonzero"/></g><g clip-path="url(#343c9ddd0b)"><path fill="#010101" d="M 270.335938 268.242188 C 270.269531 268.242188 270.203125 268.246094 270.136719 268.25 C 270.070312 268.246094 270.007812 268.242188 269.941406 268.242188 C 263.8125 268.242188 258.847656 273.421875 258.847656 279.804688 C 258.847656 280.894531 259.269531 283.417969 259.90625 284.460938 L 270.136719 303.894531 L 280.371094 284.460938 C 281.003906 283.417969 281.429688 280.894531 281.429688 279.804688 C 281.429688 273.421875 276.460938 268.242188 270.335938 268.242188 " fill-opacity="1" fill-rule="nonzero"/></g><path fill="#ffffff" d="M 276.265625 278.519531 C 276.265625 281.902344 273.519531 284.644531 270.136719 284.644531 C 266.753906 284.644531 264.011719 281.902344 264.011719 278.519531 C 264.011719 275.132812 266.753906 272.390625 270.136719 272.390625 C 273.519531 272.390625 276.265625 275.132812 276.265625 278.519531 " fill-opacity="1" fill-rule="nonzero"/></svg>