<svg xmlns="http://www.w3.org/2000/svg" xmlns:xlink="http://www.w3.org/1999/xlink" width="500" zoomAndPan="magnify" viewBox="0 0 375 374.999991" height="500" preserveAspectRatio="xMidYMid meet" version="1.0"><defs><clipPath id="a27736decd"><path d="M 46 74 L 241 74 L 241 232 L 46 232 Z M 46 74 " clip-rule="nonzero"/></clipPath><clipPath id="31f6bc0eaf"><path d="M 22.867188 107.523438 L 197.320312 43.003906 L 244.667969 171.03125 L 70.214844 235.546875 Z M 22.867188 107.523438 " clip-rule="nonzero"/></clipPath><clipPath id="1aa513bc81"><path d="M 22.867188 107.523438 L 197.320312 43.003906 L 244.667969 171.03125 L 70.214844 235.546875 Z M 22.867188 107.523438 " clip-rule="nonzero"/></clipPath><clipPath id="04f876bd2f"><path d="M 22.867188 107.523438 L 197.320312 43.003906 L 244.667969 171.03125 L 70.214844 235.546875 Z M 22.867188 107.523438 " clip-rule="nonzero"/></clipPath><clipPath id="0900f770c2"><path d="M 142 137 L 175 137 L 175 182 L 142 182 Z M 142 137 " clip-rule="nonzero"/></clipPath><clipPath id="70d2c85cf7"><path d="M 22.867188 107.523438 L 197.320312 43.003906 L 244.667969 171.03125 L 70.214844 235.546875 Z M 22.867188 107.523438 " clip-rule="nonzero"/></clipPath><clipPath id="ac53e2ae7b"><path d="M 22.867188 107.523438 L 197.320312 43.003906 L 244.667969 171.03125 L 70.214844 235.546875 Z M 22.867188 107.523438 " clip-rule="nonzero"/></clipPath><clipPath id="30c8a4476e"><path d="M 22.867188 107.523438 L 197.320312 43.003906 L 244.667969 171.03125 L 70.214844 235.546875 Z M 22.867188 107.523438 " clip-rule="nonzero"/></clipPath><clipPath id="15450ae7c0"><path d="M 167 126 L 202 126 L 202 174 L 167 174 Z M 167 126 " clip-rule="nonzero"/></clipPath><clipPath id="14408138f7"><path d="M 22.867188 107.523438 L 197.320312 43.003906 L 244.667969 171.03125 L 70.214844 235.546875 Z M 22.867188 107.523438 " clip-rule="nonzero"/></clipPath><clipPath id="faf66c60c6"><path d="M 22.867188 107.523438 L 197.320312 43.003906 L 244.667969 171.03125 L 70.214844 235.546875 Z M 22.867188 107.523438 " clip-rule="nonzero"/></clipPath><clipPath id="4a3bbd213f"><path d="M 22.867188 107.523438 L 197.320312 43.003906 L 244.667969 171.03125 L 70.214844 235.546875 Z M 22.867188 107.523438 " clip-rule="nonzero"/></clipPath><clipPath id="f0372f8e0c"><path d="M 90 159 L 120 159 L 120 200 L 90 200 Z M 90 159 " clip-rule="nonzero"/></clipPath><clipPath id="33541cd8e9"><path d="M 22.867188 107.523438 L 197.320312 43.003906 L 244.667969 171.03125 L 70.214844 235.546875 Z M 22.867188 107.523438 " clip-rule="nonzero"/></clipPath><clipPath id="95161ef6b7"><path d="M 22.867188 107.523438 L 197.320312 43.003906 L 244.667969 171.03125 L 70.214844 235.546875 Z M 22.867188 107.523438 " clip-rule="nonzero"/></clipPath><clipPath id="c30b2cf5ac"><path d="M 22.867188 107.523438 L 197.320312 43.003906 L 244.667969 171.03125 L 70.214844 235.546875 Z M 22.867188 107.523438 " clip-rule="nonzero"/></clipPath><clipPath id="3c4eb2c5b4"><path d="M 115 149 L 142 149 L 142 193 L 115 193 Z M 115 149 " clip-rule="nonzero"/></clipPath><clipPath id="f3d82c583e"><path d="M 22.867188 107.523438 L 197.320312 43.003906 L 244.667969 171.03125 L 70.214844 235.546875 Z M 22.867188 107.523438 " clip-rule="nonzero"/></clipPath><clipPath id="ab169459ed"><path d="M 22.867188 107.523438 L 197.320312 43.003906 L 244.667969 171.03125 L 70.214844 235.546875 Z M 22.867188 107.523438 " clip-rule="nonzero"/></clipPath><clipPath id="b2afc5776c"><path d="M 22.867188 107.523438 L 197.320312 43.003906 L 244.667969 171.03125 L 70.214844 235.546875 Z M 22.867188 107.523438 " clip-rule="nonzero"/></clipPath><clipPath id="dd812fd038"><path d="M 165.953125 207 L 243 207 L 243 322.132812 L 165.953125 322.132812 Z M 165.953125 207 " clip-rule="nonzero"/></clipPath><clipPath id="9cebbf8be7"><path d="M 275 207 L 351.953125 207 L 351.953125 322.132812 L 275 322.132812 Z M 275 207 " clip-rule="nonzero"/></clipPath></defs><rect x="-37.5" width="450" fill="#ffffff" y="-37.499999" height="449.999989" fill-opacity="1"/><rect x="-37.5" width="450" fill="#ffffff" y="-37.499999" height="449.999989" fill-opacity="1"/><g clip-path="url(#a27736decd)"><g clip-path="url(#31f6bc0eaf)"><g clip-path="url(#1aa513bc81)"><g clip-path="url(#04f876bd2f)"><path fill="#000000" d="M 202.769531 99.824219 L 184.613281 106.539062 L 120.765625 87.53125 C 121.898438 85.410156 122.1875 82.84375 121.289062 80.414062 C 119.621094 75.910156 114.597656 73.597656 110.09375 75.265625 C 105.589844 76.929688 103.28125 81.953125 104.945312 86.457031 C 105.84375 88.886719 107.730469 90.648438 109.972656 91.523438 L 73.859375 147.5 L 55.699219 154.214844 C 48.191406 156.992188 44.34375 165.359375 47.121094 172.871094 L 65.253906 221.898438 C 68.03125 229.410156 76.398438 233.261719 83.90625 230.484375 L 230.976562 176.09375 C 238.484375 173.316406 242.332031 164.949219 239.554688 157.4375 L 221.421875 108.40625 C 218.644531 100.898438 210.277344 97.046875 202.769531 99.824219 Z M 112.109375 80.710938 C 113.609375 80.15625 115.285156 80.925781 115.839844 82.429688 C 116.394531 83.929688 115.625 85.605469 114.125 86.160156 C 112.625 86.714844 110.949219 85.945312 110.394531 84.441406 C 109.839844 82.941406 110.609375 81.265625 112.109375 80.710938 Z M 116.390625 92.289062 L 175.535156 109.894531 L 82.9375 144.140625 Z M 234.109375 159.453125 C 235.773438 163.957031 233.464844 168.980469 228.960938 170.648438 L 81.894531 225.035156 C 77.386719 226.703125 72.367188 224.390625 70.699219 219.886719 L 52.566406 170.855469 C 50.902344 166.347656 53.210938 161.328125 57.714844 159.660156 L 204.785156 105.273438 C 209.289062 103.605469 214.308594 105.917969 215.976562 110.421875 Z M 234.109375 159.453125 " fill-opacity="1" fill-rule="nonzero"/></g></g></g></g><g clip-path="url(#0900f770c2)"><g clip-path="url(#70d2c85cf7)"><g clip-path="url(#ac53e2ae7b)"><g clip-path="url(#30c8a4476e)"><path fill="#000000" d="M 142.742188 146.796875 L 154.828125 179.484375 C 155.386719 180.988281 157.058594 181.757812 158.558594 181.199219 L 174.902344 175.15625 L 172.886719 169.707031 L 159.269531 174.746094 L 155.238281 163.847656 L 168.855469 158.8125 L 166.84375 153.363281 L 153.226562 158.402344 L 149.195312 147.503906 L 162.8125 142.46875 L 160.796875 137.023438 L 144.457031 143.066406 C 142.953125 143.621094 142.183594 145.292969 142.742188 146.796875 Z M 142.742188 146.796875 " fill-opacity="1" fill-rule="nonzero"/></g></g></g></g><g clip-path="url(#15450ae7c0)"><g clip-path="url(#14408138f7)"><g clip-path="url(#faf66c60c6)"><g clip-path="url(#4a3bbd213f)"><path fill="#000000" d="M 191.414062 152.835938 L 171.960938 134.605469 C 170.980469 133.6875 169.5 133.558594 168.371094 134.304688 C 167.246094 135.046875 166.785156 136.46875 167.253906 137.730469 L 180.347656 173.140625 L 185.796875 171.128906 L 176.964844 147.253906 L 196.417969 165.488281 C 197.238281 166.253906 198.398438 166.46875 199.414062 166.09375 C 199.621094 166.015625 199.820312 165.914062 200.011719 165.785156 C 201.132812 165.042969 201.597656 163.625 201.128906 162.359375 L 188.03125 126.949219 L 182.585938 128.964844 Z M 191.414062 152.835938 " fill-opacity="1" fill-rule="nonzero"/></g></g></g></g><g clip-path="url(#f0372f8e0c)"><g clip-path="url(#33541cd8e9)"><g clip-path="url(#95161ef6b7)"><g clip-path="url(#c30b2cf5ac)"><path fill="#000000" d="M 98.15625 160.1875 C 92.148438 162.410156 89.070312 169.101562 91.292969 175.113281 L 97.339844 191.457031 C 99.558594 197.464844 106.253906 200.542969 112.261719 198.324219 C 118.269531 196.101562 121.347656 189.40625 119.125 183.398438 L 113.082031 167.054688 C 110.859375 161.046875 104.164062 157.964844 98.15625 160.1875 Z M 113.679688 185.414062 C 114.789062 188.417969 113.25 191.765625 110.246094 192.875 C 107.242188 193.984375 103.894531 192.445312 102.785156 189.441406 L 96.742188 173.097656 C 95.628906 170.09375 97.167969 166.746094 100.171875 165.636719 C 103.175781 164.523438 106.523438 166.0625 107.632812 169.070312 Z M 113.679688 185.414062 " fill-opacity="1" fill-rule="nonzero"/></g></g></g></g><g clip-path="url(#3c4eb2c5b4)"><g clip-path="url(#f3d82c583e)"><g clip-path="url(#ab169459ed)"><g clip-path="url(#b2afc5776c)"><path fill="#000000" d="M 125.394531 150.113281 L 117.222656 153.136719 C 115.71875 153.691406 114.949219 155.363281 115.507812 156.867188 L 128.601562 192.277344 L 134.050781 190.265625 L 128.003906 173.921875 L 133.453125 171.90625 C 139.460938 169.683594 142.539062 162.992188 140.316406 156.980469 C 138.09375 150.972656 131.402344 147.894531 125.394531 150.113281 Z M 131.4375 166.457031 L 125.988281 168.472656 L 121.960938 157.578125 L 127.40625 155.5625 C 130.410156 154.453125 133.757812 155.992188 134.871094 158.996094 C 135.980469 162 134.441406 165.347656 131.4375 166.457031 Z M 131.4375 166.457031 " fill-opacity="1" fill-rule="nonzero"/></g></g></g></g><g clip-path="url(#dd812fd038)"><path fill="#100f0d" d="M 165.964844 322.128906 C 177.601562 317.925781 205.710938 310.496094 242.1875 318.980469 C 230.65625 312.523438 210.5625 306.644531 177.667969 311.996094 L 172.992188 312.757812 L 172.992188 207.457031 C 171.105469 207.441406 168.601562 207.5 165.964844 207.617188 L 165.964844 322.128906 " fill-opacity="1" fill-rule="nonzero"/></g><path fill="#100f0d" d="M 254.929688 317.800781 L 254.929688 216.265625 C 251.617188 211.894531 232.75 190.96875 181.050781 198.382812 L 181.050781 303.355469 C 188.792969 302.289062 195.863281 301.820312 202.300781 301.820312 C 230.46875 301.820312 246.597656 310.761719 254.929688 317.800781 " fill-opacity="1" fill-rule="nonzero"/><g clip-path="url(#9cebbf8be7)"><path fill="#100f0d" d="M 351.941406 322.128906 L 351.941406 207.617188 C 349.304688 207.5 346.800781 207.445312 344.914062 207.457031 L 344.914062 312.757812 L 340.238281 311.996094 C 307.289062 306.625 287.195312 312.519531 275.679688 318.988281 C 312.164062 310.488281 340.304688 317.925781 351.941406 322.128906 " fill-opacity="1" fill-rule="nonzero"/></g><path fill="#100f0d" d="M 336.855469 303.355469 L 336.855469 198.382812 C 285.132812 190.945312 266.335938 211.847656 262.984375 216.269531 L 262.984375 317.800781 C 273.21875 309.160156 295.242188 297.652344 336.855469 303.355469 " fill-opacity="1" fill-rule="nonzero"/></svg>