<svg xmlns="http://www.w3.org/2000/svg" xmlns:xlink="http://www.w3.org/1999/xlink" width="500" zoomAndPan="magnify" viewBox="0 0 375 374.999991" height="500" preserveAspectRatio="xMidYMid meet" version="1.0"><defs><clipPath id="1cc5736c87"><path d="M 74 43 L 248 43 L 248 334.796875 L 74 334.796875 Z M 74 43 " clip-rule="nonzero"/></clipPath><clipPath id="c3edd04c72"><path d="M 247 120 L 274.660156 120 L 274.660156 130 L 247 130 Z M 247 120 " clip-rule="nonzero"/></clipPath></defs><path fill="#000000" d="M 152.746094 250 L 145.734375 281.578125 C 145.652344 281.949219 145.589844 282.324219 145.546875 282.703125 C 145.503906 283.085938 145.484375 283.464844 145.484375 283.847656 C 145.488281 284.226562 145.507812 284.609375 145.554688 284.988281 C 145.597656 285.367188 145.660156 285.742188 145.746094 286.113281 C 145.832031 286.484375 145.9375 286.851562 146.066406 287.210938 C 146.191406 287.570312 146.339844 287.921875 146.503906 288.265625 C 146.671875 288.609375 146.855469 288.941406 147.058594 289.265625 C 147.261719 289.585938 147.484375 289.898438 147.722656 290.195312 C 147.960938 290.492188 148.214844 290.777344 148.484375 291.046875 C 148.753906 291.316406 149.039062 291.570312 149.335938 291.808594 C 149.636719 292.042969 149.945312 292.265625 150.269531 292.46875 C 150.59375 292.667969 150.925781 292.851562 151.269531 293.019531 C 151.613281 293.183594 151.964844 293.328125 152.324219 293.453125 C 152.683594 293.582031 153.050781 293.6875 153.421875 293.769531 C 153.796875 293.855469 154.171875 293.917969 154.550781 293.960938 C 154.929688 294.003906 155.308594 294.023438 155.691406 294.023438 L 175.542969 294.023438 C 175.925781 294.023438 176.304688 294.003906 176.683594 293.960938 C 177.0625 293.917969 177.4375 293.855469 177.808594 293.769531 C 178.179688 293.6875 178.542969 293.582031 178.902344 293.453125 C 179.261719 293.328125 179.613281 293.183594 179.957031 293.019531 C 180.300781 292.855469 180.632812 292.671875 180.957031 292.46875 C 181.277344 292.265625 181.589844 292.046875 181.886719 291.808594 C 182.1875 291.574219 182.46875 291.320312 182.738281 291.050781 C 183.007812 290.78125 183.261719 290.5 183.5 290.203125 C 183.738281 289.90625 183.960938 289.597656 184.164062 289.273438 C 184.367188 288.953125 184.550781 288.621094 184.71875 288.277344 C 184.886719 287.933594 185.03125 287.582031 185.160156 287.222656 C 185.285156 286.863281 185.390625 286.5 185.476562 286.128906 C 185.566406 285.757812 185.628906 285.382812 185.675781 285.003906 C 185.71875 284.625 185.742188 284.246094 185.742188 283.867188 C 185.746094 283.484375 185.726562 283.105469 185.683594 282.726562 C 185.644531 282.347656 185.582031 281.972656 185.5 281.601562 L 178.488281 250.027344 C 179.453125 249.308594 180.347656 248.511719 181.179688 247.636719 C 182.007812 246.765625 182.761719 245.832031 183.433594 244.832031 C 184.105469 243.835938 184.691406 242.785156 185.1875 241.691406 C 185.683594 240.59375 186.085938 239.460938 186.394531 238.296875 C 186.703125 237.132812 186.910156 235.953125 187.019531 234.753906 C 187.128906 233.554688 187.136719 232.355469 187.042969 231.152344 C 186.949219 229.953125 186.757812 228.769531 186.464844 227.601562 C 186.175781 226.433594 185.789062 225.296875 185.304688 224.191406 C 184.824219 223.089844 184.253906 222.035156 183.59375 221.027344 C 182.933594 220.019531 182.195312 219.074219 181.378906 218.191406 C 180.5625 217.308594 179.675781 216.5 178.722656 215.765625 C 177.769531 215.03125 176.761719 214.378906 175.695312 213.816406 C 174.632812 213.25 173.53125 212.777344 172.390625 212.398438 C 171.246094 212.019531 170.082031 211.738281 168.894531 211.550781 C 167.703125 211.367188 166.507812 211.285156 165.304688 211.300781 C 164.101562 211.320312 162.90625 211.4375 161.722656 211.65625 C 160.699219 211.839844 159.695312 212.101562 158.707031 212.433594 C 157.722656 212.765625 156.765625 213.167969 155.839844 213.636719 C 154.910156 214.109375 154.023438 214.644531 153.171875 215.246094 C 152.320312 215.847656 151.519531 216.507812 150.765625 217.222656 C 150.011719 217.941406 149.3125 218.707031 148.671875 219.527344 C 148.027344 220.347656 147.449219 221.207031 146.933594 222.113281 C 146.414062 223.015625 145.964844 223.949219 145.585938 224.917969 C 145.203125 225.886719 144.894531 226.878906 144.65625 227.894531 C 144.417969 228.90625 144.257812 229.933594 144.167969 230.96875 C 144.082031 232.007812 144.066406 233.046875 144.128906 234.085938 C 144.191406 235.125 144.332031 236.152344 144.542969 237.171875 C 144.753906 238.191406 145.039062 239.191406 145.398438 240.167969 C 145.753906 241.144531 146.179688 242.089844 146.675781 243.007812 C 147.171875 243.921875 147.730469 244.796875 148.351562 245.632812 C 148.972656 246.46875 149.652344 247.253906 150.390625 247.988281 C 151.125 248.722656 151.910156 249.402344 152.746094 250.023438 Z M 153.363281 230.65625 C 153.59375 229.417969 154 228.238281 154.582031 227.117188 C 155.167969 226 155.902344 224.992188 156.789062 224.09375 C 157.675781 223.195312 158.671875 222.449219 159.785156 221.847656 C 160.894531 221.25 162.066406 220.828125 163.304688 220.582031 C 164.070312 220.449219 164.839844 220.382812 165.617188 220.378906 C 167.074219 220.375 168.488281 220.621094 169.859375 221.117188 C 171.226562 221.617188 172.46875 222.335938 173.582031 223.28125 C 173.972656 223.605469 174.34375 223.957031 174.695312 224.328125 C 175.042969 224.699219 175.367188 225.09375 175.667969 225.507812 C 175.96875 225.917969 176.242188 226.347656 176.488281 226.796875 C 176.734375 227.242188 176.953125 227.703125 177.144531 228.175781 C 177.335938 228.648438 177.496094 229.132812 177.625 229.628906 C 177.753906 230.121094 177.855469 230.621094 177.921875 231.128906 C 177.992188 231.632812 178.027344 232.140625 178.035156 232.652344 C 178.039062 233.164062 178.015625 233.671875 177.957031 234.179688 C 177.898438 234.6875 177.8125 235.1875 177.691406 235.683594 C 177.570312 236.179688 177.421875 236.667969 177.242188 237.144531 C 177.0625 237.625 176.851562 238.089844 176.617188 238.539062 C 176.378906 238.992188 176.113281 239.429688 175.824219 239.847656 C 175.53125 240.265625 175.214844 240.667969 174.875 241.046875 C 174.535156 241.425781 174.171875 241.785156 173.785156 242.121094 C 173.402344 242.453125 172.996094 242.765625 172.574219 243.050781 C 172.148438 243.335938 171.710938 243.59375 171.253906 243.824219 C 170.808594 244.054688 170.414062 244.347656 170.066406 244.710938 C 169.71875 245.074219 169.4375 245.480469 169.226562 245.9375 C 169.011719 246.390625 168.878906 246.867188 168.824219 247.367188 C 168.769531 247.867188 168.796875 248.359375 168.90625 248.851562 L 176.628906 283.550781 C 176.714844 283.902344 176.640625 284.21875 176.414062 284.496094 C 176.191406 284.777344 175.902344 284.914062 175.542969 284.910156 L 155.691406 284.910156 C 155.332031 284.914062 155.042969 284.777344 154.820312 284.496094 C 154.59375 284.21875 154.519531 283.902344 154.605469 283.550781 L 162.328125 248.851562 C 162.4375 248.359375 162.464844 247.867188 162.410156 247.367188 C 162.355469 246.867188 162.222656 246.390625 162.007812 245.9375 C 161.796875 245.480469 161.515625 245.074219 161.167969 244.710938 C 160.820312 244.347656 160.425781 244.054688 159.980469 243.824219 C 159.386719 243.527344 158.824219 243.1875 158.289062 242.804688 C 157.753906 242.417969 157.25 241.996094 156.785156 241.527344 C 156.316406 241.0625 155.890625 240.5625 155.503906 240.027344 C 155.113281 239.496094 154.773438 238.933594 154.476562 238.34375 C 154.179688 237.753906 153.929688 237.144531 153.734375 236.515625 C 153.535156 235.886719 153.386719 235.246094 153.292969 234.589844 C 153.195312 233.9375 153.152344 233.28125 153.164062 232.621094 C 153.171875 231.960938 153.234375 231.308594 153.351562 230.65625 Z M 153.363281 230.65625 " fill-opacity="1" fill-rule="nonzero"/><g clip-path="url(#1cc5736c87)"><path fill="#000000" d="M 129.324219 82.53125 C 130.265625 82.085938 131.226562 81.6875 132.207031 81.339844 C 133.1875 80.988281 134.183594 80.6875 135.191406 80.4375 C 136.203125 80.183594 137.222656 79.980469 138.25 79.828125 C 139.28125 79.675781 140.316406 79.574219 141.355469 79.527344 C 142.394531 79.476562 143.433594 79.476562 144.472656 79.527344 C 145.511719 79.578125 146.546875 79.679688 147.578125 79.835938 C 148.605469 79.988281 149.625 80.191406 150.636719 80.445312 C 151.644531 80.695312 152.640625 81 153.621094 81.347656 C 154.601562 81.699219 155.5625 82.097656 156.5 82.542969 C 157.441406 82.988281 158.359375 83.476562 159.253906 84.011719 C 160.144531 84.546875 161.011719 85.125 161.847656 85.746094 C 162.683594 86.367188 163.488281 87.023438 164.257812 87.722656 C 165.03125 88.421875 165.765625 89.15625 166.464844 89.929688 C 167.164062 90.699219 167.824219 91.503906 168.445312 92.339844 C 169.066406 93.175781 169.644531 94.039062 170.183594 94.929688 C 170.71875 95.824219 171.210938 96.742188 171.65625 97.679688 L 191.054688 138.777344 C 191.179688 139.042969 191.332031 139.296875 191.507812 139.535156 C 191.679688 139.769531 191.875 139.988281 192.09375 140.1875 C 192.3125 140.386719 192.546875 140.5625 192.796875 140.71875 C 193.046875 140.871094 193.3125 141 193.585938 141.101562 C 193.863281 141.203125 194.148438 141.277344 194.4375 141.324219 C 194.730469 141.371094 195.019531 141.390625 195.316406 141.382812 C 195.609375 141.371094 195.902344 141.332031 196.1875 141.265625 C 196.476562 141.199219 196.753906 141.105469 197.019531 140.988281 L 221.917969 129.847656 C 222.195312 129.726562 222.457031 129.578125 222.707031 129.402344 C 222.953125 129.226562 223.179688 129.03125 223.386719 128.808594 C 223.597656 128.589844 223.78125 128.347656 223.941406 128.09375 C 224.101562 127.835938 224.234375 127.5625 224.339844 127.28125 C 224.445312 126.996094 224.519531 126.703125 224.570312 126.40625 C 224.617188 126.105469 224.632812 125.804688 224.621094 125.5 C 224.609375 125.199219 224.566406 124.898438 224.492188 124.605469 C 224.421875 124.3125 224.320312 124.027344 224.191406 123.753906 L 204.519531 82.117188 C 204.042969 81.105469 203.539062 80.109375 203.015625 79.125 C 202.488281 78.140625 201.9375 77.171875 201.367188 76.214844 C 200.792969 75.257812 200.195312 74.3125 199.574219 73.386719 C 198.957031 72.457031 198.316406 71.542969 197.648438 70.648438 C 196.984375 69.75 196.300781 68.871094 195.59375 68.007812 C 194.882812 67.148438 194.15625 66.300781 193.40625 65.476562 C 192.660156 64.648438 191.890625 63.839844 191.101562 63.050781 C 190.3125 62.261719 189.503906 61.492188 188.679688 60.742188 C 187.851562 59.992188 187.007812 59.261719 186.144531 58.554688 C 185.285156 57.847656 184.402344 57.160156 183.507812 56.496094 C 182.613281 55.832031 181.699219 55.1875 180.773438 54.566406 C 179.847656 53.949219 178.902344 53.351562 177.949219 52.777344 C 176.992188 52.203125 176.019531 51.652344 175.035156 51.128906 C 174.054688 50.601562 173.058594 50.097656 172.050781 49.621094 C 171.039062 49.144531 170.019531 48.691406 168.992188 48.265625 C 167.960938 47.835938 166.921875 47.4375 165.871094 47.058594 C 164.820312 46.683594 163.761719 46.332031 162.695312 46.011719 C 161.625 45.6875 160.550781 45.386719 159.46875 45.117188 C 158.386719 44.84375 157.300781 44.601562 156.207031 44.382812 C 155.113281 44.164062 154.011719 43.972656 152.910156 43.808594 C 151.804688 43.648438 150.699219 43.511719 149.589844 43.402344 C 148.480469 43.289062 147.367188 43.207031 146.253906 43.152344 C 145.140625 43.097656 144.023438 43.070312 142.910156 43.070312 C 141.792969 43.070312 140.679688 43.097656 139.566406 43.152344 C 138.449219 43.207031 137.339844 43.289062 136.226562 43.398438 C 135.117188 43.507812 134.011719 43.644531 132.90625 43.808594 C 131.804688 43.972656 130.707031 44.164062 129.613281 44.378906 C 128.519531 44.597656 127.429688 44.84375 126.347656 45.113281 C 125.265625 45.382812 124.191406 45.683594 123.125 46.007812 C 122.054688 46.328125 120.996094 46.679688 119.945312 47.054688 C 118.898438 47.429688 117.855469 47.832031 116.824219 48.261719 C 115.796875 48.6875 114.777344 49.140625 113.765625 49.617188 C 112.757812 50.09375 111.761719 50.59375 110.777344 51.121094 C 109.796875 51.648438 108.824219 52.195312 107.867188 52.769531 C 106.910156 53.34375 105.96875 53.941406 105.042969 54.5625 C 104.113281 55.179688 103.203125 55.824219 102.308594 56.488281 C 101.410156 57.152344 100.53125 57.839844 99.667969 58.546875 C 98.808594 59.253906 97.960938 59.984375 97.136719 60.734375 C 96.308594 61.484375 95.5 62.25 94.714844 63.039062 C 93.925781 63.828125 93.15625 64.636719 92.40625 65.464844 C 91.65625 66.292969 90.929688 67.136719 90.21875 68 C 89.511719 68.863281 88.828125 69.742188 88.164062 70.636719 C 87.496094 71.535156 86.855469 72.445312 86.234375 73.375 C 85.617188 74.300781 85.019531 75.246094 84.445312 76.203125 C 83.871094 77.160156 83.324219 78.128906 82.796875 79.113281 C 82.269531 80.097656 81.769531 81.09375 81.292969 82.105469 C 80.816406 83.113281 80.363281 84.132812 79.9375 85.164062 C 79.507812 86.195312 79.109375 87.234375 78.730469 88.285156 C 78.355469 89.335938 78.007812 90.398438 77.683594 91.464844 C 77.359375 92.53125 77.0625 93.609375 76.789062 94.691406 C 76.519531 95.773438 76.273438 96.863281 76.054688 97.957031 C 75.839844 99.050781 75.648438 100.148438 75.484375 101.253906 C 75.320312 102.359375 75.183594 103.464844 75.074219 104.578125 C 74.964844 105.6875 74.882812 106.800781 74.828125 107.914062 C 74.773438 109.027344 74.746094 110.144531 74.746094 111.261719 C 74.746094 112.375 74.773438 113.492188 74.828125 114.605469 C 74.882812 115.722656 74.964844 116.835938 75.074219 117.945312 C 75.183594 119.054688 75.320312 120.164062 75.480469 121.265625 C 75.644531 122.371094 75.835938 123.46875 76.054688 124.566406 C 76.269531 125.660156 76.515625 126.75 76.785156 127.832031 C 77.058594 128.914062 77.355469 129.988281 77.679688 131.058594 C 78.003906 132.125 78.351562 133.183594 78.726562 134.234375 C 79.101562 135.285156 79.503906 136.328125 79.929688 137.359375 C 80.359375 138.390625 80.808594 139.410156 81.285156 140.417969 L 98.339844 176.515625 C 97.277344 176.925781 96.253906 177.414062 95.269531 177.976562 C 94.28125 178.542969 93.34375 179.179688 92.453125 179.882812 C 91.5625 180.589844 90.730469 181.359375 89.953125 182.1875 C 89.175781 183.019531 88.46875 183.902344 87.824219 184.839844 C 87.179688 185.777344 86.613281 186.757812 86.117188 187.78125 C 85.621094 188.804688 85.203125 189.859375 84.863281 190.945312 C 84.527344 192.027344 84.269531 193.132812 84.097656 194.257812 C 83.925781 195.382812 83.839844 196.511719 83.835938 197.648438 L 83.835938 311.300781 C 83.835938 312.042969 83.875 312.785156 83.945312 313.527344 C 84.019531 314.265625 84.128906 315.003906 84.277344 315.730469 C 84.421875 316.460938 84.601562 317.183594 84.820312 317.894531 C 85.035156 318.605469 85.285156 319.304688 85.570312 319.992188 C 85.855469 320.679688 86.175781 321.351562 86.527344 322.007812 C 86.875 322.664062 87.257812 323.304688 87.671875 323.921875 C 88.085938 324.539062 88.527344 325.136719 89 325.710938 C 89.472656 326.289062 89.972656 326.839844 90.496094 327.363281 C 91.023438 327.890625 91.574219 328.390625 92.148438 328.863281 C 92.722656 329.335938 93.320312 329.777344 93.9375 330.191406 C 94.554688 330.605469 95.195312 330.988281 95.847656 331.339844 C 96.503906 331.6875 97.175781 332.007812 97.863281 332.292969 C 98.550781 332.578125 99.25 332.828125 99.960938 333.046875 C 100.671875 333.261719 101.394531 333.441406 102.121094 333.589844 C 102.851562 333.734375 103.585938 333.84375 104.328125 333.917969 C 105.066406 333.992188 105.808594 334.027344 106.550781 334.03125 L 224.683594 334.03125 C 225.425781 334.027344 226.167969 333.992188 226.90625 333.917969 C 227.648438 333.84375 228.382812 333.734375 229.113281 333.589844 C 229.839844 333.441406 230.5625 333.261719 231.273438 333.046875 C 231.984375 332.828125 232.683594 332.578125 233.371094 332.292969 C 234.058594 332.007812 234.730469 331.6875 235.386719 331.339844 C 236.039062 330.988281 236.679688 330.605469 237.296875 330.191406 C 237.914062 329.777344 238.511719 329.335938 239.085938 328.863281 C 239.660156 328.390625 240.210938 327.890625 240.738281 327.363281 C 241.261719 326.839844 241.761719 326.289062 242.234375 325.710938 C 242.707031 325.136719 243.148438 324.539062 243.5625 323.921875 C 243.976562 323.304688 244.359375 322.664062 244.707031 322.007812 C 245.058594 321.351562 245.378906 320.679688 245.664062 319.992188 C 245.949219 319.304688 246.199219 318.605469 246.414062 317.894531 C 246.632812 317.183594 246.8125 316.460938 246.957031 315.730469 C 247.105469 315.003906 247.214844 314.265625 247.285156 313.527344 C 247.359375 312.785156 247.398438 312.042969 247.398438 311.300781 L 247.398438 197.648438 C 247.398438 196.90625 247.359375 196.164062 247.285156 195.421875 C 247.214844 194.679688 247.105469 193.945312 246.957031 193.214844 C 246.8125 192.488281 246.632812 191.765625 246.414062 191.054688 C 246.199219 190.339844 245.949219 189.640625 245.664062 188.953125 C 245.378906 188.265625 245.058594 187.59375 244.707031 186.9375 C 244.359375 186.28125 243.976562 185.644531 243.5625 185.027344 C 243.148438 184.410156 242.707031 183.8125 242.234375 183.234375 C 241.761719 182.660156 241.261719 182.109375 240.738281 181.585938 C 240.210938 181.058594 239.660156 180.558594 239.085938 180.085938 C 238.511719 179.613281 237.914062 179.171875 237.296875 178.757812 C 236.679688 178.34375 236.039062 177.960938 235.386719 177.609375 C 234.730469 177.257812 234.058594 176.941406 233.371094 176.65625 C 232.683594 176.371094 231.984375 176.121094 231.273438 175.902344 C 230.5625 175.6875 229.839844 175.503906 229.113281 175.359375 C 228.382812 175.214844 227.648438 175.105469 226.90625 175.03125 C 226.167969 174.957031 225.425781 174.917969 224.683594 174.917969 L 137.765625 174.917969 L 114.140625 124.914062 C 113.695312 123.96875 113.300781 123.007812 112.953125 122.023438 C 112.605469 121.042969 112.304688 120.046875 112.054688 119.035156 C 111.800781 118.023438 111.601562 117.003906 111.449219 115.972656 C 111.300781 114.941406 111.199219 113.90625 111.148438 112.863281 C 111.101562 111.824219 111.101562 110.785156 111.15625 109.742188 C 111.207031 108.703125 111.308594 107.667969 111.464844 106.636719 C 111.617188 105.605469 111.824219 104.585938 112.078125 103.574219 C 112.332031 102.5625 112.632812 101.570312 112.984375 100.585938 C 113.335938 99.605469 113.734375 98.644531 114.183594 97.703125 C 114.628906 96.761719 115.117188 95.84375 115.65625 94.953125 C 116.191406 94.058594 116.769531 93.195312 117.390625 92.355469 C 118.011719 91.519531 118.671875 90.714844 119.371094 89.945312 C 120.070312 89.171875 120.804688 88.4375 121.578125 87.738281 C 122.347656 87.035156 123.152344 86.375 123.988281 85.753906 C 124.824219 85.136719 125.6875 84.554688 126.582031 84.019531 C 127.476562 83.484375 128.390625 82.992188 129.332031 82.546875 Z M 238.3125 197.648438 L 238.3125 311.300781 C 238.3125 312.195312 238.226562 313.082031 238.050781 313.960938 C 237.875 314.839844 237.617188 315.691406 237.273438 316.519531 C 236.933594 317.347656 236.511719 318.132812 236.015625 318.875 C 235.519531 319.621094 234.953125 320.308594 234.320312 320.941406 C 233.6875 321.578125 233 322.140625 232.253906 322.640625 C 231.511719 323.136719 230.726562 323.558594 229.898438 323.898438 C 229.070312 324.242188 228.21875 324.5 227.339844 324.675781 C 226.464844 324.851562 225.578125 324.9375 224.683594 324.9375 L 106.550781 324.9375 C 105.65625 324.9375 104.769531 324.851562 103.894531 324.675781 C 103.015625 324.5 102.164062 324.242188 101.335938 323.898438 C 100.507812 323.558594 99.722656 323.136719 98.980469 322.640625 C 98.234375 322.140625 97.546875 321.578125 96.914062 320.941406 C 96.28125 320.308594 95.714844 319.621094 95.21875 318.875 C 94.722656 318.132812 94.300781 317.347656 93.960938 316.519531 C 93.617188 315.691406 93.359375 314.839844 93.183594 313.960938 C 93.007812 313.082031 92.921875 312.195312 92.921875 311.300781 L 92.921875 197.648438 C 92.921875 196.753906 93.007812 195.867188 93.183594 194.988281 C 93.359375 194.109375 93.617188 193.257812 93.960938 192.429688 C 94.300781 191.601562 94.722656 190.816406 95.21875 190.070312 C 95.714844 189.328125 96.28125 188.636719 96.914062 188.003906 C 97.546875 187.371094 98.234375 186.804688 98.980469 186.308594 C 99.722656 185.8125 100.507812 185.390625 101.335938 185.046875 C 102.164062 184.707031 103.015625 184.449219 103.894531 184.273438 C 104.769531 184.097656 105.65625 184.011719 106.550781 184.011719 L 224.683594 184.011719 C 225.578125 184.011719 226.464844 184.097656 227.339844 184.273438 C 228.21875 184.449219 229.070312 184.707031 229.898438 185.046875 C 230.726562 185.390625 231.511719 185.8125 232.253906 186.308594 C 233 186.804688 233.6875 187.371094 234.320312 188.003906 C 234.953125 188.636719 235.519531 189.328125 236.015625 190.070312 C 236.511719 190.816406 236.933594 191.601562 237.273438 192.429688 C 237.617188 193.257812 237.875 194.109375 238.050781 194.988281 C 238.226562 195.867188 238.3125 196.753906 238.3125 197.648438 Z M 104.421875 97.5 C 103.507812 100.027344 102.847656 102.617188 102.449219 105.277344 C 102.046875 107.933594 101.910156 110.605469 102.039062 113.289062 C 102.167969 115.972656 102.554688 118.621094 103.207031 121.226562 C 103.859375 123.835938 104.761719 126.351562 105.910156 128.78125 L 127.714844 174.917969 L 107.636719 174.917969 L 89.503906 136.53125 C 88.71875 134.789062 88.015625 133.007812 87.402344 131.195312 C 86.789062 129.382812 86.261719 127.546875 85.824219 125.683594 C 85.390625 123.820312 85.042969 121.9375 84.789062 120.042969 C 84.535156 118.144531 84.375 116.242188 84.304688 114.328125 C 84.238281 112.414062 84.261719 110.503906 84.378906 108.59375 C 84.496094 106.683594 84.703125 104.78125 85.003906 102.890625 C 85.304688 101.003906 85.699219 99.132812 86.183594 97.277344 C 86.664062 95.425781 87.234375 93.601562 87.894531 91.804688 C 88.554688 90.011719 89.300781 88.25 90.132812 86.527344 C 90.964844 84.800781 91.875 83.121094 92.871094 81.488281 C 93.863281 79.851562 94.9375 78.269531 96.082031 76.738281 C 97.230469 75.207031 98.449219 73.734375 99.742188 72.324219 C 101.03125 70.910156 102.390625 69.5625 103.808594 68.28125 C 105.230469 67.003906 106.710938 65.792969 108.25 64.65625 C 109.789062 63.519531 111.378906 62.460938 113.023438 61.476562 C 114.664062 60.496094 116.347656 59.59375 118.078125 58.777344 C 119.808594 57.957031 121.574219 57.226562 123.371094 56.578125 C 125.171875 55.933594 127 55.375 128.855469 54.90625 C 130.710938 54.4375 132.582031 54.058594 134.472656 53.769531 C 136.363281 53.484375 138.265625 53.289062 140.175781 53.1875 C 142.085938 53.085938 143.996094 53.074219 145.90625 53.160156 C 147.820312 53.242188 149.722656 53.417969 151.613281 53.6875 C 153.507812 53.957031 155.386719 54.316406 157.246094 54.765625 C 159.105469 55.214844 160.9375 55.757812 162.742188 56.386719 C 164.550781 57.015625 166.320312 57.730469 168.058594 58.53125 C 169.796875 59.332031 171.492188 60.214844 173.140625 61.179688 C 174.792969 62.148438 176.394531 63.191406 177.945312 64.3125 C 179.492188 65.433594 180.984375 66.628906 182.421875 67.894531 C 183.855469 69.160156 185.222656 70.496094 186.527344 71.894531 C 187.832031 73.292969 189.066406 74.753906 190.230469 76.273438 C 191.390625 77.792969 192.480469 79.367188 193.488281 80.992188 C 194.5 82.617188 195.429688 84.285156 196.277344 86.003906 L 213.96875 123.445312 L 197.367188 130.871094 L 179.867188 93.792969 C 179.003906 91.976562 178.015625 90.230469 176.898438 88.5625 C 175.78125 86.890625 174.546875 85.308594 173.199219 83.820312 C 171.847656 82.328125 170.394531 80.945312 168.839844 79.671875 C 167.285156 78.394531 165.648438 77.242188 163.921875 76.207031 C 162.199219 75.175781 160.410156 74.273438 158.550781 73.503906 C 156.695312 72.734375 154.792969 72.105469 152.839844 71.617188 C 150.890625 71.128906 148.917969 70.785156 146.917969 70.589844 C 144.917969 70.390625 142.914062 70.34375 140.90625 70.441406 C 138.898438 70.539062 136.90625 70.785156 134.9375 71.175781 C 132.964844 71.570312 131.035156 72.105469 129.140625 72.78125 C 127.25 73.457031 125.414062 74.269531 123.644531 75.21875 C 121.871094 76.164062 120.175781 77.238281 118.5625 78.4375 C 116.945312 79.632812 115.429688 80.941406 114.007812 82.363281 C 112.585938 83.785156 111.273438 85.304688 110.078125 86.917969 C 108.878906 88.535156 107.804688 90.226562 106.855469 92 C 105.910156 93.773438 105.09375 95.605469 104.417969 97.5 Z M 104.421875 97.5 " fill-opacity="1" fill-rule="nonzero"/></g><path fill="#000000" d="M 233.769531 106.726562 L 233.769531 83.996094 C 233.769531 83.699219 233.738281 83.402344 233.679688 83.109375 C 233.621094 82.816406 233.535156 82.535156 233.421875 82.257812 C 233.308594 81.980469 233.167969 81.71875 233.003906 81.472656 C 232.835938 81.222656 232.648438 80.996094 232.4375 80.785156 C 232.226562 80.570312 231.996094 80.382812 231.75 80.21875 C 231.5 80.050781 231.238281 79.910156 230.964844 79.796875 C 230.6875 79.683594 230.402344 79.597656 230.113281 79.539062 C 229.820312 79.480469 229.523438 79.453125 229.226562 79.453125 C 228.925781 79.453125 228.632812 79.480469 228.339844 79.539062 C 228.046875 79.597656 227.761719 79.683594 227.488281 79.796875 C 227.210938 79.910156 226.949219 80.050781 226.699219 80.21875 C 226.453125 80.382812 226.222656 80.570312 226.011719 80.785156 C 225.800781 80.996094 225.613281 81.222656 225.449219 81.472656 C 225.28125 81.71875 225.140625 81.980469 225.027344 82.257812 C 224.914062 82.535156 224.828125 82.816406 224.769531 83.109375 C 224.710938 83.402344 224.683594 83.699219 224.683594 83.996094 L 224.683594 106.726562 C 224.683594 107.027344 224.710938 107.320312 224.769531 107.613281 C 224.828125 107.90625 224.914062 108.191406 225.027344 108.46875 C 225.140625 108.742188 225.28125 109.003906 225.449219 109.253906 C 225.613281 109.5 225.800781 109.730469 226.011719 109.941406 C 226.222656 110.152344 226.453125 110.34375 226.699219 110.507812 C 226.949219 110.671875 227.210938 110.8125 227.488281 110.929688 C 227.761719 111.042969 228.046875 111.128906 228.339844 111.1875 C 228.632812 111.246094 228.925781 111.273438 229.226562 111.273438 C 229.523438 111.273438 229.820312 111.246094 230.113281 111.1875 C 230.402344 111.128906 230.6875 111.042969 230.964844 110.929688 C 231.238281 110.8125 231.5 110.671875 231.75 110.507812 C 231.996094 110.34375 232.226562 110.152344 232.4375 109.941406 C 232.648438 109.730469 232.835938 109.5 233.003906 109.253906 C 233.167969 109.003906 233.308594 108.742188 233.421875 108.46875 C 233.535156 108.191406 233.621094 107.90625 233.679688 107.613281 C 233.738281 107.320312 233.769531 107.027344 233.769531 106.726562 Z M 233.769531 106.726562 " fill-opacity="1" fill-rule="nonzero"/><path fill="#000000" d="M 257.816406 89.875 L 239.644531 108.058594 C 239.425781 108.269531 239.230469 108.5 239.0625 108.746094 C 238.890625 108.996094 238.746094 109.257812 238.625 109.535156 C 238.507812 109.8125 238.414062 110.097656 238.351562 110.394531 C 238.292969 110.691406 238.257812 110.988281 238.257812 111.289062 C 238.253906 111.59375 238.28125 111.890625 238.339844 112.1875 C 238.394531 112.484375 238.480469 112.773438 238.59375 113.050781 C 238.707031 113.332031 238.847656 113.597656 239.015625 113.847656 C 239.183594 114.097656 239.375 114.332031 239.585938 114.542969 C 239.800781 114.757812 240.03125 114.949219 240.285156 115.113281 C 240.535156 115.28125 240.800781 115.421875 241.078125 115.539062 C 241.359375 115.652344 241.644531 115.738281 241.941406 115.792969 C 242.238281 115.851562 242.539062 115.878906 242.839844 115.875 C 243.140625 115.875 243.4375 115.839844 243.734375 115.777344 C 244.03125 115.714844 244.316406 115.625 244.59375 115.507812 C 244.871094 115.386719 245.132812 115.242188 245.382812 115.070312 C 245.628906 114.898438 245.859375 114.707031 246.066406 114.488281 L 264.242188 96.304688 C 264.445312 96.089844 264.628906 95.863281 264.789062 95.613281 C 264.949219 95.367188 265.082031 95.105469 265.191406 94.832031 C 265.300781 94.554688 265.382812 94.273438 265.4375 93.984375 C 265.492188 93.695312 265.519531 93.402344 265.515625 93.105469 C 265.515625 92.8125 265.484375 92.519531 265.421875 92.230469 C 265.363281 91.941406 265.277344 91.660156 265.164062 91.386719 C 265.050781 91.117188 264.910156 90.855469 264.746094 90.613281 C 264.582031 90.367188 264.394531 90.140625 264.1875 89.929688 C 263.976562 89.722656 263.75 89.535156 263.503906 89.371094 C 263.261719 89.207031 263.003906 89.066406 262.730469 88.953125 C 262.457031 88.839844 262.179688 88.753906 261.890625 88.691406 C 261.601562 88.632812 261.308594 88.601562 261.011719 88.601562 C 260.71875 88.597656 260.425781 88.625 260.136719 88.675781 C 259.84375 88.730469 259.5625 88.8125 259.289062 88.921875 C 259.015625 89.03125 258.753906 89.167969 258.507812 89.328125 C 258.257812 89.488281 258.027344 89.671875 257.816406 89.875 Z M 257.816406 89.875 " fill-opacity="1" fill-rule="nonzero"/><g clip-path="url(#c3edd04c72)"><path fill="#000000" d="M 247.398438 124.914062 C 247.398438 125.210938 247.429688 125.507812 247.484375 125.800781 C 247.542969 126.09375 247.628906 126.375 247.746094 126.652344 C 247.859375 126.925781 248 127.191406 248.164062 127.4375 C 248.332031 127.6875 248.519531 127.914062 248.730469 128.125 C 248.941406 128.335938 249.171875 128.527344 249.417969 128.691406 C 249.667969 128.859375 249.929688 128.996094 250.203125 129.113281 C 250.480469 129.226562 250.761719 129.3125 251.054688 129.371094 C 251.347656 129.429688 251.644531 129.457031 251.941406 129.457031 L 270.117188 129.457031 C 270.414062 129.457031 270.710938 129.429688 271.003906 129.371094 C 271.296875 129.3125 271.578125 129.226562 271.855469 129.113281 C 272.128906 128.996094 272.390625 128.859375 272.640625 128.691406 C 272.886719 128.527344 273.117188 128.335938 273.328125 128.125 C 273.539062 127.914062 273.726562 127.6875 273.894531 127.4375 C 274.058594 127.191406 274.199219 126.925781 274.3125 126.652344 C 274.425781 126.375 274.515625 126.09375 274.570312 125.800781 C 274.628906 125.507812 274.660156 125.210938 274.660156 124.914062 C 274.660156 124.613281 274.628906 124.316406 274.570312 124.023438 C 274.515625 123.734375 274.425781 123.449219 274.3125 123.171875 C 274.199219 122.898438 274.058594 122.632812 273.894531 122.386719 C 273.726562 122.136719 273.539062 121.910156 273.328125 121.699219 C 273.117188 121.488281 272.886719 121.296875 272.640625 121.132812 C 272.390625 120.964844 272.128906 120.828125 271.855469 120.710938 C 271.578125 120.597656 271.296875 120.511719 271.003906 120.453125 C 270.710938 120.394531 270.414062 120.367188 270.117188 120.367188 L 251.941406 120.367188 C 251.644531 120.367188 251.347656 120.394531 251.054688 120.453125 C 250.761719 120.511719 250.480469 120.597656 250.203125 120.710938 C 249.929688 120.828125 249.667969 120.964844 249.417969 121.132812 C 249.171875 121.296875 248.941406 121.488281 248.730469 121.699219 C 248.519531 121.910156 248.332031 122.136719 248.164062 122.386719 C 248 122.632812 247.859375 122.898438 247.746094 123.171875 C 247.628906 123.449219 247.542969 123.734375 247.484375 124.023438 C 247.429688 124.316406 247.398438 124.613281 247.398438 124.914062 Z M 247.398438 124.914062 " fill-opacity="1" fill-rule="nonzero"/></g><path fill="#5fb643" d="M 329.652344 138.367188 C 327.902344 139.976562 326.128906 141.609375 324.148438 143.429688 C 323.476562 143 322.6875 142.53125 321.929688 142.011719 C 299.226562 126.511719 267.765625 138.089844 261.15625 164.691406 C 255.636719 186.90625 269.996094 206.527344 289.039062 211.414062 C 308.824219 216.492188 328.03125 207.101562 335.914062 188.628906 C 339.136719 181.085938 339.644531 173.246094 337.792969 165.324219 C 337.164062 162.628906 337.238281 160.421875 339.109375 158.285156 C 340.132812 157.113281 340.890625 155.710938 341.984375 154.089844 C 342.550781 154.894531 343.054688 155.386719 343.300781 155.984375 C 348.726562 169.285156 348.527344 182.554688 341.730469 195.1875 C 332.144531 212.992188 316.6875 221.84375 296.5 220.714844 C 266.375 219.023438 247.523438 191.5 252.765625 164.902344 C 256.984375 143.503906 277.214844 125.09375 303.65625 127.199219 C 312.285156 127.886719 320.199219 130.871094 327.265625 135.9375 C 327.867188 136.371094 328.457031 136.824219 329.007812 137.316406 C 329.230469 137.515625 329.335938 137.835938 329.652344 138.367188 Z M 329.652344 138.367188 " fill-opacity="1" fill-rule="nonzero"/><path fill="#5fb643" d="M 298.644531 180.214844 C 301.082031 177.53125 303.167969 175.15625 305.335938 172.859375 C 317.609375 159.839844 329.882812 146.816406 342.21875 133.855469 C 344.105469 131.867188 346.273438 130.132812 348.40625 128.394531 C 349.25 127.710938 350.355469 127.339844 351.339844 126.828125 C 352.515625 128.441406 351.730469 129.574219 351.097656 130.609375 C 348.734375 134.492188 346.410156 138.410156 343.859375 142.171875 C 331.683594 160.117188 319.46875 178.035156 307.171875 195.898438 C 305.570312 198.222656 303.527344 200.300781 301.449219 202.234375 C 299.414062 204.132812 298.355469 204.042969 296.089844 202.449219 C 295.136719 201.78125 294.191406 201.066406 293.402344 200.226562 C 285.496094 191.820312 277.558594 183.441406 269.78125 174.921875 C 266.566406 171.402344 267.082031 169.273438 271.210938 166.917969 C 271.945312 166.496094 272.738281 166.179688 273.492188 165.785156 C 277.644531 163.609375 281.246094 163.910156 284.683594 167.488281 C 288.121094 171.074219 291.972656 174.265625 295.652344 177.617188 C 296.492188 178.386719 297.371094 179.113281 298.644531 180.214844 Z M 298.644531 180.214844 " fill-opacity="1" fill-rule="nonzero"/></svg>